<svg width="23" height="25" viewBox="0 0 23 25" fill="none" xmlns="http://www.w3.org/2000/svg">
<path d="M0.855283 22.9208H13.5098C15.1564 25.1773 18.3276 25.6652 20.5841 24.0491C22.8406 22.4025 23.3285 19.2312 21.7124 16.9748C20.5841 15.4197 18.6631 14.6268 16.742 14.9622C15.6443 13.2546 13.9672 12.0045 12.0157 11.3946C14.9734 9.86993 16.1322 6.21084 14.5771 3.253C13.022 0.295163 9.39331 -0.863511 6.43547 0.691596C3.47763 2.2467 2.34945 5.87535 3.87406 8.83313C4.45343 9.93086 5.33773 10.8152 6.43547 11.3945C2.80682 12.5228 0.336914 15.877 0.336914 19.6581V22.3719C0.336914 22.6768 0.580849 22.9208 0.855283 22.9208V22.9208ZM16.62 16.0904C18.7545 15.5415 20.9195 16.8527 21.4684 18.9873C22.0173 21.1218 20.7061 23.2867 18.5716 23.8356C16.0712 24.4455 13.6318 22.5245 13.6318 19.9326C13.6318 18.103 14.8514 16.5173 16.62 16.0904V16.0904ZM4.27049 6.08878C4.27049 3.34444 6.46597 1.11847 9.21031 1.11847C11.9547 1.11847 14.1806 3.31394 14.1806 6.05828C14.1806 8.80263 11.9852 11.0286 9.21031 11.0286C6.49647 11.0286 4.27049 8.80269 4.27049 6.08878V6.08878ZM1.40415 19.6581C1.40415 15.4805 4.78886 12.0958 8.99687 12.0653H9.51524C11.9547 12.0653 14.2721 13.2546 15.7053 15.2671C13.8758 16.0294 12.595 17.859 12.595 19.9324C12.595 20.5423 12.717 21.2131 12.961 21.8535H1.40415V19.6581Z" fill="#344C98"/>
<path d="M15.5528 20.4813H17.0774V22.006C17.0774 22.311 17.3214 22.5549 17.6263 22.5549C17.9312 22.5549 18.1752 22.311 18.1752 22.006V20.4813H19.6998C20.0048 20.4813 20.2487 20.2374 20.2487 19.9325C20.2487 19.6275 20.0048 19.3836 19.6998 19.3836H18.1752V17.8894C18.1752 17.5845 17.9312 17.3406 17.6263 17.3406C17.3214 17.3406 17.0774 17.5845 17.0774 17.8894V19.3836H15.5528C15.2478 19.3836 15.0039 19.6275 15.0039 19.9325C15.0039 20.2374 15.2478 20.4813 15.5528 20.4813Z" fill="#344C98"/>
</svg>
