<svg width="17" height="10" viewBox="0 0 17 10" fill="none" xmlns="http://www.w3.org/2000/svg">
<path d="M11.6253 0.352389C11.6253 0.442578 11.6621 0.532767 11.7352 0.601466L15.5952 4.2277L0.374996 4.2277C0.167614 4.2277 -1.54681e-05 4.38553 -1.54773e-05 4.58C-1.54866e-05 4.77447 0.167614 4.9323 0.374996 4.9323L15.5952 4.9323L11.7352 8.55854C11.6621 8.62724 11.6253 8.71743 11.6253 8.80761C11.6253 8.8978 11.6621 8.98799 11.7352 9.05669C11.8818 9.19444 12.1188 9.19444 12.2654 9.05669L16.7652 4.82943C16.8001 4.79702 16.8275 4.75791 16.8466 4.71458C16.8845 4.62862 16.8845 4.53138 16.8466 4.44542C16.8275 4.40209 16.8001 4.36334 16.7652 4.33057L12.2654 0.103312C12.1188 -0.0344376 11.8818 -0.0344376 11.7352 0.103312C11.6617 0.172011 11.6253 0.2622 11.6253 0.352389Z" fill="#464250"/>
</svg>
