<svg width="25" height="24" viewBox="0 0 25 24" fill="none" xmlns="http://www.w3.org/2000/svg">
<path d="M10.2909 13.3899H0.693962C0.310804 13.3899 0 13.6694 0 14.0143V22.6517C0 22.9965 0.310804 23.276 0.693962 23.276H10.2909C10.674 23.276 10.9848 22.9965 10.9848 22.6517V14.0143C10.9848 13.6694 10.674 13.3899 10.2909 13.3899ZM9.59711 22.0271H1.38792V14.6388H9.59711V22.0271Z" fill="white"/>
<path d="M4.053 20.2996H6.93211C7.31528 20.2996 7.62608 20.0199 7.62608 19.675V17.0838C7.62608 16.7388 7.31528 16.4595 6.93211 16.4595H4.053C3.66963 16.4595 3.35925 16.7388 3.35925 17.0838V19.675C3.35925 20.0199 3.66963 20.2996 4.053 20.2996ZM4.74697 17.7084H6.23836V19.0507H4.74697V17.7084Z" fill="white"/>
<path d="M14.7092 9.88614H24.3063C24.6893 9.88614 25.0001 9.60661 25.0001 9.26157V0.624566C25.0001 0.279529 24.6893 0 24.3063 0H14.7092C14.3261 0 14.0153 0.279529 14.0153 0.624566V9.26157C14.0153 9.60661 14.3261 9.88614 14.7092 9.88614ZM15.403 1.24894H23.6122V8.6372H15.403V1.24894Z" fill="white"/>
<path d="M20.9471 3.02319H18.068C17.6848 3.02319 17.374 3.30272 17.374 3.64756V6.23874C17.374 6.58359 17.6848 6.86331 18.068 6.86331H20.9471C21.3305 6.86331 21.641 6.58359 21.641 6.23874V3.64756C21.641 3.30272 21.3305 3.02319 20.9471 3.02319ZM20.2531 5.61437H18.7622V4.27213H20.2531V5.61437Z" fill="white"/>
<path d="M25.0001 22.6517V14.0143C25.0001 13.6694 24.6893 13.3899 24.3063 13.3899H14.7092C14.3261 13.3899 14.0153 13.6694 14.0153 14.0143V22.6517C14.0153 22.9965 14.3261 23.276 14.7092 23.276H24.3063C24.6893 23.276 25.0001 22.9965 25.0001 22.6517ZM23.6122 22.0271H15.403V14.6388H23.6122V22.0271Z" fill="white"/>
<path d="M18.068 20.2996H20.9471C21.3305 20.2996 21.641 20.0199 21.641 19.675V17.0838C21.641 16.7388 21.3305 16.4595 20.9471 16.4595H18.068C17.6848 16.4595 17.374 16.7388 17.374 17.0838V19.675C17.374 20.0199 17.6848 20.2996 18.068 20.2996ZM18.7622 17.7084H20.2531V19.0507H18.7622V17.7084Z" fill="white"/>
<path d="M0 0.624566V9.26157C0 9.60661 0.310804 9.88614 0.693962 9.88614H10.2909C10.674 9.88614 10.9848 9.60661 10.9848 9.26157V7.62386C10.9848 7.27883 10.674 6.9993 10.2909 6.9993C9.9077 6.9993 9.59711 7.27883 9.59711 7.62386V8.6372H1.38792V1.24894H9.59711V2.75252C9.59711 3.09756 9.9077 3.37728 10.2909 3.37728C10.674 3.37728 10.9848 3.09756 10.9848 2.75252V0.624566C10.9848 0.279529 10.674 0 10.2909 0H0.693962C0.310804 0 0 0.279529 0 0.624566Z" fill="white"/>
<path d="M4.053 3.02319C3.66963 3.02319 3.35925 3.30272 3.35925 3.64756V6.23874C3.35925 6.58359 3.66963 6.86331 4.053 6.86331H6.93211C7.31528 6.86331 7.62608 6.58359 7.62608 6.23874V3.64756C7.62608 3.30272 7.31528 3.02319 6.93211 3.02319H4.053ZM6.23836 5.61437H4.74697V4.27213H6.23836V5.61437Z" fill="white"/>
<path d="M10.1511 4.56483L10.1137 4.5728C9.7407 4.65153 9.50938 4.98763 9.59686 5.32353C9.67159 5.61141 9.95669 5.80561 10.2718 5.80561C10.3241 5.80561 10.3772 5.80016 10.4308 5.7887L10.4679 5.78092C10.8411 5.70219 11.0725 5.3659 10.985 5.03039C10.8975 4.69469 10.5239 4.48611 10.1511 4.56483Z" fill="white"/>
</svg>
