<svg width="35" height="28" viewBox="0 0 35 28" fill="none" xmlns="http://www.w3.org/2000/svg">
<path d="M26.7231 27.0962H7.82288C7.1124 27.096 6.42553 26.8405 5.88704 26.3761C5.34856 25.9116 4.99418 25.269 4.88828 24.565L3.08679 12.635H32.3284L29.6192 24.7714C29.472 25.4311 29.1049 26.0207 28.5784 26.4433C28.052 26.8659 27.3976 27.0961 26.7231 27.0962Z" stroke="#464250" stroke-width="0.75" stroke-miterlimit="10"/>
<path d="M20.8965 9.68567H13.5078" stroke="#464250" stroke-width="0.75" stroke-miterlimit="10"/>
<path d="M23.7747 9.68568H33.2322C33.3958 9.68568 33.5528 9.75083 33.6685 9.86681C33.7843 9.98278 33.8493 10.1401 33.8493 10.3041V12.0204C33.8493 12.1844 33.7843 12.3417 33.6685 12.4577C33.5528 12.5736 33.3958 12.6388 33.2322 12.6388H1.61711C1.45344 12.6388 1.29648 12.5736 1.18075 12.4577C1.06502 12.3417 1 12.1844 1 12.0204V10.3022C1 10.1382 1.06502 9.98088 1.18075 9.8649C1.29648 9.74893 1.45344 9.68378 1.61711 9.68378H10.5923" stroke="#464250" stroke-width="0.75" stroke-miterlimit="10"/>
<path d="M16.4655 0.617343L16.4651 0.617134C15.8148 0.299155 15.0304 0.569661 14.713 1.22133L10.314 10.2556C9.99669 10.9073 10.2666 11.6933 10.9169 12.0113L10.9174 12.0115C11.5677 12.3295 12.3521 12.059 12.6694 11.4073L17.0684 2.37304C17.3857 1.72137 17.1158 0.935322 16.4655 0.617343Z" stroke="#464250" stroke-width="0.75" stroke-miterlimit="10"/>
<path d="M18.1942 0.542579L18.1938 0.542776C17.5349 0.842436 17.2431 1.62063 17.5422 2.28092L21.6878 11.4348C21.9868 12.095 22.7634 12.3874 23.4223 12.0877L23.4227 12.0875C24.0816 11.7879 24.3734 11.0097 24.0743 10.3494L19.9287 1.19556C19.6297 0.535268 18.8531 0.24292 18.1942 0.542579Z" stroke="#464250" stroke-width="0.75" stroke-miterlimit="10"/>
</svg>
