<svg width="27" height="23" viewBox="0 0 27 23" fill="none" xmlns="http://www.w3.org/2000/svg">
<path d="M20.936 22.0001H6.28799C5.73735 22 5.20501 21.802 4.78767 21.442C4.37034 21.0821 4.09569 20.584 4.01362 20.0384L2.61743 10.7925H25.2802L23.1806 20.1984C23.0664 20.7096 22.7819 21.1666 22.3739 21.4942C21.9659 21.8217 21.4587 22.0001 20.936 22.0001Z" stroke="#464250" stroke-width="0.75" stroke-miterlimit="10"/>
<path d="M16.4202 8.50684H10.6938" stroke="#464250" stroke-width="0.75" stroke-miterlimit="10"/>
<path d="M18.6508 8.50636H25.9805C26.1074 8.50636 26.229 8.55685 26.3187 8.64673C26.4084 8.73662 26.4588 8.85852 26.4588 8.98563V10.3158C26.4588 10.4429 26.4084 10.5648 26.3187 10.6547C26.229 10.7446 26.1074 10.7951 25.9805 10.7951H1.47827C1.35143 10.7951 1.22978 10.7446 1.14008 10.6547C1.05039 10.5648 1 10.4429 1 10.3158V8.98416C1 8.85705 1.05039 8.73514 1.14008 8.64526C1.22978 8.55538 1.35143 8.50488 1.47827 8.50488H8.43419" stroke="#464250" stroke-width="0.75" stroke-miterlimit="10"/>
<path d="M12.9859 1.47861L12.9856 1.47844C12.4816 1.23201 11.8736 1.44165 11.6277 1.9467L8.21838 8.94842C7.97245 9.45348 8.18166 10.0627 8.68566 10.3091L8.68599 10.3093C9.18998 10.5557 9.79791 10.3461 10.0438 9.84102L13.4532 2.8393C13.6991 2.33425 13.4899 1.72505 12.9859 1.47861Z" stroke="#464250" stroke-width="0.75" stroke-miterlimit="10"/>
<path d="M14.3259 1.42065L14.3255 1.4208C13.8149 1.65304 13.5888 2.25615 13.8205 2.76789L17.0334 9.86228C17.2652 10.374 17.867 10.6006 18.3777 10.3683L18.378 10.3682C18.8887 10.136 19.1148 9.53284 18.883 9.0211L15.6701 1.92672C15.4384 1.41498 14.8365 1.1884 14.3259 1.42065Z" stroke="#464250" stroke-width="0.75" stroke-miterlimit="10"/>
</svg>
