<svg width="108" height="108" viewBox="0 0 108 108" fill="none" xmlns="http://www.w3.org/2000/svg">
<g filter="url(#filter0_d)">
<circle cx="54.0423" cy="56.0423" r="39.0423" fill="white"/>
</g>
<g filter="url(#filter1_d)">
<circle cx="54" cy="56" r="42" stroke="white" stroke-width="4"/>
</g>
<path d="M36.5758 39.3682V51.8893C36.5758 52.3895 36.9813 52.7947 37.4812 52.7947H50.0025C50.5025 52.7947 50.908 52.3895 50.908 51.8893V49.5151C50.908 49.0149 50.5025 48.6096 50.0025 48.6096C49.5026 48.6096 49.0974 49.0149 49.0974 49.5151V50.9841H38.3866V40.2734H49.0974V42.4531C49.0974 42.9533 49.5026 43.3588 50.0025 43.3588C50.5025 43.3588 50.908 42.9533 50.908 42.4531V39.3682C50.908 38.868 50.5025 38.4628 50.0025 38.4628H37.4812C36.9813 38.4628 36.5758 38.868 36.5758 39.3682Z" fill="#344C98"/>
<path d="M41.8638 42.8453C41.3636 42.8453 40.9586 43.2506 40.9586 43.7505V47.5069C40.9586 48.0068 41.3636 48.4123 41.8638 48.4123H45.6202C46.1201 48.4123 46.5256 48.0068 46.5256 47.5069V43.7505C46.5256 43.2506 46.1201 42.8453 45.6202 42.8453H41.8638ZM44.7151 46.6018H42.7692V44.6559H44.7151V46.6018Z" fill="#344C98"/>
<path d="M50.0025 59.2604H37.4812C36.9813 59.2604 36.5758 59.6656 36.5758 60.1655V72.6872C36.5758 73.1871 36.9813 73.5923 37.4812 73.5923H50.0025C50.5025 73.5923 50.908 73.1871 50.908 72.6872V60.1655C50.908 59.6656 50.5025 59.2604 50.0025 59.2604ZM49.0974 71.7817H38.3866V61.071H49.0974V71.7817Z" fill="#344C98"/>
<path d="M58.3416 52.7947H70.8633C71.3629 52.7947 71.7684 52.3895 71.7684 51.8893V39.3682C71.7684 38.868 71.3629 38.4628 70.8633 38.4628H58.3416C57.8417 38.4628 57.4362 38.868 57.4362 39.3682V51.8893C57.4362 52.3895 57.8417 52.7947 58.3416 52.7947ZM59.2468 40.2734H69.9575V50.9841H59.2468V40.2734Z" fill="#344C98"/>
<path d="M71.7684 72.6872V60.1655C71.7684 59.6656 71.3629 59.2604 70.8633 59.2604H58.3416C57.8417 59.2604 57.4362 59.6656 57.4362 60.1655V72.6872C57.4362 73.1871 57.8417 73.5923 58.3416 73.5923H70.8633C71.3629 73.5923 71.7684 73.1871 71.7684 72.6872ZM69.9575 71.7817H59.2468V61.071H69.9575V71.7817Z" fill="#344C98"/>
<path d="M70.8633 56.9876C71.3629 56.9876 71.7684 56.5821 71.7684 56.0822C71.7684 55.582 71.3629 55.177 70.8633 55.177H54.9899V39.2679C54.9899 38.7679 54.5844 38.3624 54.0847 38.3624C53.5843 38.3624 53.179 38.7679 53.179 39.2679V55.177H41.1624C40.6627 55.177 40.2572 55.5823 40.2572 56.0822C40.2572 56.5824 40.6627 56.9876 41.1624 56.9876H53.179V72.6871C53.179 73.187 53.5843 73.5923 54.0847 73.5923C54.5844 73.5923 54.9899 73.187 54.9899 72.6871V56.9876H70.8633Z" fill="#344C98"/>
<path d="M41.8638 69.2773H45.6202C46.1201 69.2773 46.5256 68.8718 46.5256 68.3719V64.6155C46.5256 64.1153 46.1201 63.7103 45.6202 63.7103H41.8638C41.3636 63.7103 40.9586 64.1153 40.9586 64.6155V68.3719C40.9586 68.8718 41.3636 69.2773 41.8638 69.2773ZM42.7692 65.5209H44.7151V67.4668H42.7692V65.5209Z" fill="#344C98"/>
<path d="M66.4804 42.8453H62.724C62.2241 42.8453 61.8185 43.2506 61.8185 43.7505V47.5069C61.8185 48.0068 62.2241 48.4123 62.724 48.4123H66.4804C66.9806 48.4123 67.3858 48.0068 67.3858 47.5069V43.7505C67.3858 43.2506 66.9806 42.8453 66.4804 42.8453ZM65.575 46.6018H63.6297V44.6559H65.575V46.6018Z" fill="#344C98"/>
<path d="M62.724 69.2773H66.4804C66.9806 69.2773 67.3858 68.8718 67.3858 68.3719V64.6155C67.3858 64.1153 66.9806 63.7103 66.4804 63.7103H62.724C62.2241 63.7103 61.8185 64.1153 61.8185 64.6155V68.3719C61.8185 68.8718 62.2241 69.2773 62.724 69.2773ZM63.6297 65.5209H65.575V67.4668H63.6297V65.5209Z" fill="#344C98"/>
<path d="M37.298 55.1807L37.2493 55.192C36.7626 55.307 36.4611 55.7945 36.5758 56.2812C36.6741 56.698 37.0458 56.9792 37.4561 56.9792C37.5251 56.9792 37.5948 56.971 37.6646 56.9544L37.7131 56.9431C38.2001 56.8284 38.5016 56.3409 38.3866 55.8542C38.2722 55.3679 37.7847 55.0663 37.298 55.1807Z" fill="#344C98"/>
<path d="M49.8202 45.0806L49.7714 45.0922C49.2848 45.2063 48.983 45.6935 49.0971 46.1805C49.1946 46.5978 49.5666 46.8794 49.9777 46.8794C50.0459 46.8794 50.1152 46.8715 50.1851 46.8548L50.2336 46.8436C50.7206 46.7294 51.0224 46.2419 50.9082 45.7555C50.7941 45.2689 50.3066 44.9665 49.8202 45.0806Z" fill="#344C98"/>
<path d="M31.9052 40.4156C32.4056 40.4156 32.8106 40.0104 32.8106 39.5105V34.8106H37.3394C37.8396 34.8106 38.2452 34.4056 38.2452 33.9054C38.2452 33.4055 37.8396 33 37.3394 33H31.9052C31.4055 33 31 33.4055 31 33.9054V39.5105C31 40.0104 31.4055 40.4156 31.9052 40.4156Z" fill="#344C98"/>
<path d="M76.2654 33H70.8311C70.3309 33 69.9254 33.4055 69.9254 33.9054C69.9254 34.4056 70.3309 34.8106 70.8311 34.8106H75.36V39.5105C75.36 40.0104 75.7649 40.4156 76.2654 40.4156C76.765 40.4156 77.1705 40.0104 77.1705 39.5105V33.9054C77.1705 33.4055 76.765 33 76.2654 33Z" fill="#344C98"/>
<path d="M37.3394 77.3211H32.8106V72.6215C32.8106 72.1218 32.4056 71.7163 31.9052 71.7163C31.4055 71.7163 31 72.1218 31 72.6215V78.2265C31 78.7264 31.4055 79.132 31.9052 79.132H37.3394C37.8396 79.132 38.2452 78.7264 38.2452 78.2265C38.2452 77.7263 37.8396 77.3211 37.3394 77.3211Z" fill="#344C98"/>
<path d="M76.2654 71.7163C75.7649 71.7163 75.36 72.1218 75.36 72.6215V77.3211H70.8311C70.3309 77.3211 69.9254 77.7263 69.9254 78.2265C69.9254 78.7264 70.3309 79.132 70.8311 79.132H76.2654C76.765 79.132 77.1705 78.7264 77.1705 78.2265V72.6215C77.1705 72.1218 76.765 71.7163 76.2654 71.7163Z" fill="#344C98"/>
<defs>
<filter id="filter0_d" x="5" y="5" width="98.0845" height="98.0845" filterUnits="userSpaceOnUse" color-interpolation-filters="sRGB">
<feFlood flood-opacity="0" result="BackgroundImageFix"/>
<feColorMatrix in="SourceAlpha" type="matrix" values="0 0 0 0 0 0 0 0 0 0 0 0 0 0 0 0 0 0 127 0"/>
<feOffset dy="-2"/>
<feGaussianBlur stdDeviation="5"/>
<feColorMatrix type="matrix" values="0 0 0 0 0 0 0 0 0 0 0 0 0 0 0 0 0 0 0.05 0"/>
<feBlend mode="normal" in2="BackgroundImageFix" result="effect1_dropShadow"/>
<feBlend mode="normal" in="SourceGraphic" in2="effect1_dropShadow" result="shape"/>
</filter>
<filter id="filter1_d" x="0" y="0" width="108" height="108" filterUnits="userSpaceOnUse" color-interpolation-filters="sRGB">
<feFlood flood-opacity="0" result="BackgroundImageFix"/>
<feColorMatrix in="SourceAlpha" type="matrix" values="0 0 0 0 0 0 0 0 0 0 0 0 0 0 0 0 0 0 127 0"/>
<feOffset dy="-2"/>
<feGaussianBlur stdDeviation="5"/>
<feColorMatrix type="matrix" values="0 0 0 0 0 0 0 0 0 0 0 0 0 0 0 0 0 0 0.05 0"/>
<feBlend mode="normal" in2="BackgroundImageFix" result="effect1_dropShadow"/>
<feBlend mode="normal" in="SourceGraphic" in2="effect1_dropShadow" result="shape"/>
</filter>
</defs>
</svg>
