<svg width="28" height="29" viewBox="0 0 28 29" fill="none" xmlns="http://www.w3.org/2000/svg">
<path d="M2.22551 1H15.652C15.9771 1 16.2888 1.12898 16.5186 1.35856C16.7484 1.58813 16.8776 1.89951 16.8776 2.22418V27.9554H1V2.22418C1 1.89951 1.12912 1.58813 1.35894 1.35856C1.58877 1.12898 1.90049 1 2.22551 1V1Z" stroke="#464250" stroke-width="0.8" stroke-miterlimit="10"/>
<path d="M17.1639 5.49731H25.6761C26.4075 5.49731 27 6.04494 27 6.72088V27.9562H17.1639" stroke="#464250" stroke-width="0.8" stroke-miterlimit="10"/>
<path d="M6.0797 5.17676H4.3244V6.93015H6.0797V5.17676Z" fill="#464250"/>
<path d="M9.81627 5.17676H8.06097V6.93015H9.81627V5.17676Z" fill="#464250"/>
<path d="M6.0797 9.83276H4.3244V11.5862H6.0797V9.83276Z" fill="#464250"/>
<path d="M13.6316 5.17676H11.8763V6.93015H13.6316V5.17676Z" fill="#464250"/>
<path d="M9.81627 9.83276H8.06097V11.5862H9.81627V9.83276Z" fill="#464250"/>
<path d="M13.6316 9.83276H11.8763V11.5862H13.6316V9.83276Z" fill="#464250"/>
<path d="M6.0797 14.3186H4.3244V16.072H6.0797V14.3186Z" fill="#464250"/>
<path d="M9.81627 14.3186H8.06097V16.072H9.81627V14.3186Z" fill="#464250"/>
<path d="M12.8181 25.8179H5.72723V28.1815H12.8181V25.8179Z" fill="#464250"/>
<path d="M6.0797 18.9746H4.3244V20.728H6.0797V18.9746Z" fill="#464250"/>
<path d="M13.6316 14.3186H11.8763V16.072H13.6316V14.3186Z" fill="#464250"/>
<path d="M9.81627 18.9746H8.06097V20.728H9.81627V18.9746Z" fill="#464250"/>
<path d="M20.0402 9.83276H18.2849V11.5862H20.0402V9.83276Z" fill="#464250"/>
<path d="M23.7768 9.83276H22.0215V11.5862H23.7768V9.83276Z" fill="#464250"/>
<path d="M20.0402 14.3186H18.2849V16.072H20.0402V14.3186Z" fill="#464250"/>
<path d="M23.7768 14.3186H22.0215V16.072H23.7768V14.3186Z" fill="#464250"/>
<path d="M20.0402 18.9746H18.2849V20.728H20.0402V18.9746Z" fill="#464250"/>
<path d="M23.7768 18.9746H22.0215V20.728H23.7768V18.9746Z" fill="#464250"/>
<path d="M13.6316 18.9746H11.8763V20.728H13.6316V18.9746Z" fill="#464250"/>
</svg>
