<svg width="20" height="17" viewBox="0 0 20 17" fill="none" xmlns="http://www.w3.org/2000/svg">
<path d="M10.5308 11.1889H15.7961C15.9936 11.1889 16.1252 11.0573 16.1252 10.8598V7.89807C16.1252 7.70062 15.9936 7.569 15.7961 7.569H10.5308C10.3333 7.569 10.2017 7.70062 10.2017 7.89807V10.8598C10.2017 11.0572 10.3333 11.1889 10.5308 11.1889ZM10.8598 8.22714H15.467V10.5307H10.8598V8.22714Z" fill="#464250"/>
<path d="M1.64545 6.91077H4.27814C4.47559 6.91077 4.60721 6.77915 4.60721 6.5817C4.60721 6.38425 4.47559 6.25262 4.27814 6.25262H1.64545C1.448 6.25262 1.31638 6.38425 1.31638 6.5817C1.31638 6.77915 1.448 6.91077 1.64545 6.91077Z" fill="#464250"/>
<path d="M5.59447 6.91077H8.22716C8.42461 6.91077 8.55623 6.77915 8.55623 6.5817C8.55623 6.38425 8.42461 6.25262 8.22716 6.25262H5.59447C5.39702 6.25262 5.2654 6.38425 5.2654 6.5817C5.2654 6.77915 5.39702 6.91077 5.59447 6.91077Z" fill="#464250"/>
<path d="M1.64545 8.22714H5.92354C6.12099 8.22714 6.25261 8.09552 6.25261 7.89807C6.25261 7.70062 6.12099 7.569 5.92354 7.569H1.64545C1.448 7.569 1.31638 7.70062 1.31638 7.89807C1.31638 8.09552 1.448 8.22714 1.64545 8.22714Z" fill="#464250"/>
<path d="M8.22712 7.56894H7.23987C7.04242 7.56894 6.9108 7.70056 6.9108 7.89801C6.9108 8.09546 7.04242 8.22708 7.23987 8.22708H8.22712C8.42458 8.22708 8.5562 8.09546 8.5562 7.89801C8.5562 7.70056 8.42458 7.56894 8.22712 7.56894Z" fill="#464250"/>
<path d="M19.4489 3.48829C19.2186 3.19211 18.9224 3.02756 18.5604 2.99466L17.7706 2.89894V1.97447V1.31633C17.7706 0.592353 17.1782 1.88293e-09 16.4543 1.88293e-09H1.31633C0.592353 -3.85628e-05 0 0.592315 0 1.31633V1.97451V4.6072V11.8471C0 12.4415 0.399414 12.9468 0.943021 13.1088C0.926439 13.7745 1.43013 14.3525 2.10617 14.4139L17.3099 16.1252C17.3428 16.1252 17.4086 16.1252 17.4415 16.1252C18.0997 16.1252 18.6921 15.6315 18.7578 15.0063L19.7451 4.44265C19.778 4.11354 19.6793 3.75153 19.4489 3.48829ZM0.658183 2.30358H17.1124V3.15922V4.27809H0.658183V2.30358ZM1.31633 0.658144H16.4542C16.8162 0.658144 17.1124 0.954321 17.1124 1.31633V1.6454H0.658183V1.31633C0.658183 0.954321 0.954359 0.658144 1.31633 0.658144ZM0.658183 11.847V4.93624H17.1124V11.847C17.1124 12.209 16.8163 12.5052 16.4543 12.5052H1.34926H1.31637C0.954359 12.5052 0.658183 12.209 0.658183 11.847ZM19.0869 4.31099L18.0997 14.8746C18.0668 15.2366 17.7377 15.4999 17.3757 15.467L2.20486 13.7557C1.87578 13.7228 1.6454 13.4596 1.6125 13.1634H16.4542C17.1782 13.1634 17.7706 12.571 17.7706 11.8471V4.60716V3.52118L18.5275 3.58701C18.692 3.58701 18.8565 3.68574 18.9553 3.81736C19.054 3.94898 19.1199 4.14643 19.0869 4.31099Z" fill="#464250"/>
</svg>
