<svg width="25" height="24" viewBox="0 0 25 24" fill="none" xmlns="http://www.w3.org/2000/svg">
<path d="M19.0268 2.12604C18.2437 2.02468 17.4613 2.08502 16.6955 2.30559C15.5967 0.855973 13.8847 0 12.0559 0C10.2272 0 8.51524 0.856525 7.41644 2.30559C6.6506 2.08576 5.86822 2.02505 5.08509 2.12604C2.21069 2.49857 0.0246797 4.9585 0.000212775 7.84817C-0.0225985 10.5517 1.79089 12.8955 4.41032 13.5475C5.0323 13.702 5.4911 14.2346 5.5518 14.8727L5.90023 18.5325H5.89986L6.09909 20.6232C6.18371 21.5152 7.31287 22.1276 7.78767 22.3471C7.85555 22.3784 7.91001 22.4015 7.94606 22.4166C9.25237 22.9665 10.6542 23.2413 12.0559 23.2413C13.4574 23.2413 14.8579 22.9665 16.1621 22.4174C16.4539 22.2969 17.9144 21.6425 18.0117 20.6232L18.2109 18.5325H18.2104L18.5588 14.8727C18.6195 14.2346 19.0785 13.702 19.7005 13.5475C22.3212 12.8952 24.135 10.5517 24.1122 7.84817C24.087 4.9585 21.9012 2.49857 19.0268 2.12604ZM15.8424 21.6504C13.4357 22.6639 10.6753 22.6644 8.26689 21.6495C7.74849 21.4334 6.96408 20.9328 6.9271 20.5445L6.87559 20.0049C8.51984 20.7998 10.2585 21.2023 12.0556 21.2023C13.8527 21.2023 15.5913 20.7998 17.2356 20.0049L17.1841 20.5445C17.1478 20.9328 16.3629 21.4337 15.8424 21.6504ZM19.5007 12.7401C18.5375 12.98 17.8266 13.8056 17.7323 14.7936L17.3298 19.0183C15.6653 19.9125 13.8926 20.3702 12.0559 20.3702C10.2193 20.3702 8.44662 19.9125 6.78195 19.0183L6.37963 14.7936C6.28526 13.8052 5.57443 12.98 4.61121 12.7401C2.36614 12.1814 0.811851 10.1725 0.831351 7.85516C0.852506 5.3783 2.72707 3.27028 5.19197 2.95093C5.40151 2.92388 5.61141 2.90972 5.82094 2.90972C6.36675 2.90972 6.91054 3.00207 7.44348 3.18548L7.74444 3.28905L7.92325 3.02543C8.8541 1.65234 10.399 0.83169 12.0559 0.83169C13.7131 0.83169 15.258 1.65234 16.1888 3.0258L16.3675 3.28942L16.6686 3.18585C17.4061 2.93216 18.1635 2.85324 18.9201 2.95129C21.3844 3.27028 23.2594 5.37848 23.2807 7.85534C23.3 10.1729 21.7458 12.1817 19.5007 12.7401Z" fill="white"/>
<path d="M7.84696 14.1381C7.61921 14.1662 7.45751 14.3743 7.48621 14.6021L7.90196 17.9279C7.92809 18.1382 8.10727 18.292 8.31386 18.292C8.33133 18.292 8.34844 18.2907 8.36573 18.2887C8.59366 18.2605 8.75537 18.0525 8.72667 17.8247L8.31091 14.4988C8.28222 14.2707 8.07231 14.1118 7.84696 14.1381Z" fill="white"/>
<path d="M10.8086 14.9663C10.5792 14.9663 10.3928 15.1521 10.3928 15.3821V18.7079C10.3928 18.9377 10.5792 19.1235 10.8086 19.1235C11.0382 19.1235 11.2243 18.9377 11.2243 18.7079V15.3821C11.2243 15.1521 11.0382 14.9663 10.8086 14.9663Z" fill="white"/>
<path d="M16.265 14.1381C16.0393 14.1118 15.8294 14.2707 15.8011 14.4988L15.3853 17.8247C15.357 18.0526 15.5183 18.2605 15.7461 18.2887C15.7635 18.2907 15.781 18.292 15.7981 18.292C16.0047 18.292 16.1839 18.1382 16.21 17.9279L16.6258 14.6021C16.6545 14.3743 16.4928 14.1662 16.265 14.1381Z" fill="white"/>
<path d="M13.3032 14.9663C13.0738 14.9663 12.8875 15.1521 12.8875 15.3821V18.7079C12.8875 18.9377 13.0738 19.1235 13.3032 19.1235C13.5328 19.1235 13.719 18.9377 13.719 18.7079V15.3821C13.719 15.1521 13.5328 14.9663 13.3032 14.9663Z" fill="white"/>
<path d="M6.65625 4.15746C3.18561 4.12802 2.5101 6.95001 2.50422 6.9787C2.45473 7.20277 2.59693 7.42426 2.821 7.47338C2.85099 7.48 2.88134 7.48295 2.91041 7.48295C3.10136 7.48295 3.27373 7.35068 3.31623 7.15623C3.32119 7.13415 3.81973 4.94077 6.64742 4.9886C6.86983 4.97315 7.0652 4.80648 7.06777 4.57744C7.07017 4.34822 6.88565 4.16003 6.65625 4.15746Z" fill="white"/>
<path d="M9.72323 2.58111C9.54148 2.72147 9.50781 2.9827 9.64836 3.16427C9.78854 3.34603 10.05 3.37877 10.2315 3.23951C10.2486 3.22571 11.9867 1.91664 13.8966 3.25073C13.9689 3.30151 14.0522 3.32597 14.1345 3.32597C14.2658 3.32597 14.3946 3.26398 14.4757 3.14808C14.6071 2.96007 14.5614 2.70069 14.3731 2.56934C12.4479 1.22531 10.4898 1.98985 9.72323 2.58111Z" fill="white"/>
</svg>
