<svg width="24" height="19" viewBox="0 0 24 19" fill="none" xmlns="http://www.w3.org/2000/svg">
<path d="M12.4078 13.1842H18.6118C18.8445 13.1842 18.9996 13.0291 18.9996 12.7965V9.30669C18.9996 9.07403 18.8445 8.91895 18.6118 8.91895H12.4078C12.1751 8.91895 12.02 9.07403 12.02 9.30669V12.7965C12.02 13.0291 12.1751 13.1842 12.4078 13.1842ZM12.7955 9.69442H18.2241V12.4087H12.7955V9.69442Z" fill="#464250"/>
<path d="M1.93852 8.14267H5.04058C5.27323 8.14267 5.42832 7.98758 5.42832 7.75493C5.42832 7.52227 5.27323 7.36719 5.04058 7.36719H1.93852C1.70587 7.36719 1.55078 7.52227 1.55078 7.75493C1.55078 7.98758 1.70587 8.14267 1.93852 8.14267Z" fill="#464250"/>
<path d="M6.5916 8.14267H9.69366C9.92631 8.14267 10.0814 7.98758 10.0814 7.75493C10.0814 7.52227 9.92631 7.36719 9.69366 7.36719H6.5916C6.35894 7.36719 6.20386 7.52227 6.20386 7.75493C6.20386 7.98758 6.35894 8.14267 6.5916 8.14267Z" fill="#464250"/>
<path d="M1.93852 9.69442H6.97933C7.21198 9.69442 7.36707 9.53934 7.36707 9.30668C7.36707 9.07403 7.21198 8.91895 6.97933 8.91895H1.93852C1.70587 8.91895 1.55078 9.07403 1.55078 9.30668C1.55078 9.53934 1.70587 9.69442 1.93852 9.69442Z" fill="#464250"/>
<path d="M9.69358 8.91895H8.53032C8.29767 8.91895 8.14258 9.07403 8.14258 9.30669C8.14258 9.53934 8.29767 9.69443 8.53032 9.69443H9.69358C9.92624 9.69443 10.0813 9.53934 10.0813 9.30669C10.0813 9.07403 9.92624 8.91895 9.69358 8.91895Z" fill="#464250"/>
<path d="M22.9163 4.11019C22.6449 3.76121 22.296 3.56732 21.8694 3.52856L20.9388 3.41578V2.32649V1.55101C20.9388 0.69796 20.2408 2.21863e-09 19.3878 2.21863e-09H1.55101C0.69796 -4.54379e-05 0 0.697914 0 1.55101V2.32653V5.42859V13.9592C0 14.6596 0.470623 15.2551 1.11115 15.4459C1.09161 16.2303 1.6851 16.9113 2.48166 16.9837L20.396 19C20.4347 19 20.5123 19 20.5511 19C21.3266 19 22.0245 18.4184 22.1021 17.6816L23.2653 5.2347C23.3041 4.84691 23.1878 4.42037 22.9163 4.11019ZM0.775526 2.71427H20.1633V3.72245V5.04081H0.775526V2.71427ZM1.55101 0.775481H19.3877C19.8143 0.775481 20.1633 1.12446 20.1633 1.55101V1.93875H0.775526V1.55101C0.775526 1.12446 1.12451 0.775481 1.55101 0.775481ZM0.775526 13.9592V5.81629H20.1633V13.9592C20.1633 14.3857 19.8143 14.7347 19.3878 14.7347H1.58981H1.55105C1.12451 14.7347 0.775526 14.3857 0.775526 13.9592ZM22.4898 5.07957L21.3265 17.5265C21.2878 17.9531 20.9 18.2632 20.4735 18.2245L2.59795 16.2082C2.21021 16.1694 1.93875 15.8592 1.89999 15.5102H19.3877C20.2408 15.5102 20.9387 14.8122 20.9387 13.9592V5.42855V4.14895L21.8306 4.22652C22.0245 4.22652 22.2183 4.34285 22.3347 4.49793C22.451 4.65302 22.5286 4.88567 22.4898 5.07957Z" fill="#464250"/>
</svg>
