<svg width="12" height="16" viewBox="0 0 12 16" fill="none" xmlns="http://www.w3.org/2000/svg">
<path d="M10.7103 12.4973L8.46516 11.2478C8.23209 11.1305 8.08556 10.8913 8.08697 10.6304L8.08568 10.0046C8.56781 9.37307 8.9206 8.65261 9.1238 7.88453C9.12823 7.86536 9.13043 7.84576 9.13043 7.82608V7.30433H9.91307C10.3451 7.30387 10.6952 6.95374 10.6957 6.52172V4.9565C10.6947 4.62594 10.4857 4.33179 10.1739 4.22195V4.1739C10.1739 1.86872 8.30521 0 6.00004 0C3.69486 0 1.82611 1.86872 1.82611 4.1739V4.22195C1.51432 4.33176 1.3054 4.62591 1.30436 4.9565V6.52172C1.30537 6.85228 1.51432 7.14643 1.82611 7.25624V7.82608C1.82678 8.40209 2.29356 8.8689 2.86957 8.86954H3.22838C3.41847 9.2691 3.64781 9.64879 3.91304 10.0029V10.6043C3.91402 10.8571 3.77578 11.0899 3.55332 11.2101L1.22689 12.4802C0.469811 12.8915 -0.00109862 13.6844 1.92482e-06 14.546V15.3913C1.92482e-06 15.4605 0.0274849 15.5268 0.0763979 15.5758C0.125311 15.6247 0.19168 15.6522 0.260861 15.6522H11.7391C11.8832 15.6522 12 15.5354 12 15.3913V14.5983C12.004 13.7098 11.5043 12.8959 10.7103 12.4973ZM10.1739 4.9565V6.52172C10.1737 6.66571 10.0571 6.7824 9.91307 6.78258H9.13047V4.69565H9.91307C10.0571 4.69583 10.1737 4.81252 10.1739 4.9565ZM2.087 6.78261C1.94301 6.78243 1.82632 6.66574 1.82614 6.52175V4.95654C1.82632 4.81255 1.94301 4.69586 2.087 4.69568H2.8696V6.78264H2.087V6.78261ZM2.8696 8.34783C2.58157 8.34755 2.34816 8.11411 2.34786 7.82608V7.30433H2.8696V7.82608C2.86957 7.84576 2.87181 7.86536 2.87624 7.88453C2.91353 8.04142 2.95954 8.19607 3.01411 8.34779H2.8696V8.34783ZM2.86832 4.1739H2.34786C2.35012 2.1578 3.98393 0.524011 6.00004 0.521749C8.01614 0.524011 9.64995 2.15783 9.65222 4.17393H9.13175C9.17874 3.56135 8.98232 2.95496 8.58506 2.48631C8.04943 1.87514 7.17966 1.56522 6.00004 1.56522C4.82041 1.56522 3.95064 1.87514 3.41505 2.48628C3.01775 2.95492 2.82133 3.56132 2.86832 4.1739ZM0.521781 15.1304V14.546C0.520834 13.8756 0.887253 13.2585 1.47635 12.9385L3.80201 11.6688C4.19291 11.4576 4.43607 11.0486 4.43482 10.6043V10.0029C4.43534 9.88923 4.39817 9.77856 4.32911 9.68819C4.13541 9.42923 3.96226 9.15553 3.81124 8.86954H5.00466C5.11447 9.18133 5.40862 9.39025 5.73918 9.39129H6.52178C6.95399 9.39129 7.30439 9.04089 7.30439 8.60868C7.30439 8.17648 6.95399 7.82608 6.52178 7.82608H5.73918C5.40862 7.82709 5.11447 8.03603 5.00463 8.34783H3.57025C3.49752 8.16834 3.43773 7.98391 3.39135 7.7959V4.1739C3.39135 4.16249 3.39059 4.15106 3.38906 4.13975C3.35082 3.6652 3.5011 3.19469 3.80736 2.8302C4.23953 2.337 4.97733 2.08696 6.00004 2.08696C7.01892 2.08696 7.75516 2.33523 8.18813 2.82488C8.49503 3.19136 8.64675 3.66312 8.61101 4.13981C8.60948 4.15112 8.60872 4.16253 8.60872 4.17396V7.79593C8.42086 8.4812 8.10244 9.12374 7.67096 9.68825C7.6019 9.77859 7.56473 9.88929 7.56525 10.003V10.6305C7.56222 11.085 7.81602 11.5023 8.22099 11.7087L10.4664 12.9583C11.0883 13.2679 11.4805 13.9036 11.4783 14.5983V15.1305H0.521781V15.1304ZM5.47829 8.60868C5.47847 8.4647 5.59516 8.34801 5.73915 8.34783H6.52175C6.66583 8.34783 6.78261 8.46464 6.78261 8.60868C6.78261 8.75273 6.66583 8.86954 6.52175 8.86954H5.73915C5.59516 8.86936 5.47847 8.75267 5.47829 8.60868Z" fill="#464250"/>
</svg>
