<svg width="16" height="16" viewBox="0 0 16 16" fill="none" xmlns="http://www.w3.org/2000/svg">
<path d="M11.431 4.03002L6.58238 6.45431C6.57495 6.45802 6.57067 6.46574 6.56353 6.47031C6.5441 6.48202 6.52924 6.49688 6.51295 6.51288C6.49695 6.52888 6.4821 6.54402 6.47038 6.56345C6.4661 6.57059 6.45838 6.57488 6.45438 6.58231L4.0301 11.4309C3.97524 11.5409 3.99667 11.6737 4.08381 11.7606C4.13867 11.8155 4.21181 11.8443 4.28581 11.8443C4.32924 11.8443 4.37295 11.8346 4.41353 11.8143L9.2621 9.39002C9.26953 9.38631 9.27381 9.37859 9.28095 9.37402C9.30038 9.36231 9.31524 9.34745 9.33153 9.33145C9.34753 9.31545 9.36238 9.30031 9.3741 9.28088C9.37838 9.27374 9.3861 9.26945 9.3901 9.26202L11.8144 4.41345C11.8692 4.30345 11.8478 4.17059 11.7607 4.08374C11.6735 3.99688 11.5412 3.97517 11.431 4.03002ZM4.92495 10.9195L6.78867 7.19231L8.65181 9.05545L4.92495 10.9195ZM9.0561 8.65174L7.19295 6.78859L10.9201 4.92488L9.0561 8.65174Z" fill="#464250"/>
<path d="M8 0C3.58892 0 0 3.58862 0 8C0 12.4114 3.58892 16 8 16C12.4111 16 16 12.4114 16 8C16 3.58862 12.4111 0 8 0ZM8 15.3846C3.92831 15.3846 0.615385 12.0717 0.615385 8C0.615385 3.92831 3.92831 0.615385 8 0.615385C12.0717 0.615385 15.3846 3.92831 15.3846 8C15.3846 12.0717 12.0717 15.3846 8 15.3846Z" fill="#464250"/>
</svg>
