<svg width="21" height="21" viewBox="0 0 21 21" fill="none" xmlns="http://www.w3.org/2000/svg">
<path d="M19.9522 1.25561L18.9907 0.293831C18.5981 -0.0978313 17.9595 -0.0981687 17.5668 0.294169L16.5122 1.34872H0V20.2403H18.8916V3.74053L18.9945 3.63764L19.9522 2.6799C20.3449 2.28723 20.3449 1.64829 19.9522 1.25561ZM6.76284 12.3976L7.84911 13.4839L6.35533 13.8914L6.76284 12.3976ZM17.5631 4.11465L16.132 2.68361L16.6091 2.2066L18.0404 3.63764L17.5631 4.11465ZM17.0861 4.59166L8.49851 13.1792L7.06747 11.7482L15.655 3.16063L17.0861 4.59166ZM18.2169 4.41523V19.5656H0.674699V2.02342H15.8375L6.35195 11.5097L6.28853 11.5731L5.57301 14.1974L5.15942 14.6109C5.02752 14.7428 5.02752 14.9561 5.15942 15.088C5.22521 15.1537 5.31157 15.1868 5.39793 15.1868C5.48429 15.1868 5.57065 15.1537 5.63643 15.088L6.05002 14.6744L8.67427 13.9582L17.5638 5.06901L17.7146 4.91822L18.2169 4.41523ZM19.4752 2.20289L18.5174 3.16063L17.0861 1.72925L18.0438 0.771518C18.1734 0.641976 18.3842 0.642313 18.5137 0.771518L19.4752 1.73296C19.6047 1.86217 19.6047 2.07335 19.4752 2.20289Z" fill="#464250"/>
</svg>
