<svg width="20" height="20" viewBox="0 0 20 20" fill="none" xmlns="http://www.w3.org/2000/svg">
<path d="M2.5 5C3.75678 5 4.79714 4.06642 4.97142 2.85714H18.9286C19.1261 2.85714 19.2857 2.6975 19.2857 2.5C19.2857 2.3025 19.1261 2.14286 18.9286 2.14286H4.97142C4.79714 0.933571 3.75678 0 2.5 0C1.12143 0 0 1.12178 0 2.5C0 3.87821 1.12143 5 2.5 5ZM2.5 0.714285C3.48464 0.714285 4.28571 1.51536 4.28571 2.5C4.28571 3.48464 3.48464 4.28571 2.5 4.28571C1.51536 4.28571 0.714285 3.48464 0.714285 2.5C0.714285 1.51536 1.51536 0.714285 2.5 0.714285Z" fill="#464250"/>
<path d="M16.7857 15C15.5289 15 14.4886 15.9336 14.3143 17.1429H0.357143C0.16 17.1429 0 17.3025 0 17.5C0 17.6975 0.16 17.8571 0.357143 17.8571H14.3143C14.4886 19.0664 15.5289 20 16.7857 20C18.1639 20 19.2857 18.8782 19.2857 17.5C19.2857 16.1218 18.1639 15 16.7857 15ZM16.7857 19.2857C15.8011 19.2857 15 18.4846 15 17.5C15 16.5154 15.8011 15.7143 16.7857 15.7143C17.7703 15.7143 18.5714 16.5154 18.5714 17.5C18.5714 18.4846 17.7703 19.2857 16.7857 19.2857Z" fill="#464250"/>
<path d="M18.9286 9.64282H12.2743C12.1328 8.3564 11.0403 7.35211 9.71678 7.35211C8.39321 7.35211 7.30071 8.35675 7.15928 9.64282H0.357143C0.16 9.64282 0 9.80247 0 9.99997C0 10.1975 0.16 10.3571 0.357143 10.3571H7.18178C7.38785 11.5714 8.44464 12.5 9.71678 12.5C10.9889 12.5 12.0453 11.5714 12.2514 10.3571H18.9286C19.1261 10.3571 19.2857 10.1975 19.2857 9.99997C19.2857 9.80247 19.1261 9.64282 18.9286 9.64282ZM9.71678 11.7857C8.69142 11.7857 7.85714 10.9514 7.85714 9.92604C7.85714 8.90068 8.69142 8.0664 9.71678 8.0664C10.7421 8.0664 11.5764 8.90068 11.5764 9.92604C11.5764 10.9514 10.7421 11.7857 9.71678 11.7857Z" fill="#464250"/>
</svg>
