<svg width="25" height="25" viewBox="0 0 25 25" fill="none" xmlns="http://www.w3.org/2000/svg">
<path d="M18.5836 10.0314L20.0524 9.93812C20.0549 9.93793 20.0576 9.93774 20.0602 9.93755C21.107 9.84907 22.0466 9.29963 22.6382 8.42971L23.7994 6.72273C24.8101 5.23667 25.2017 3.44179 24.9017 1.66888C24.8427 1.32068 24.665 0.999806 24.4014 0.765699C24.1376 0.5314 23.7985 0.393038 23.4464 0.37622C21.6531 0.290222 19.9222 0.895079 18.571 2.07861L17.0188 3.43835C16.2278 4.13111 15.796 5.13156 15.8337 6.18361C15.8339 6.1861 15.8339 6.18877 15.8341 6.19145L15.9179 7.66356C15.9505 8.23745 15.7405 8.80371 15.3428 9.21612L3.21622 21.6982C2.89159 22.0374 2.72393 22.5027 2.74434 23.0086C2.76685 23.5655 3.02186 24.1124 3.4266 24.4719C3.79224 24.7966 4.29483 24.9816 4.79723 24.9816C4.85101 24.9816 4.9048 24.9795 4.9584 24.9751C5.46213 24.9348 5.9033 24.7123 6.20199 24.3465L17.1134 10.7905C17.4752 10.3444 18.0112 10.0677 18.5836 10.0314ZM16.5309 10.318L5.62044 23.873C5.45374 24.0771 5.19739 24.2028 4.8987 24.2267C4.54336 24.2552 4.17905 24.1367 3.92385 23.91C3.66865 23.6832 3.50766 23.335 3.49336 22.9782C3.48115 22.6783 3.5748 22.4083 3.75524 22.2199L15.8809 9.7388C16.4245 9.17522 16.7106 8.40333 16.6663 7.62094L16.5826 6.15265C16.5542 5.32917 16.8927 4.5462 17.512 4.00364L19.0642 2.64391C20.2689 1.5888 21.8127 1.05007 23.4107 1.12613C23.5927 1.13492 23.7678 1.20639 23.9041 1.32756C24.0405 1.44853 24.1323 1.61441 24.1628 1.79424C24.4302 3.3749 24.0811 4.97485 23.1801 6.29962L22.0189 8.00679C21.5556 8.68789 20.8203 9.11846 20.0009 9.18898L18.5361 9.28186C17.7556 9.33155 17.0251 9.70879 16.5309 10.318Z" fill="#344C98"/>
<path d="M24.3077 21.6033L16.1768 14.1832C16.0239 14.0435 15.787 14.0545 15.6473 14.2078C15.5081 14.3611 15.5192 14.5986 15.6721 14.7383L23.8009 22.1568C23.9943 22.3358 24.104 22.5997 24.1099 22.8998C24.117 23.2568 23.9771 23.614 23.7359 23.8557C23.4948 24.0973 23.1389 24.2377 22.7818 24.2305C22.4824 24.2245 22.2189 24.1147 22.0421 23.923L14.7969 15.953C14.6574 15.7995 14.4203 15.7887 14.2674 15.9282C14.1144 16.0679 14.1033 16.3054 14.2428 16.4587L21.4898 24.4306C21.8083 24.7757 22.2619 24.9714 22.7671 24.9813C22.7803 24.9815 22.7933 24.9817 22.8064 24.9817C23.3494 24.9817 23.8925 24.761 24.2657 24.3868C24.6483 24.0034 24.8702 23.4422 24.8591 22.8851C24.8492 22.3788 24.6541 21.9244 24.3077 21.6033Z" fill="#344C98"/>
<path d="M4.52217 9.96032C5.14244 10.5329 5.9483 10.8593 6.79135 10.8795C6.79402 10.8797 6.79669 10.8797 6.79917 10.8797L8.27088 10.8843C8.84461 10.886 9.39603 11.1301 9.78303 11.5526L10.4313 12.2657C10.5053 12.3471 10.6066 12.3883 10.7085 12.3883C10.7985 12.3883 10.8889 12.3561 10.9606 12.2905C11.1138 12.1508 11.1249 11.9133 10.9854 11.76L10.3362 11.046C9.80744 10.4685 9.05557 10.1359 8.27336 10.1333L6.80565 10.1287C6.15353 10.1121 5.53001 9.8619 5.04688 9.42369L0.781849 4.34365C0.738361 4.29167 0.741603 4.21637 0.789478 4.16841C0.822284 4.13534 0.860813 4.13057 0.88084 4.13057C0.900867 4.13057 0.939396 4.13534 0.972393 4.16841L4.85462 8.05841C5.23838 8.44292 5.86285 8.44292 6.24661 8.05822L6.70285 7.60128V7.60109L7.5129 6.78945C7.5129 6.78945 7.51309 6.78945 7.51309 6.78926L7.51328 6.78907L7.96933 6.33213C8.35309 5.94762 8.35309 5.32194 7.96933 4.93743L4.0871 1.04761C4.03675 0.997158 4.03675 0.914791 4.0871 0.864338C4.13498 0.81637 4.21013 0.813121 4.26201 0.856694L9.33213 5.13025C9.76968 5.61414 10.0194 6.23906 10.0359 6.89227L10.0403 8.36304C10.043 9.14658 10.3751 9.89993 10.9522 10.4308L11.6469 11.0647C11.8001 11.2044 12.037 11.1933 12.1764 11.0401C12.3156 10.8866 12.3046 10.6493 12.1516 10.5096L11.4581 9.87661C11.0352 9.4879 10.7918 8.93522 10.7899 8.36055L10.7853 6.88596C10.7853 6.88329 10.7853 6.88061 10.7852 6.87794C10.7649 6.03324 10.4392 5.22581 9.86772 4.60432C9.85704 4.59267 9.84559 4.58158 9.83338 4.57126L4.74438 0.282032C4.39266 -0.0145679 3.88225 0.00760059 3.55724 0.333249C3.21449 0.67667 3.21449 1.23528 3.55724 1.57851L7.43947 5.46852C7.53102 5.56025 7.53102 5.7095 7.43947 5.80123L7.24816 5.99272L2.92133 1.65763C2.77503 1.51086 2.53776 1.51086 2.39146 1.65763C2.24517 1.80421 2.24517 2.04195 2.39146 2.18853L6.7183 6.52381L6.43791 6.80455L2.11108 2.46946C1.96479 2.32288 1.72751 2.32288 1.58122 2.46946C1.43474 2.61604 1.43474 2.85377 1.58122 3.00035L5.90786 7.33564L5.71674 7.52732C5.62519 7.61905 5.47623 7.61905 5.38467 7.52732L1.50226 3.63751C1.33632 3.47124 1.11564 3.37951 0.88084 3.37951C0.646045 3.37951 0.425364 3.47124 0.259424 3.63751C-0.0655885 3.96316 -0.0875231 4.47456 0.208307 4.82716L4.48936 9.92592C4.49947 9.93815 4.51053 9.94962 4.52217 9.96032Z" fill="#344C98"/>
</svg>
