<svg width="27" height="27" viewBox="0 0 27 27" fill="none" xmlns="http://www.w3.org/2000/svg">
<path d="M8.89773 11.0455C10.0839 11.0455 11.0455 10.0839 11.0455 8.89773C11.0455 7.71157 10.0839 6.75 8.89773 6.75C7.71157 6.75 6.75 7.71157 6.75 8.89773C6.75 10.0839 7.71157 11.0455 8.89773 11.0455Z" fill="#464250"/>
<path d="M18.7158 11.0455C19.902 11.0455 20.8636 10.0839 20.8636 8.89773C20.8636 7.71157 19.902 6.75 18.7158 6.75C17.5297 6.75 16.5681 7.71157 16.5681 8.89773C16.5681 10.0839 17.5297 11.0455 18.7158 11.0455Z" fill="#464250"/>
<path d="M13.5 0C6.05598 0 0 6.05598 0 13.5C0 20.944 6.05598 27 13.5 27C20.944 27 27 20.944 27 13.5C27 6.05598 20.944 0 13.5 0ZM13.5 25.7727C6.73282 25.7727 1.22727 20.2672 1.22727 13.5C1.22727 6.73282 6.73282 1.22727 13.5 1.22727C20.2672 1.22727 25.7727 6.73282 25.7727 13.5C25.7727 20.2672 20.2672 25.7727 13.5 25.7727Z" fill="#464250"/>
<path d="M20.2499 14.7272H6.74987C6.41114 14.7272 6.13623 15.0021 6.13623 15.3409C6.13623 19.4013 9.43943 22.7045 13.4999 22.7045C17.5603 22.7045 20.8635 19.4013 20.8635 15.3409C20.8635 15.0021 20.5886 14.7272 20.2499 14.7272ZM13.4999 21.4772C10.3237 21.4772 7.70284 19.0509 7.39419 15.9545H19.6055C19.2969 19.0509 16.676 21.4772 13.4999 21.4772Z" fill="#464250"/>
</svg>
