<svg width="27" height="27" viewBox="0 0 27 27" fill="none" xmlns="http://www.w3.org/2000/svg">
<path d="M13.5 0C6.05598 0 0 6.05598 0 13.5C0 20.944 6.05598 27 13.5 27C20.944 27 27 20.944 27 13.5C27 6.05598 20.944 0 13.5 0ZM13.5 25.7727C6.73282 25.7727 1.22727 20.2672 1.22727 13.5C1.22727 6.73282 6.73282 1.22727 13.5 1.22727C20.2672 1.22727 25.7727 6.73282 25.7727 13.5C25.7727 20.2672 20.2672 25.7727 13.5 25.7727Z" fill="#464250"/>
<path d="M20.2499 14.7272C19.9111 14.7272 19.6362 15.0015 19.6362 15.3409C19.6362 18.7245 16.8835 21.4772 13.4999 21.4772C10.1163 21.4772 7.3635 18.7245 7.3635 15.3409C7.3635 15.0015 7.08859 14.7272 6.74987 14.7272C6.41114 14.7272 6.13623 15.0015 6.13623 15.3409C6.13623 19.4013 9.43943 22.7045 13.4999 22.7045C17.5603 22.7045 20.8635 19.4013 20.8635 15.3409C20.8635 15.0015 20.5886 14.7272 20.2499 14.7272Z" fill="#464250"/>
<path d="M8.31173 12.6631C8.45409 12.6631 8.59707 12.6134 8.71243 12.5146L11.078 10.4767C11.637 9.98764 12.0205 9.36664 12.1881 8.68121C12.2991 8.22773 12.2764 7.92398 12.2574 7.7988C12.1273 6.49912 11.121 5.52283 9.9078 5.52283C9.30766 5.52283 8.74434 5.75049 8.31848 6.14014C7.90121 5.74742 7.352 5.52283 6.75555 5.52283C5.54239 5.52283 4.53603 6.49912 4.40593 7.79819C4.38691 7.92337 4.36421 8.22712 4.47528 8.6806C4.6428 9.36603 5.02632 9.98703 5.58473 10.4749L7.90734 12.5103C8.02271 12.6122 8.16753 12.6631 8.31173 12.6631Z" fill="#464250"/>
<path d="M22.5941 7.79758C22.4634 6.49912 21.4576 5.52283 20.2445 5.52283C19.6443 5.52283 19.081 5.75049 18.6551 6.14015C18.2379 5.74742 17.6893 5.52283 17.0922 5.52283C15.8791 5.52283 14.8727 6.49974 14.7426 7.79819C14.7236 7.92337 14.7009 8.22712 14.8119 8.6806C14.9795 9.36603 15.363 9.98703 15.9214 10.4749L18.244 12.5103C18.3594 12.6116 18.5042 12.6625 18.6484 12.6625C18.7908 12.6625 18.9337 12.6128 19.0491 12.514L21.4147 10.4761C21.9737 9.98703 22.3572 9.36603 22.5247 8.68121C22.6358 8.22712 22.6131 7.92276 22.5941 7.79758Z" fill="#464250"/>
</svg>
