<svg width="27" height="27" viewBox="0 0 27 27" fill="none" xmlns="http://www.w3.org/2000/svg">
<path d="M26.6832 12.3201L13.4152 0L0.147661 12.3201C-0.0392318 12.4941 -0.0503343 12.7869 0.123606 12.9742C0.29662 13.1611 0.590375 13.1718 0.777268 12.9983L2.31266 11.5726V27H9.71435H17.116H24.5177V11.5721L26.0531 12.9978C26.142 13.0806 26.2553 13.1214 26.3682 13.1214C26.4926 13.1214 26.6161 13.0719 26.7068 12.9738C26.8812 12.7869 26.8701 12.4941 26.6832 12.3201ZM10.6396 26.0748V18.6731C10.6396 17.1423 11.8844 15.8975 13.4152 15.8975C14.946 15.8975 16.1908 17.1423 16.1908 18.6731V26.0748H10.6396ZM23.5925 26.0748H17.116V18.6731C17.116 16.6325 15.4558 14.9722 13.4152 14.9722C11.3746 14.9722 9.71435 16.6325 9.71435 18.6731V26.0748H3.23787V10.713L13.4152 1.26245L23.5925 10.713V26.0748Z" fill="#464250"/>
</svg>
