<svg width="16" height="16" viewBox="0 0 16 16" fill="none" xmlns="http://www.w3.org/2000/svg">
<path d="M16 3.20087H11.7168C11.9455 2.86199 12.0702 2.4594 12.0702 2.03528C12.0702 1.48986 11.8664 0.978479 11.4967 0.595378C10.7307 -0.198459 9.48407 -0.198459 8.71804 0.595378L7.92393 1.4183L7.13011 0.595378C6.36407 -0.198459 5.11747 -0.198459 4.35144 0.595378C3.98175 0.978479 3.77796 1.48986 3.77796 2.03528C3.77796 2.4594 3.9026 2.86199 4.13137 3.20087H0V7.27332H1.40351V16H14.8772V7.27332H16V3.20087ZM9.11495 1.0067C9.66232 0.439752 10.5527 0.439752 11.0998 1.0067C11.3634 1.28013 11.5088 1.6452 11.5088 2.03528C11.5088 2.42507 11.3634 2.79043 11.0998 3.06357L10.9673 3.20087H6.99761L8.32084 1.82962L9.11495 1.0067ZM4.74835 3.06357C4.48477 2.79043 4.33937 2.42507 4.33937 2.03528C4.33937 1.6452 4.48477 1.28013 4.74835 1.0067C5.29572 0.439752 6.18611 0.439752 6.73319 1.0067L7.52702 1.82962L6.53474 2.85791C6.47663 2.91813 6.4233 2.9862 6.37165 3.05834C6.35649 3.07957 6.34161 3.10255 6.32702 3.12495C6.31018 3.15055 6.29249 3.17353 6.27649 3.20058H4.88084L4.74835 3.06357ZM0.561404 6.69154V3.78265H4.64814H5.9767H6.60968H7.85965V6.69154H1.40351H0.561404ZM7.85965 7.27332V10.764H1.96491V7.27332H7.85965ZM1.96491 11.3458H7.85965V15.4182H1.96491V11.3458ZM8.42105 15.4182V11.3458H14.3158V15.4182H8.42105ZM14.3158 10.764H8.42105V7.27332H14.3158V10.764ZM15.4386 6.69154H14.8772H8.42105V3.78265H11.1997H15.4386V6.69154Z" fill="#464250"/>
</svg>
