<svg width="24" height="26" viewBox="0 0 24 26" fill="none" xmlns="http://www.w3.org/2000/svg">
<path d="M23 14.3264C23 15.7709 22.7155 17.2013 22.1627 18.5359C21.6099 19.8705 20.7996 21.0831 19.7782 22.1045C18.7567 23.126 17.5441 23.9362 16.2095 24.489C14.8749 25.0418 13.4445 25.3264 12 25.3264C10.5555 25.3264 9.12506 25.0418 7.79048 24.489C6.4559 23.9362 5.24327 23.126 4.22182 22.1045C3.20038 21.0831 2.39013 19.8705 1.83732 18.5359C1.28452 17.2013 1 15.7709 1 14.3264C1 11.4117 2.35366 9.14771 3.9878 6.79283L5.80854 4.15564C5.82169 4.13676 5.84051 4.12256 5.86226 4.11508C5.88402 4.1076 5.90759 4.10722 5.92957 4.11401C5.95156 4.12079 5.97082 4.13439 5.98457 4.15283C5.99832 4.17127 6.00586 4.19361 6.0061 4.21661C6.0061 4.21966 6.0061 4.22271 6.0061 4.22576C5.98379 4.51387 5.98992 4.80348 6.02439 5.09039C6.08935 5.63634 6.25474 6.16557 6.51219 6.65137L6.85914 7.30564C6.88065 7.34621 6.91248 7.3804 6.95143 7.40474C6.99037 7.42908 7.03505 7.44271 7.08095 7.44426C7.12685 7.4458 7.17234 7.43521 7.21284 7.41355C7.25333 7.39188 7.2874 7.35992 7.31158 7.32088L8.44512 4.59649C8.56361 4.30958 8.70833 4.03423 8.87744 3.77393C9.15169 3.35334 9.48896 2.9774 9.87744 2.6593C10.3206 2.30043 10.7893 1.97436 11.2799 1.68369C11.7079 1.42621 12.1545 1.20079 12.6159 1.0093C12.6385 1.00046 12.6631 0.997859 12.6871 1.00177C12.7111 1.00568 12.7336 1.01595 12.7523 1.03152C12.771 1.04708 12.7852 1.06738 12.7933 1.09028C12.8015 1.11318 12.8034 1.13786 12.7988 1.16174L12.6006 2.15625C12.3696 3.31818 12.5587 4.52439 13.1341 5.5599L13.5128 6.24161C13.5367 6.28779 13.5747 6.32512 13.6213 6.34816C13.6679 6.3712 13.7207 6.37874 13.7719 6.36968C13.8231 6.36063 13.8701 6.33545 13.9059 6.29782C13.9418 6.26019 13.9647 6.21208 13.9713 6.16051L14.503 4.4532C14.6602 3.9544 14.7354 3.4334 14.7256 2.91052C14.7201 2.65442 14.7439 2.41661 14.8579 2.38247C15.0047 2.34085 15.1599 2.33956 15.3074 2.37873C15.4548 2.41789 15.589 2.49607 15.6957 2.60503L18.7018 5.6032L20.703 7.60015C22.4107 9.83928 23.0028 11.8914 23 14.3264Z" stroke="#F2F3F8" stroke-width="0.75" stroke-miterlimit="10" stroke-linecap="round"/>
<path d="M17.5139 11.127H6.4862C5.96349 11.127 5.53975 11.5587 5.53975 12.0912V18.5437C5.53975 19.0762 5.96349 19.5079 6.4862 19.5079H17.5139C18.0366 19.5079 18.4604 19.0762 18.4604 18.5437V12.0912C18.4604 11.5587 18.0366 11.127 17.5139 11.127Z" stroke="#F2F3F8" stroke-width="0.75" stroke-miterlimit="10" stroke-linecap="round"/>
<path d="M8.52565 17.4033C8.47565 17.4533 8.41399 17.4783 8.34065 17.4783C8.26732 17.4783 8.20565 17.4533 8.15565 17.4033C8.10565 17.3533 8.08065 17.2916 8.08065 17.2183V13.9883C8.08065 13.9149 8.10565 13.8533 8.15565 13.8033C8.20565 13.7533 8.26732 13.7283 8.34065 13.7283C8.41399 13.7283 8.47565 13.7533 8.52565 13.8033C8.57899 13.8533 8.60565 13.9149 8.60565 13.9883V16.0233C8.60565 16.0266 8.60732 16.0283 8.61065 16.0283L8.62065 16.0233L9.51065 15.0833C9.64065 14.9466 9.80065 14.8783 9.99065 14.8783H10.0457C10.099 14.8783 10.1357 14.9033 10.1557 14.9533C10.179 15.0033 10.1723 15.0466 10.1357 15.0833L9.16065 16.0983C9.14399 16.1149 9.14399 16.1349 9.16065 16.1583L10.1407 17.2683C10.1773 17.3083 10.184 17.3533 10.1607 17.4033C10.1407 17.4533 10.1023 17.4783 10.0457 17.4783H9.99065C9.80399 17.4783 9.64732 17.4066 9.52065 17.2633L8.62065 16.2333C8.61732 16.2299 8.61399 16.2283 8.61065 16.2283C8.60732 16.2283 8.60565 16.2299 8.60565 16.2333V17.2183C8.60565 17.2916 8.57899 17.3533 8.52565 17.4033ZM11.6209 17.5283C11.2209 17.5283 10.9126 17.4149 10.6959 17.1883C10.4792 16.9583 10.3709 16.6216 10.3709 16.1783C10.3709 15.7416 10.4759 15.4083 10.6859 15.1783C10.8959 14.9449 11.1909 14.8283 11.5709 14.8283C11.7476 14.8283 11.9159 14.8399 12.0759 14.8633C12.1392 14.8733 12.1909 14.9033 12.2309 14.9533C12.2742 15.0033 12.2959 15.0616 12.2959 15.1283C12.2959 15.1849 12.2726 15.2299 12.2259 15.2633C12.1826 15.2966 12.1326 15.3066 12.0759 15.2933C11.9126 15.2566 11.7576 15.2383 11.6109 15.2383C11.3809 15.2383 11.2076 15.3133 11.0909 15.4633C10.9776 15.6133 10.9209 15.8516 10.9209 16.1783C10.9209 16.5116 10.9809 16.7516 11.1009 16.8983C11.2242 17.0449 11.4109 17.1183 11.6609 17.1183C11.8176 17.1183 11.9676 17.0966 12.1109 17.0533C12.1642 17.0366 12.2126 17.0449 12.2559 17.0783C12.2992 17.1083 12.3209 17.1499 12.3209 17.2033C12.3209 17.2699 12.2992 17.3299 12.2559 17.3833C12.2126 17.4366 12.1592 17.4699 12.0959 17.4833C11.9359 17.5133 11.7776 17.5283 11.6209 17.5283ZM14.2416 16.1683C13.9683 16.1683 13.7616 16.2149 13.6216 16.3083C13.4849 16.3983 13.4166 16.5216 13.4166 16.6783C13.4166 16.8016 13.4533 16.9033 13.5266 16.9833C13.5999 17.0633 13.6883 17.1033 13.7916 17.1033C14.0116 17.1033 14.1866 17.0349 14.3166 16.8983C14.4499 16.7583 14.5166 16.5683 14.5166 16.3283V16.2083C14.5166 16.1816 14.5016 16.1683 14.4716 16.1683H14.2416ZM13.6666 17.5283C13.4399 17.5283 13.2533 17.4549 13.1066 17.3083C12.9633 17.1616 12.8916 16.9683 12.8916 16.7283C12.8916 16.4349 13.0033 16.2083 13.2266 16.0483C13.4499 15.8849 13.7883 15.8033 14.2416 15.8033H14.4716C14.5016 15.8033 14.5166 15.7883 14.5166 15.7583V15.7033C14.5166 15.5266 14.4749 15.4033 14.3916 15.3333C14.3083 15.2633 14.1583 15.2283 13.9416 15.2283C13.7483 15.2283 13.5183 15.2683 13.2516 15.3483C13.2016 15.3649 13.1533 15.3583 13.1066 15.3283C13.0633 15.2949 13.0416 15.2516 13.0416 15.1983C13.0416 15.1316 13.0616 15.0716 13.1016 15.0183C13.1416 14.9649 13.1933 14.9316 13.2566 14.9183C13.4966 14.8583 13.7249 14.8283 13.9416 14.8283C14.3616 14.8283 14.6499 14.9033 14.8066 15.0533C14.9633 15.2033 15.0416 15.4783 15.0416 15.8783V17.2333C15.0416 17.2999 15.0166 17.3583 14.9666 17.4083C14.9199 17.4549 14.8633 17.4783 14.7966 17.4783C14.7299 17.4783 14.6716 17.4549 14.6216 17.4083C14.5749 17.3583 14.5499 17.2999 14.5466 17.2333L14.5416 17.1083C14.5416 17.1049 14.5399 17.1033 14.5366 17.1033C14.5299 17.1033 14.5266 17.1049 14.5266 17.1083C14.3333 17.3883 14.0466 17.5283 13.6666 17.5283ZM16.3763 17.3983C16.323 17.4516 16.2596 17.4783 16.1863 17.4783C16.113 17.4783 16.048 17.4516 15.9913 17.3983C15.938 17.3449 15.9113 17.2799 15.9113 17.2033V14.0033C15.9113 13.9266 15.938 13.8616 15.9913 13.8083C16.048 13.7549 16.113 13.7283 16.1863 13.7283C16.2596 13.7283 16.323 13.7549 16.3763 13.8083C16.433 13.8616 16.4613 13.9266 16.4613 14.0033V17.2033C16.4613 17.2799 16.433 17.3449 16.3763 17.3983Z" fill="#F2F3F8"/>
</svg>
