<svg width="15" height="16" viewBox="0 0 15 16" fill="none" xmlns="http://www.w3.org/2000/svg">
<path d="M11.4617 3.72003C11.9047 4.06116 12.3021 4.45774 12.6442 4.90005" stroke="black" stroke-width="0.3" stroke-miterlimit="10" stroke-linecap="round"/>
<path d="M14 8.87467C14 9.72826 13.8319 10.5735 13.5052 11.3621C13.1786 12.1507 12.6998 12.8673 12.0962 13.4709C11.4926 14.0744 10.7761 14.5532 9.98744 14.8799C9.19882 15.2065 8.35359 15.3747 7.5 15.3747C6.64641 15.3747 5.80117 15.2065 5.01256 14.8799C4.22394 14.5532 3.50739 14.0744 2.90381 13.4709C2.30022 12.8673 1.82144 12.1507 1.49478 11.3621C1.16813 10.5735 1 9.72826 1 8.87467C1 7.15239 1.79989 5.81456 2.76552 4.42304L3.84141 2.86469C3.84918 2.85354 3.8603 2.84515 3.87316 2.84073C3.88601 2.83631 3.89994 2.83609 3.91293 2.8401C3.92592 2.8441 3.9373 2.85214 3.94543 2.86304C3.95355 2.87393 3.95801 2.88713 3.95815 2.90073C3.95815 2.90253 3.95815 2.90433 3.95815 2.90613C3.94497 3.07638 3.94859 3.24751 3.96896 3.41705C4.00735 3.73966 4.10507 4.05238 4.25721 4.33944L4.46222 4.72606C4.47493 4.75004 4.49374 4.77024 4.51675 4.78462C4.53977 4.799 4.56617 4.80706 4.59329 4.80797C4.62041 4.80888 4.64729 4.80262 4.67122 4.78982C4.69515 4.77702 4.71528 4.75813 4.72957 4.73507L5.39939 3.1252C5.4694 2.95566 5.55492 2.79295 5.65485 2.63914C5.81691 2.39061 6.0162 2.16847 6.24576 1.98049C6.50761 1.76844 6.78459 1.57576 7.07447 1.404C7.32742 1.25185 7.59128 1.11865 7.86391 1.00549C7.8773 1.00027 7.89184 0.998735 7.90602 1.00104C7.92021 1.00335 7.93351 1.00942 7.94455 1.01862C7.95559 1.02782 7.96396 1.03981 7.96879 1.05335C7.97362 1.06688 7.97473 1.08146 7.972 1.09557L7.8549 1.68324C7.71841 2.36983 7.83014 3.08259 8.17018 3.69449L8.39393 4.09732C8.40805 4.1246 8.43052 4.14666 8.45806 4.16027C8.4856 4.17389 8.51677 4.17835 8.54703 4.17299C8.57728 4.16764 8.60503 4.15277 8.62623 4.13053C8.64743 4.1083 8.66098 4.07987 8.66488 4.04939L8.97907 3.04053C9.07194 2.74578 9.11636 2.43792 9.11059 2.12894C9.10734 1.97761 9.12139 1.83709 9.18877 1.81691C9.2755 1.79232 9.36724 1.79156 9.45436 1.8147C9.54148 1.83785 9.62075 1.88404 9.68384 1.94843L11.4602 3.72007L12.6427 4.90009C13.6518 6.22321 14.0017 7.43581 14 8.87467Z" stroke="black" stroke-width="0.3" stroke-miterlimit="10" stroke-linecap="round"/>
<path d="M10.7581 6.98413H4.24176C3.93289 6.98413 3.6825 7.23923 3.6825 7.5539V11.3667C3.6825 11.6814 3.93289 11.9365 4.24176 11.9365H10.7581C11.067 11.9365 11.3174 11.6814 11.3174 11.3667V7.5539C11.3174 7.23923 11.067 6.98413 10.7581 6.98413Z" stroke="black" stroke-width="0.3" stroke-miterlimit="10" stroke-linecap="round"/>
<path d="M6.33 10.9775C6.33 10.97 6.3275 10.9625 6.3225 10.955L5.815 10.285L6.25 9.82C6.2575 9.8125 6.2625 9.805 6.2625 9.7975C6.2625 9.7925 6.2575 9.7875 6.2525 9.7825C6.2475 9.7775 6.24 9.775 6.23 9.775H5.94C5.92 9.775 5.905 9.7825 5.895 9.795L5.4475 10.2775V9.2125C5.4475 9.2025 5.4425 9.1925 5.4375 9.185C5.43 9.18 5.42 9.175 5.41 9.175H5.155C5.1425 9.175 5.1325 9.18 5.1275 9.185C5.12 9.1925 5.1175 9.2025 5.1175 9.2125V10.9625C5.1175 10.975 5.12 10.985 5.1275 10.99C5.1325 10.9975 5.1425 11 5.155 11H5.41C5.42 11 5.43 10.9975 5.4375 10.99C5.4425 10.985 5.4475 10.975 5.4475 10.9625V10.675L5.615 10.4975L5.98 10.9775C5.99 10.9925 6.005 11 6.025 11H6.3C6.32 11 6.33 10.9925 6.33 10.9775ZM7.09762 10.685C7.05762 10.705 7.01012 10.7125 6.95512 10.7125C6.86512 10.7125 6.79012 10.6825 6.73012 10.6175C6.67012 10.555 6.64262 10.4775 6.64262 10.3825C6.64262 10.29 6.67012 10.2125 6.73012 10.15C6.79012 10.0875 6.86512 10.055 6.95512 10.055C7.00512 10.055 7.05012 10.065 7.09012 10.085C7.13012 10.105 7.17012 10.13 7.21012 10.165C7.22012 10.175 7.23012 10.18 7.24012 10.18C7.24762 10.18 7.25512 10.1775 7.26512 10.1675L7.41762 10.02C7.42512 10.0125 7.43012 10.0025 7.43012 9.9925C7.43012 9.9825 7.42512 9.975 7.42012 9.9675C7.36012 9.9 7.29012 9.8475 7.21012 9.8075C7.13012 9.77 7.04262 9.75 6.95012 9.75C6.83512 9.75 6.72762 9.78 6.63262 9.835C6.53762 9.89 6.46262 9.9675 6.40762 10.0625C6.35262 10.16 6.32512 10.2675 6.32512 10.3825C6.32512 10.5 6.35262 10.6075 6.40762 10.7025C6.46262 10.8 6.53762 10.8775 6.63262 10.9325C6.72762 10.99 6.83512 11.0175 6.95012 11.0175C7.04512 11.0175 7.13262 11 7.21512 10.96C7.29762 10.9225 7.36762 10.87 7.42762 10.8C7.43262 10.795 7.43762 10.785 7.43762 10.775C7.43762 10.765 7.43262 10.7575 7.42512 10.7475L7.27262 10.6025C7.26512 10.595 7.25512 10.59 7.24512 10.59C7.23512 10.59 7.22512 10.595 7.21762 10.6025C7.17762 10.6375 7.13762 10.665 7.09762 10.685ZM8.81076 9.785C8.80326 9.78 8.79326 9.775 8.78326 9.775H8.56326C8.54076 9.775 8.52826 9.7875 8.52576 9.8125L8.51326 9.935C8.41826 9.8125 8.29326 9.75 8.14326 9.75C8.02826 9.75 7.92826 9.78 7.83826 9.835C7.74826 9.8925 7.67576 9.97 7.62576 10.0675C7.57326 10.165 7.54826 10.2725 7.54826 10.39C7.54826 10.505 7.57326 10.6125 7.62576 10.7075C7.67576 10.8025 7.74826 10.88 7.83826 10.935C7.92826 10.99 8.02826 11.0175 8.14326 11.0175C8.22326 11.0175 8.29326 11.0025 8.35576 10.9725C8.41576 10.9425 8.46826 10.9 8.51076 10.845L8.52576 10.9625C8.52826 10.9875 8.54076 11 8.56326 11H8.78326C8.79326 11 8.80326 10.9975 8.81076 10.99C8.81576 10.985 8.82076 10.975 8.82076 10.9625V9.8125C8.82076 9.8025 8.81576 9.7925 8.81076 9.785ZM8.40576 10.625C8.34576 10.6875 8.27076 10.7175 8.17826 10.7175C8.08826 10.7175 8.01326 10.6875 7.95326 10.625C7.89326 10.5625 7.86576 10.4825 7.86576 10.3875C7.86576 10.29 7.89326 10.21 7.95326 10.145C8.01326 10.0825 8.08826 10.05 8.17826 10.05C8.26826 10.05 8.34326 10.0825 8.40326 10.1475C8.46326 10.2125 8.49326 10.2925 8.49326 10.3875C8.49326 10.4825 8.46326 10.5625 8.40576 10.625ZM9.08746 9.185C9.07996 9.1925 9.07746 9.2025 9.07746 9.2125V10.9625C9.07746 10.975 9.07996 10.985 9.08746 10.99C9.09246 10.9975 9.10246 11 9.11496 11H9.36996C9.37996 11 9.38996 10.9975 9.39746 10.99C9.40246 10.985 9.40746 10.975 9.40746 10.9625V9.2125C9.40746 9.2025 9.40246 9.1925 9.39746 9.185C9.38996 9.18 9.37996 9.175 9.36996 9.175H9.11496C9.10246 9.175 9.09246 9.18 9.08746 9.185Z" fill="black"/>
</svg>
