<svg width="23" height="23" viewBox="0 0 23 23" fill="none" xmlns="http://www.w3.org/2000/svg">
<path d="M20.1004 19.1225C21.9023 17.0918 23 14.4222 23 11.5C23 8.45964 21.8119 5.69329 19.8783 3.63479V3.6344C19.8768 3.63202 19.8744 3.63122 19.8732 3.62924C17.8591 1.48826 15.0372 0.117776 11.8985 0.0103103L11.8981 0.00991379L11.6741 0.00396552C11.6162 0.00198276 11.5583 0 11.5 0C11.4417 0 11.3838 0.00198276 11.3259 0.00396552L11.1027 0.00991379L11.1023 0.0103103C7.96355 0.117776 5.14169 1.48826 3.1276 3.62924C3.12602 3.63122 3.12364 3.63202 3.12245 3.6344C3.12245 3.6344 3.12245 3.63479 3.12205 3.63519C1.18807 5.69329 0 8.45964 0 11.5C0 14.4222 1.09766 17.0918 2.89959 19.1225C2.90197 19.1261 2.90197 19.1301 2.90474 19.1336C2.91188 19.1435 2.92219 19.1483 2.92972 19.1574C4.95452 21.4209 7.85966 22.8791 11.1019 22.9901L11.1023 22.9905L11.3255 22.9964C11.3838 22.998 11.4417 23 11.5 23C11.5583 23 11.6162 22.998 11.6741 22.996L11.8973 22.9901L11.8977 22.9897C15.1435 22.8783 18.0518 21.4174 20.0766 19.1491C20.0818 19.1423 20.0901 19.1404 20.0949 19.1332C20.098 19.1301 20.098 19.1261 20.1004 19.1225ZM0.803017 11.8966H5.56283C5.60764 13.5775 5.93598 15.2109 6.5205 16.7412C5.39271 17.1493 4.31448 17.6965 3.30407 18.3794C1.81819 16.6119 0.893431 14.3591 0.803017 11.8966ZM3.52059 4.37119C4.50721 5.01281 5.55767 5.52674 6.65334 5.9106C5.98238 7.53924 5.61121 9.29517 5.56283 11.1034H0.803017C0.897793 8.52309 1.90821 6.17352 3.52059 4.37119ZM22.197 11.1034H17.4372C17.3888 9.29517 17.0176 7.53924 16.3467 5.9106C17.4423 5.52674 18.4928 5.01281 19.4794 4.37119C21.0918 6.17352 22.1022 8.52309 22.197 11.1034ZM11.1034 5.9336C9.95702 5.90109 8.8316 5.73017 7.74426 5.42483C8.54807 3.77597 9.683 2.28771 11.1034 1.04848V5.9336ZM11.1034 6.72671V11.1034H6.35593C6.40471 9.37924 6.76636 7.70698 7.41314 6.15647C8.60517 6.50186 9.84281 6.693 11.1034 6.72671ZM11.8966 6.72671C13.1572 6.693 14.3948 6.50226 15.5873 6.15647C16.234 7.70698 16.5957 9.37924 16.6445 11.1034H11.8966V6.72671ZM11.8966 5.9336V1.04848C13.317 2.28771 14.4519 3.77597 15.2557 5.42483C14.1684 5.73017 13.043 5.90109 11.8966 5.9336ZM16.0243 5.18372C15.2625 3.5876 14.2053 2.13345 12.8963 0.887086C15.2185 1.19084 17.3079 2.24091 18.9171 3.78905C18.0034 4.36881 17.0343 4.83516 16.0243 5.18372ZM6.97574 5.18372C5.96572 4.83516 4.99655 4.36881 4.08329 3.78905C5.6921 2.24091 7.78193 1.19084 10.1041 0.887086C8.79472 2.13345 7.73752 3.5876 6.97574 5.18372ZM6.35593 11.8966H11.1034V15.8771C9.79205 15.912 8.50722 16.1167 7.27236 16.4882C6.71441 15.0388 6.40074 13.4903 6.35593 11.8966ZM11.1034 16.6702V21.9515C9.58307 20.6251 8.39103 19.0135 7.58048 17.2258C8.7174 16.8907 9.89833 16.7043 11.1034 16.6702ZM11.8966 21.9515V16.6702C13.1017 16.7039 14.2826 16.8907 15.4195 17.2254C14.609 19.0135 13.4169 20.6251 11.8966 21.9515ZM11.8966 15.8771V11.8966H16.6441C16.5993 13.4903 16.2856 15.0388 15.7272 16.4886C14.4928 16.1167 13.2079 15.912 11.8966 15.8771ZM17.4372 11.8966H22.197C22.1066 14.3591 21.1822 16.6119 19.6959 18.3794C18.6855 17.6965 17.6073 17.1493 16.4795 16.7412C17.0644 15.2109 17.3924 13.5775 17.4372 11.8966ZM3.84298 18.9734C4.78122 18.35 5.78014 17.8488 6.82386 17.4741C7.59516 19.203 8.70233 20.7785 10.1037 22.1129C7.66455 21.7937 5.48153 20.6516 3.84298 18.9734ZM12.8963 22.1129C14.2977 20.7789 15.4048 19.2034 16.1761 17.4741C17.2199 17.8488 18.2184 18.35 19.157 18.9734C17.5185 20.6516 15.3354 21.7937 12.8963 22.1129Z" fill="#464250"/>
</svg>
