<svg width="32" height="27" viewBox="0 0 32 27" fill="none" xmlns="http://www.w3.org/2000/svg">
<path d="M27.8853 17.612C30.508 15.7066 32 12.9613 32 9.99999C32 4.48531 26.7667 0 20.3333 0C15.1413 0 10.6533 2.86268 9.16262 7.12268C9.04131 7.47068 9.22393 7.85068 9.57193 7.97199C9.91993 8.0933 10.2986 7.9093 10.4212 7.56268C11.704 3.89462 15.78 1.33331 20.3333 1.33331C26.0306 1.33331 30.6666 5.22131 30.6666 9.99999C30.6666 12.6827 29.2079 15.1733 26.6653 16.8347C26.3813 17.02 26.2826 17.388 26.4333 17.6907L27.0853 18.996L25.1986 17.9173C25.0239 17.8173 24.8159 17.804 24.6279 17.8733C23.7146 18.2253 22.7279 18.464 21.6986 18.5813C21.3333 18.6226 21.0706 18.9533 21.1119 19.3186C21.1532 19.6839 21.4706 19.9493 21.8492 19.9053C22.8799 19.7893 23.8732 19.5613 24.8065 19.2293L28.3345 21.2453C28.4385 21.3053 28.5518 21.3333 28.6652 21.3333C28.8319 21.3333 28.9972 21.2706 29.1239 21.1506C29.3372 20.9493 29.3946 20.6306 29.2626 20.3679L27.8853 17.612Z" fill="white" fill-opacity="0.95"/>
<path d="M9.99999 9.33203C4.48531 9.33203 0 12.92 0 17.332C0 19.7093 1.34269 21.9747 3.62 23.4867L2.71331 25.752C2.61062 26.0093 2.67731 26.3027 2.88131 26.4907C3.00662 26.6067 3.168 26.6667 3.332 26.6667C3.43331 26.6667 3.536 26.644 3.632 26.596L6.9373 24.9427C7.93999 25.2014 8.9693 25.332 9.99999 25.332C15.5147 25.332 20 21.744 20 17.332C20 12.92 15.5147 9.33203 9.99999 9.33203ZM9.9973 24C9.0013 24 8.00799 23.8627 7.04399 23.592C6.88399 23.548 6.7133 23.5627 6.5653 23.6373L4.60131 24.6186L5.06399 23.464C5.18668 23.1573 5.06668 22.808 4.78131 22.6413C2.58931 21.3613 1.332 19.4266 1.332 17.3333C1.332 13.6573 5.21999 10.6667 9.99868 10.6667C14.7774 10.6667 18.664 13.6573 18.664 17.3333C18.664 21.0093 14.776 24 9.9973 24Z" fill="white" fill-opacity="0.95"/>
</svg>
