<svg width="11" height="16" viewBox="0 0 11 16" fill="none" xmlns="http://www.w3.org/2000/svg">
<path d="M8.73212 5.4655L7.98253 4.7565L7.5741 4.3702L5.63364 2.53514L3.69318 4.3702L3.25067 4.78882L2.53516 5.4655" stroke="#464250" stroke-width="0.6" stroke-miterlimit="10" stroke-linecap="round"/>
<path d="M7.98251 4.75648V5.8532V8.51654H3.25065V5.8532V4.78881" stroke="#464250" stroke-width="0.6" stroke-miterlimit="10" stroke-linecap="round"/>
<path d="M5.61659 5.95302C5.39295 5.95302 5.17848 6.04186 5.02034 6.19999C4.86221 6.35813 4.77337 6.5726 4.77337 6.79624V8.51552H6.46051V6.79729C6.46065 6.68641 6.43892 6.57659 6.39656 6.47412C6.3542 6.37165 6.29205 6.27854 6.21366 6.20012C6.13527 6.12169 6.04219 6.0595 5.93973 6.0171C5.83728 5.9747 5.72747 5.95293 5.61659 5.95302V5.95302Z" stroke="#464250" stroke-width="0.6" stroke-miterlimit="10" stroke-linecap="round"/>
<path d="M9.38989 1.61109C8.35102 0.572214 6.96967 0 5.50056 0C4.03116 0 2.6501 0.572214 1.61122 1.61109C-0.311363 3.53339 -0.550287 7.15024 1.09379 9.34158L5.50056 15.7056L9.90073 9.35047C11.5514 7.15024 11.3125 3.53339 9.38989 1.61109ZM9.4355 9.01517L5.50056 14.6977L1.55931 9.00628C0.0681059 7.01802 0.28179 3.75166 2.01708 2.01666C2.94753 1.0862 4.18461 0.573649 5.50056 0.573649C6.81651 0.573649 8.05358 1.0862 8.98432 2.01666C10.7196 3.75166 10.9333 7.01802 9.4355 9.01517Z" fill="#464250"/>
</svg>
