<svg width="18" height="26" viewBox="0 0 18 26" fill="none" xmlns="http://www.w3.org/2000/svg">
<path d="M15.015 2.57623C13.3538 0.915004 11.1449 0 8.79571 0C6.44605 0 4.23766 0.915004 2.57643 2.57623C-0.497887 5.65009 -0.879941 11.4337 1.74903 14.9377L8.79571 25.1142L15.8318 14.9519C18.4714 11.4337 18.0893 5.65009 15.015 2.57623ZM15.0879 14.4158L8.79571 23.5025L2.49342 14.4016C0.108905 11.2222 0.450598 5.99912 3.22542 3.22476C4.71328 1.7369 6.69143 0.917297 8.79571 0.917297C10.9 0.917297 12.8781 1.7369 14.3665 3.22476C17.1413 5.99912 17.483 11.2222 15.0879 14.4158Z" fill="#464250"/>
<path d="M13.9631 8.73953L12.7645 7.60579L12.1114 6.98807L9.00849 4.05371L5.90559 6.98807L5.19798 7.65747L4.05385 8.73953" stroke="#464250" stroke-width="0.75" stroke-miterlimit="10" stroke-linecap="round"/>
<path d="M12.7649 7.60596V9.35966V13.6185H5.19837V9.35966V7.65764" stroke="#464250" stroke-width="0.75" stroke-miterlimit="10" stroke-linecap="round"/>
<path d="M8.98157 9.51904C8.62397 9.51904 8.28101 9.6611 8.02814 9.91397C7.77528 10.1668 7.63322 10.5098 7.63322 10.8674V13.6166H10.3311V10.8691C10.3313 10.6918 10.2965 10.5162 10.2288 10.3523C10.1611 10.1885 10.0617 10.0396 9.93633 9.91417C9.81098 9.78877 9.66213 9.68932 9.4983 9.62152C9.33447 9.55372 9.15888 9.5189 8.98157 9.51904V9.51904Z" stroke="#464250" stroke-width="0.75" stroke-miterlimit="10" stroke-linecap="round"/>
</svg>
