<svg width="29" height="28" viewBox="0 0 29 28" fill="none" xmlns="http://www.w3.org/2000/svg">
<path d="M20.4388 6.90828L12.1495 11.064C12.1368 11.0704 12.1295 11.0836 12.1173 11.0914C12.0841 11.1115 12.0587 11.137 12.0308 11.1644C12.0035 11.1919 11.9781 11.2178 11.958 11.2511C11.9507 11.2634 11.9375 11.2707 11.9307 11.2834L7.78601 19.5949C7.69223 19.7835 7.72886 20.0112 7.87784 20.1601C7.97163 20.2542 8.09668 20.3036 8.22319 20.3036C8.29744 20.3036 8.37218 20.287 8.44154 20.2522L16.7309 16.0965C16.7436 16.0901 16.7509 16.0769 16.7631 16.069C16.7963 16.049 16.8217 16.0235 16.8496 15.9961C16.8769 15.9686 16.9023 15.9427 16.9223 15.9094C16.9297 15.8971 16.9429 15.8898 16.9497 15.877L21.0944 7.56556C21.1881 7.37699 21.1515 7.14925 21.0025 7.00036C20.8535 6.85146 20.6274 6.81424 20.4388 6.90828ZM9.3159 18.7182L12.5022 12.3291L15.6875 15.5229L9.3159 18.7182ZM16.3787 14.8309L13.1934 11.6371L19.5654 8.44225L16.3787 14.8309Z" fill="#344C98"/>
<path d="M14.5731 0C7.03177 0 0.895996 6.15165 0.895996 13.7137C0.895996 21.2758 7.03177 27.4274 14.5731 27.4274C22.1145 27.4274 28.2503 21.2758 28.2503 13.7137C28.2503 6.15165 22.1145 0 14.5731 0ZM14.5731 26.3725C7.612 26.3725 1.94808 20.6935 1.94808 13.7137C1.94808 6.73396 7.612 1.0549 14.5731 1.0549C21.5343 1.0549 27.1982 6.73396 27.1982 13.7137C27.1982 20.6935 21.5343 26.3725 14.5731 26.3725Z" fill="#344C98"/>
</svg>
