<svg width="27" height="27" viewBox="0 0 27 27" fill="none" xmlns="http://www.w3.org/2000/svg">
<path d="M8.28396 11.0455C9.47011 11.0455 10.4317 10.0839 10.4317 8.89773C10.4317 7.71157 9.47011 6.75 8.28396 6.75C7.0978 6.75 6.13623 7.71157 6.13623 8.89773C6.13623 10.0839 7.0978 11.0455 8.28396 11.0455Z" fill="#464250"/>
<path d="M18.1023 11.0455C19.2885 11.0455 20.25 10.0839 20.25 8.89773C20.25 7.71157 19.2885 6.75 18.1023 6.75C16.9162 6.75 15.9546 7.71157 15.9546 8.89773C15.9546 10.0839 16.9162 11.0455 18.1023 11.0455Z" fill="#464250"/>
<path d="M13.5 0C6.05598 0 0 6.05598 0 13.5C0 20.944 6.05598 27 13.5 27C20.944 27 27 20.944 27 13.5C27 6.05598 20.944 0 13.5 0ZM13.5 25.7727C6.73282 25.7727 1.22727 20.2672 1.22727 13.5C1.22727 6.73282 6.73282 1.22727 13.5 1.22727C20.2672 1.22727 25.7727 6.73282 25.7727 13.5C25.7727 20.2672 20.2672 25.7727 13.5 25.7727Z" fill="#464250"/>
<path d="M20.2499 17.7954H6.74987C6.41053 17.7954 6.13623 18.0704 6.13623 18.4091C6.13623 18.7478 6.41053 19.0227 6.74987 19.0227H20.2499C20.5892 19.0227 20.8635 18.7478 20.8635 18.4091C20.8635 18.0704 20.5892 17.7954 20.2499 17.7954Z" fill="#464250"/>
</svg>
