<svg width="23" height="23" viewBox="0 0 23 23" fill="none" xmlns="http://www.w3.org/2000/svg">
<path d="M23 21.0834C23 21.3375 22.899 21.5813 22.7193 21.761C22.5396 21.9407 22.2958 22.0417 22.0417 22.0417H0.958333C0.704167 22.0417 0.460412 21.9407 0.280689 21.761C0.100967 21.5813 0 21.3375 0 21.0834C0 20.8292 0.100967 20.5854 0.280689 20.4057C0.460412 20.226 0.704167 20.125 0.958333 20.125H22.0417C22.2958 20.125 22.5396 20.226 22.7193 20.4057C22.899 20.5854 23 20.8292 23 21.0834ZM1.91667 18.2084H21.0833C21.3375 18.2084 21.5812 18.1074 21.761 17.9277C21.9407 17.748 22.0417 17.5042 22.0417 17.25V16.2917C22.0382 13.6633 21.0538 11.1309 19.2813 9.19009C17.5087 7.24934 15.0756 6.04003 12.4583 5.79892V4.52625C12.8237 4.31529 13.1093 3.98966 13.2708 3.59985C13.4322 3.21004 13.4606 2.77785 13.3514 2.3703C13.2422 1.96276 13.0015 1.60263 12.6668 1.34578C12.3321 1.08893 11.9219 0.949707 11.5 0.949707C11.0781 0.949707 10.6679 1.08893 10.3332 1.34578C9.99847 1.60263 9.75784 1.96276 9.64864 2.3703C9.53944 2.77785 9.56776 3.21004 9.72923 3.59985C9.89069 3.98966 10.1763 4.31529 10.5417 4.52625V5.79892C7.92435 6.04003 5.49126 7.24934 3.71872 9.19009C1.94618 11.1309 0.961813 13.6633 0.958333 16.2917V17.25C0.958333 17.5042 1.0593 17.748 1.23902 17.9277C1.41874 18.1074 1.6625 18.2084 1.91667 18.2084Z" fill="#344C98"/>
</svg>
