<svg width="44" height="29" viewBox="0 0 44 29" fill="none" xmlns="http://www.w3.org/2000/svg">
<path d="M43.0759 23.5862V23.5864C43.0761 24.2021 42.9581 24.8116 42.729 25.3799C42.4999 25.9482 42.1643 26.4637 41.742 26.8974C41.3197 27.3311 40.8191 27.6744 40.269 27.9085C39.719 28.1425 39.13 28.2629 38.5354 28.2631C38.5354 28.2631 38.5353 28.2631 38.5353 28.2631H5.63509C5.04931 28.2631 4.46895 28.1447 3.92703 27.9142C3.38509 27.6838 2.89182 27.3456 2.47576 26.9184C2.05967 26.4912 1.72898 25.9833 1.5032 25.4234C1.27742 24.8636 1.16114 24.2631 1.16132 23.6564V23.6562V23.587C1.16132 23.4044 1.23209 23.2319 1.35406 23.1067C1.47561 22.982 1.63764 22.9143 1.80375 22.9143H2.30375V22.9136H42.4335C42.5996 22.9136 42.7616 22.9812 42.8832 23.1059L43.2413 22.757L42.8832 23.1059C43.0051 23.2311 43.0759 23.4037 43.0759 23.5862Z" stroke="#464250" stroke-miterlimit="10" stroke-linecap="round"/>
<mask id="path-2-inside-1" fill="white">
<path d="M4.16578 22.4134C4.15479 22.1538 4.14929 21.8932 4.14929 21.6316C4.14929 11.4448 12.195 3.18701 22.1193 3.18701C32.0436 3.18701 40.0916 11.4448 40.0916 21.6316C40.0916 21.8932 40.0861 22.1538 40.0751 22.4134"/>
</mask>
<path d="M3.16668 22.4557C3.19005 23.0075 3.65631 23.4359 4.2081 23.4125C4.75989 23.3891 5.18826 22.9229 5.16489 22.3711L3.16668 22.4557ZM39.076 22.3711C39.0527 22.9229 39.481 23.3891 40.0328 23.4125C40.5846 23.4359 41.0509 23.0075 41.0742 22.4557L39.076 22.3711ZM5.16489 22.3711C5.15449 22.1257 5.14929 21.8792 5.14929 21.6316H3.14929C3.14929 21.9073 3.15508 22.182 3.16668 22.4557L5.16489 22.3711ZM5.14929 21.6316C5.14929 11.9724 12.7717 4.18701 22.1193 4.18701V2.18701C11.6184 2.18701 3.14929 10.9172 3.14929 21.6316H5.14929ZM22.1193 4.18701C31.4671 4.18701 39.0916 11.9725 39.0916 21.6316H41.0916C41.0916 10.9171 32.6202 2.18701 22.1193 2.18701V4.18701ZM39.0916 21.6316C39.0916 21.8792 39.0864 22.1257 39.076 22.3711L41.0742 22.4557C41.0858 22.182 41.0916 21.9073 41.0916 21.6316H39.0916Z" fill="#464250" mask="url(#path-2-inside-1)"/>
<path d="M11.8658 10.8771C14.2931 7.87618 17.5705 6.03564 21.1762 6.03564C21.2901 6.03564 21.401 6.03564 21.5172 6.0418" stroke="#464250" stroke-miterlimit="10" stroke-linecap="round" stroke-linejoin="round"/>
<path d="M10.6861 12.3606L9.39825 13.9872" stroke="#464250" stroke-miterlimit="10" stroke-linecap="round"/>
<path d="M19.7856 1H23.8464" stroke="#464250" stroke-miterlimit="10" stroke-linecap="round"/>
<path d="M21.8157 1.19092V3.5607" stroke="#464250" stroke-miterlimit="10" stroke-linecap="round"/>
</svg>
