<svg width="21" height="21" viewBox="0 0 21 21" fill="none" xmlns="http://www.w3.org/2000/svg">
<path d="M20.5509 9.37654C20.9582 8.96229 21.1019 8.35431 20.9263 7.78914C20.7502 7.22397 20.2916 6.82052 19.7281 6.7349L14.7185 5.97515C14.5051 5.94271 14.3208 5.80304 14.2255 5.6011L11.9858 0.863105C11.7343 0.330799 11.2239 0 10.6551 0C10.0867 0 9.57628 0.330799 9.3248 0.863105L7.08472 5.6011C6.98943 5.80304 6.80465 5.94271 6.59129 5.97515L1.58165 6.73533C1.01863 6.82052 0.560005 7.22397 0.383931 7.78914C0.20827 8.35431 0.35203 8.96229 0.759281 9.37654L4.38394 13.0642C4.53847 13.2216 4.60931 13.4482 4.57285 13.6696L3.71734 18.8772C3.62122 19.4622 3.84701 20.0421 4.30729 20.3915C4.76716 20.7413 5.36581 20.7867 5.87001 20.5096L10.3502 18.0508C10.5412 17.9462 10.769 17.9462 10.96 18.0508L15.4406 20.5096C15.6594 20.6298 15.8963 20.689 16.1321 20.689C16.4382 20.689 16.7431 20.5891 17.0033 20.3915C17.4636 20.0421 17.6894 19.4622 17.5933 18.8772L16.7373 13.67C16.7009 13.4482 16.7717 13.222 16.9263 13.0646L20.5509 9.37654ZM15.9212 13.8162L16.7767 19.0233C16.8198 19.2854 16.7224 19.5358 16.5161 19.6923C16.3094 19.8484 16.0521 19.8674 15.8263 19.7446L11.3457 17.2855C11.1299 17.1674 10.8921 17.1077 10.6551 17.1077C10.4181 17.1077 10.1807 17.1674 9.96447 17.2859L5.48471 19.7446C5.2581 19.8674 5.00082 19.8484 4.7945 19.6923C4.58818 19.5358 4.49124 19.2858 4.53391 19.0233L5.38943 13.8162C5.47187 13.3137 5.31237 12.8009 4.9627 12.4454L1.33763 8.75732C1.15493 8.57138 1.09279 8.30933 1.17192 8.05637C1.25063 7.80297 1.44825 7.62914 1.70056 7.59066L6.70978 6.8309C7.19326 6.75782 7.61128 6.44129 7.82713 5.98379L10.0672 1.24579C10.1799 1.0071 10.3999 0.864835 10.6547 0.864835C10.9099 0.864835 11.1295 1.0071 11.2426 1.24579L13.4827 5.98379C13.6985 6.44129 14.1161 6.75782 14.5996 6.8309L19.6092 7.59066C19.8615 7.62914 20.0592 7.80297 20.1379 8.05637C20.2166 8.30933 20.1549 8.57138 19.9722 8.75732L16.3475 12.445C15.9978 12.8009 15.8383 13.3133 15.9212 13.8162Z" fill="#9E9E9E"/>
</svg>
