<svg width="17" height="17" viewBox="0 0 17 17" fill="none" xmlns="http://www.w3.org/2000/svg">
<path d="M4.97861 5.13179V7.55187C4.97861 7.64854 5.05699 7.72687 5.15361 7.72687H7.57374C7.67036 7.72687 7.74874 7.64854 7.74874 7.55187V7.09298C7.74874 6.9963 7.67036 6.91798 7.57374 6.91798C7.47711 6.91798 7.39879 6.9963 7.39879 7.09298V7.37692H5.32861V5.30674H7.39879V5.72804C7.39879 5.82472 7.47711 5.9031 7.57374 5.9031C7.67036 5.9031 7.74874 5.82472 7.74874 5.72804V5.13179C7.74874 5.03511 7.67036 4.95679 7.57374 4.95679H5.15361C5.05699 4.95679 4.97861 5.03511 4.97861 5.13179Z" fill="#464250"/>
<path d="M6.00069 5.80383C5.90401 5.80383 5.82574 5.88216 5.82574 5.97878V6.70482C5.82574 6.80145 5.90401 6.87983 6.00069 6.87983H6.72674C6.82336 6.87983 6.90174 6.80145 6.90174 6.70482V5.97878C6.90174 5.88216 6.82336 5.80383 6.72674 5.80383H6.00069ZM6.55179 6.52988H6.1757V6.15378H6.55179V6.52988Z" fill="#464250"/>
<path d="M7.57374 8.97656H5.15361C5.05699 8.97656 4.97861 9.05489 4.97861 9.15151V11.5717C4.97861 11.6683 5.05699 11.7466 5.15361 11.7466H7.57374C7.67036 11.7466 7.74874 11.6683 7.74874 11.5717V9.15151C7.74874 9.05489 7.67036 8.97656 7.57374 8.97656ZM7.39879 11.3967H5.32861V9.32651H7.39879V11.3967Z" fill="#464250"/>
<path d="M9.18553 7.72687H11.6057C11.7023 7.72687 11.7807 7.64854 11.7807 7.55187V5.13179C11.7807 5.03511 11.7023 4.95679 11.6057 4.95679H9.18553C9.08891 4.95679 9.01053 5.03511 9.01053 5.13179V7.55187C9.01053 7.64854 9.08891 7.72687 9.18553 7.72687ZM9.36048 5.30674H11.4307V7.37692H9.36048V5.30674Z" fill="#464250"/>
<path d="M11.7807 11.5717V9.15151C11.7807 9.05489 11.7023 8.97656 11.6057 8.97656H9.18553C9.08891 8.97656 9.01053 9.05489 9.01053 9.15151V11.5717C9.01053 11.6683 9.08891 11.7466 9.18553 11.7466H11.6057C11.7023 11.7466 11.7807 11.6683 11.7807 11.5717ZM11.4307 11.3967H9.36048V9.32651H11.4307V11.3967Z" fill="#464250"/>
<path d="M11.6057 8.53726C11.7023 8.53726 11.7807 8.45888 11.7807 8.36226C11.7807 8.26558 11.7023 8.18731 11.6057 8.18731H8.5377V5.11238C8.5377 5.01576 8.45933 4.93738 8.36276 4.93738C8.26602 4.93738 8.1877 5.01576 8.1877 5.11238V8.18731H5.86512C5.76855 8.18731 5.69017 8.26564 5.69017 8.36226C5.69017 8.45894 5.76855 8.53726 5.86512 8.53726H8.1877V11.5717C8.1877 11.6683 8.26602 11.7466 8.36276 11.7466C8.45933 11.7466 8.5377 11.6683 8.5377 11.5717V8.53726H11.6057Z" fill="#464250"/>
<path d="M6.00069 10.9126H6.72674C6.82336 10.9126 6.90174 10.8343 6.90174 10.7376V10.0116C6.90174 9.91491 6.82336 9.83664 6.72674 9.83664H6.00069C5.90401 9.83664 5.82574 9.91491 5.82574 10.0116V10.7376C5.82574 10.8343 5.90401 10.9126 6.00069 10.9126ZM6.1757 10.1866H6.55179V10.5627H6.1757V10.1866Z" fill="#464250"/>
<path d="M10.7586 5.80383H10.0326C9.93594 5.80383 9.85756 5.88216 9.85756 5.97878V6.70482C9.85756 6.80145 9.93594 6.87983 10.0326 6.87983H10.7586C10.8553 6.87983 10.9336 6.80145 10.9336 6.70482V5.97878C10.9336 5.88216 10.8553 5.80383 10.7586 5.80383ZM10.5836 6.52988H10.2076V6.15378H10.5836V6.52988Z" fill="#464250"/>
<path d="M10.0326 10.9126H10.7586C10.8553 10.9126 10.9336 10.8343 10.9336 10.7376V10.0116C10.9336 9.91491 10.8553 9.83664 10.7586 9.83664H10.0326C9.93594 9.83664 9.85756 9.91491 9.85756 10.0116V10.7376C9.85756 10.8343 9.93594 10.9126 10.0326 10.9126ZM10.2076 10.1866H10.5836V10.5627H10.2076V10.1866Z" fill="#464250"/>
<path d="M5.11823 8.18804L5.1088 8.19021C5.01474 8.21244 4.95646 8.30666 4.97863 8.40073C4.99764 8.48129 5.06948 8.53564 5.14878 8.53564C5.16213 8.53564 5.17558 8.53406 5.18909 8.53085L5.19846 8.52867C5.29258 8.5065 5.35086 8.41228 5.32863 8.31821C5.30652 8.2242 5.21229 8.16592 5.11823 8.18804Z" fill="#464250"/>
<path d="M7.5385 6.23589L7.52907 6.23812C7.43501 6.26018 7.37668 6.35435 7.39874 6.44847C7.41758 6.52914 7.48948 6.58355 7.56894 6.58355C7.58213 6.58355 7.59552 6.58203 7.60903 6.57881L7.6184 6.57663C7.71252 6.55457 7.77085 6.46035 7.74879 6.36634C7.72674 6.27227 7.63251 6.21383 7.5385 6.23589Z" fill="#464250"/>
<path d="M4.07589 5.33424C4.17262 5.33424 4.25089 5.25591 4.25089 5.15929V4.25089H5.12623C5.22291 4.25089 5.30129 4.17262 5.30129 4.07594C5.30129 3.97932 5.22291 3.90094 5.12623 3.90094H4.07589C3.97932 3.90094 3.90094 3.97932 3.90094 4.07594V5.15929C3.90094 5.25591 3.97932 5.33424 4.07589 5.33424Z" fill="#464250"/>
<path d="M12.6498 3.90094H11.5995C11.5028 3.90094 11.4244 3.97932 11.4244 4.07594C11.4244 4.17262 11.5028 4.25089 11.5995 4.25089H12.4748V5.15929C12.4748 5.25591 12.5531 5.33424 12.6498 5.33424C12.7464 5.33424 12.8248 5.25591 12.8248 5.15929V4.07594C12.8248 3.97932 12.7464 3.90094 12.6498 3.90094Z" fill="#464250"/>
<path d="M5.12621 12.4674H4.25087V11.559C4.25087 11.4624 4.17261 11.3841 4.07587 11.3841C3.9793 11.3841 3.90092 11.4624 3.90092 11.559V12.6424C3.90092 12.739 3.9793 12.8174 4.07587 12.8174H5.12621C5.22289 12.8174 5.30127 12.739 5.30127 12.6424C5.30127 12.5457 5.22289 12.4674 5.12621 12.4674Z" fill="#464250"/>
<path d="M12.6498 11.3841C12.5531 11.3841 12.4748 11.4624 12.4748 11.559V12.4674H11.5995C11.5028 12.4674 11.4244 12.5457 11.4244 12.6424C11.4244 12.739 11.5028 12.8174 11.5995 12.8174H12.6498C12.7464 12.8174 12.8248 12.739 12.8248 12.6424V11.559C12.8248 11.4624 12.7464 11.3841 12.6498 11.3841Z" fill="#464250"/>
<path d="M8.18183 0C3.67049 0 0 3.67018 0 8.18183C0 12.6935 3.67049 16.3637 8.18183 16.3637C12.6932 16.3637 16.3637 12.6935 16.3637 8.18183C16.3637 3.67018 12.6932 0 8.18183 0ZM8.18183 15.7343C4.01759 15.7343 0.629371 12.3461 0.629371 8.18183C0.629371 4.01759 4.01759 0.629371 8.18183 0.629371C12.3461 0.629371 15.7343 4.01759 15.7343 8.18183C15.7343 12.3461 12.3461 15.7343 8.18183 15.7343Z" fill="#464250"/>
</svg>
