<svg width="28" height="28" viewBox="0 0 28 28" fill="none" xmlns="http://www.w3.org/2000/svg">
<path d="M28 14C28 6.28042 21.7196 0 14 0C6.28042 0 0 6.28042 0 14C0 19.2498 2.90511 23.8331 7.19168 26.2291C7.22241 26.2516 7.25577 26.2705 7.29159 26.2851C9.28479 27.3778 11.571 28 14 28C16.429 28 18.7152 27.3778 20.7084 26.285C20.7442 26.2705 20.7776 26.2515 20.8083 26.2291C25.0949 23.8331 28 19.2498 28 14ZM0.933352 14C0.933352 6.79514 6.79514 0.933352 14 0.933352C21.2049 0.933352 27.0666 6.79514 27.0666 14C27.0666 18.6315 24.6442 22.7076 21 25.0288V22.4002C21 19.9264 19.6681 17.6108 17.5234 16.3578C17.3712 16.2691 17.1822 16.2738 17.0343 16.3685C15.2176 17.5436 12.7825 17.5436 10.9658 16.3685C10.8183 16.2738 10.6288 16.2691 10.4767 16.3578C8.33186 17.6108 7 19.9264 7 22.4002V25.0287C3.35584 22.7076 0.933352 18.6315 0.933352 14ZM7.93335 25.57V22.4002C7.93335 20.3487 8.99177 18.4224 10.7124 17.3084C12.7111 18.4769 15.2889 18.4769 17.2877 17.3084C19.0083 18.4224 20.0667 20.3488 20.0667 22.4002V25.57C18.2527 26.525 16.1885 27.0667 14.0001 27.0667C11.8116 27.0667 9.74739 26.525 7.93335 25.57Z" fill="#464250"/>
<path d="M13.9999 15.3999C16.5731 15.3999 18.6665 13.3064 18.6665 10.7332C18.6665 8.16008 16.5731 6.06653 13.9999 6.06653C11.4267 6.06653 9.33325 8.16002 9.33325 10.7332C9.33325 13.3063 11.4267 15.3999 13.9999 15.3999ZM13.9999 6.99988C16.0584 6.99988 17.7332 8.67474 17.7332 10.7332C17.7332 12.7917 16.0584 14.4666 13.9999 14.4666C11.9414 14.4666 10.2665 12.7917 10.2665 10.7332C10.2665 8.67474 11.9414 6.99988 13.9999 6.99988Z" fill="#464250"/>
</svg>
