<svg width="28" height="16" viewBox="0 0 28 16" fill="none" xmlns="http://www.w3.org/2000/svg">
<path d="M24.2877 8.01808C24.2877 8.75357 24.5798 9.45893 25.0999 9.979C25.62 10.4991 26.3253 10.7912 27.0608 10.7912V14.5616C27.0608 14.6779 27.0146 14.7894 26.9324 14.8716C26.8502 14.9538 26.7387 15 26.6225 15H1.43836C1.3221 15 1.2106 14.9538 1.12839 14.8716C1.04618 14.7894 1 14.6779 1 14.5616V10.7863C1.70379 10.742 2.36424 10.4312 2.84696 9.91711C3.32968 9.40304 3.59838 8.72436 3.59838 8.01918C3.59838 7.314 3.32968 6.63531 2.84696 6.12125C2.36424 5.60718 1.70379 5.29637 1 5.25205V1.43836C1 1.3221 1.04618 1.2106 1.12839 1.12839C1.2106 1.04618 1.3221 1 1.43836 1H26.6219C26.7382 1 26.8497 1.04618 26.9319 1.12839C27.0141 1.2106 27.0603 1.3221 27.0603 1.43836V5.24658C26.3252 5.24672 25.6202 5.53873 25.1003 6.05842C24.5804 6.57812 24.2881 7.28298 24.2877 8.01808V8.01808Z" stroke="#464250" stroke-width="0.75" stroke-miterlimit="10" stroke-linecap="round"/>
<path d="M13.7663 6.98863C14.6167 6.98863 15.306 6.29927 15.306 5.44891C15.306 4.59854 14.6167 3.90918 13.7663 3.90918C12.9159 3.90918 12.2266 4.59854 12.2266 5.44891C12.2266 6.29927 12.9159 6.98863 13.7663 6.98863Z" stroke="#464250" stroke-width="0.75" stroke-miterlimit="10" stroke-linecap="round"/>
<path d="M19.2951 12.2391C20.1455 12.2391 20.8348 11.5498 20.8348 10.6994C20.8348 9.84903 20.1455 9.15967 19.2951 9.15967C18.4447 9.15967 17.7554 9.84903 17.7554 10.6994C17.7554 11.5498 18.4447 12.2391 19.2951 12.2391Z" stroke="#464250" stroke-width="0.75" stroke-miterlimit="10" stroke-linecap="round"/>
<path d="M3.12649 2.27295H2.44813C2.4103 2.27295 2.37964 2.30361 2.37964 2.34144V3.0198C2.37964 3.05763 2.4103 3.08829 2.44813 3.08829H3.12649C3.16432 3.08829 3.19498 3.05763 3.19498 3.0198V2.34144C3.19498 2.30361 3.16432 2.27295 3.12649 2.27295Z" fill="#464250"/>
<path d="M3.12649 12.9199H2.44813C2.4103 12.9199 2.37964 12.9506 2.37964 12.9884V13.6668C2.37964 13.7046 2.4103 13.7353 2.44813 13.7353H3.12649C3.16432 13.7353 3.19498 13.7046 3.19498 13.6668V12.9884C3.19498 12.9506 3.16432 12.9199 3.12649 12.9199Z" fill="#464250"/>
<path d="M25.2901 12.9199H24.6117C24.5739 12.9199 24.5432 12.9506 24.5432 12.9884V13.6668C24.5432 13.7046 24.5739 13.7353 24.6117 13.7353H25.2901C25.3279 13.7353 25.3586 13.7046 25.3586 13.6668V12.9884C25.3586 12.9506 25.3279 12.9199 25.2901 12.9199Z" fill="#464250"/>
<path d="M25.2901 2.27295H24.6117C24.5739 2.27295 24.5432 2.30361 24.5432 2.34144V3.0198C24.5432 3.05763 24.5739 3.08829 24.6117 3.08829H25.2901C25.3279 3.08829 25.3586 3.05763 25.3586 3.0198V2.34144C25.3586 2.30361 25.3279 2.27295 25.2901 2.27295Z" fill="#464250"/>
<path d="M9.37234 2.27295H8.69398C8.65615 2.27295 8.62549 2.30361 8.62549 2.34144V3.0198C8.62549 3.05763 8.65615 3.08829 8.69398 3.08829H9.37234C9.41016 3.08829 9.44083 3.05763 9.44083 3.0198V2.34144C9.44083 2.30361 9.41016 2.27295 9.37234 2.27295Z" fill="#464250"/>
<path d="M9.37234 3.9082H8.69398C8.65615 3.9082 8.62549 3.93887 8.62549 3.9767V4.65505C8.62549 4.69288 8.65615 4.72355 8.69398 4.72355H9.37234C9.41016 4.72355 9.44083 4.69288 9.44083 4.65505V3.9767C9.44083 3.93887 9.41016 3.9082 9.37234 3.9082Z" fill="#464250"/>
<path d="M9.37234 5.76318H8.69398C8.65615 5.76318 8.62549 5.79385 8.62549 5.83168V6.51003C8.62549 6.54786 8.65615 6.57853 8.69398 6.57853H9.37234C9.41016 6.57853 9.44083 6.54786 9.44083 6.51003V5.83168C9.44083 5.79385 9.41016 5.76318 9.37234 5.76318Z" fill="#464250"/>
<path d="M9.37234 7.39893H8.69398C8.65615 7.39893 8.62549 7.42959 8.62549 7.46742V8.14578C8.62549 8.1836 8.65615 8.21427 8.69398 8.21427H9.37234C9.41016 8.21427 9.44083 8.1836 9.44083 8.14578V7.46742C9.44083 7.42959 9.41016 7.39893 9.37234 7.39893Z" fill="#464250"/>
<path d="M9.37234 9.25342H8.69398C8.65615 9.25342 8.62549 9.28408 8.62549 9.32191V10.0003C8.62549 10.0381 8.65615 10.0688 8.69398 10.0688H9.37234C9.41016 10.0688 9.44083 10.0381 9.44083 10.0003V9.32191C9.44083 9.28408 9.41016 9.25342 9.37234 9.25342Z" fill="#464250"/>
<path d="M9.37234 11.1079H8.69398C8.65615 11.1079 8.62549 11.1386 8.62549 11.1764V11.8548C8.62549 11.8926 8.65615 11.9233 8.69398 11.9233H9.37234C9.41016 11.9233 9.44083 11.8926 9.44083 11.8548V11.1764C9.44083 11.1386 9.41016 11.1079 9.37234 11.1079Z" fill="#464250"/>
<path d="M9.37234 12.7437H8.69398C8.65615 12.7437 8.62549 12.7743 8.62549 12.8121V13.4905C8.62549 13.5283 8.65615 13.559 8.69398 13.559H9.37234C9.41016 13.559 9.44083 13.5283 9.44083 13.4905V12.8121C9.44083 12.7743 9.41016 12.7437 9.37234 12.7437Z" fill="#464250"/>
</svg>
