<svg width="51" height="51" viewBox="0 0 51 51" fill="none" xmlns="http://www.w3.org/2000/svg">
<path d="M51 25.5C51 11.4393 39.5607 0 25.5 0C11.4393 0 0 11.4393 0 25.5C0 35.0622 5.29145 43.4104 13.0991 47.7745C13.1551 47.8154 13.2159 47.8499 13.2811 47.8764C16.9116 49.8666 21.0758 51 25.5 51C29.9242 51 34.0884 49.8666 37.7189 47.8763C37.7841 47.8499 37.8449 47.8153 37.9009 47.7743C45.7085 43.4104 51 35.0622 51 25.5ZM1.70003 25.5C1.70003 12.3769 12.3769 1.70003 25.5 1.70003C38.6231 1.70003 49.3 12.3769 49.3 25.5C49.3 33.9359 44.8876 41.3602 38.25 45.5881V40.8004C38.25 36.2946 35.8241 32.0768 31.9175 29.7946C31.6404 29.6331 31.2962 29.6416 31.0267 29.8141C27.7177 31.9544 23.2824 31.9544 19.9734 29.8141C19.7047 29.6416 19.3597 29.633 19.0826 29.7946C15.1759 32.0768 12.75 36.2945 12.75 40.8003V45.588C6.11243 41.3602 1.70003 33.9359 1.70003 25.5ZM14.45 46.5739V40.8004C14.45 37.0638 16.3779 33.555 19.5118 31.5261C23.1523 33.6544 27.8477 33.6544 31.4883 31.5261C34.6222 33.555 36.5501 37.0639 36.5501 40.8004V46.5739C33.2459 48.3134 29.4863 49.3001 25.5001 49.3001C21.5139 49.3001 17.7542 48.3134 14.45 46.5739Z" fill="#464250"/>
<path d="M25.5002 28.0503C30.1871 28.0503 34.0002 24.2372 34.0002 19.5504C34.0002 14.8635 30.1871 11.0503 25.5002 11.0503C20.8133 11.0503 17.0002 14.8634 17.0002 19.5503C17.0002 24.2371 20.8133 28.0503 25.5002 28.0503ZM25.5002 12.7503C29.2496 12.7503 32.3002 15.801 32.3002 19.5504C32.3002 23.2998 29.2496 26.3504 25.5002 26.3504C21.7508 26.3504 18.7002 23.2998 18.7002 19.5504C18.7002 15.801 21.7508 12.7503 25.5002 12.7503Z" fill="#464250"/>
</svg>
