<svg width="11" height="11" viewBox="0 0 11 11" fill="none" xmlns="http://www.w3.org/2000/svg">
<path d="M5.10714 0C2.29103 0 0 2.22053 0 4.95C0 7.53665 2.05818 9.66515 4.67039 9.88075L3.83849 10.687C3.76453 10.7587 3.76453 10.8746 3.83849 10.9463C3.87538 10.982 3.9238 11 3.97222 11C4.02065 11 4.06907 10.982 4.10595 10.9463L5.24069 9.84647C5.25828 9.8296 5.27209 9.80925 5.28173 9.7867C5.30084 9.74197 5.30084 9.69137 5.28173 9.64663C5.27209 9.62408 5.25828 9.60392 5.24069 9.58687L4.10595 8.48705C4.03199 8.41537 3.91245 8.41537 3.83849 8.48705C3.76453 8.55873 3.76453 8.6746 3.83849 8.74628L4.62613 9.50968C2.24374 9.27538 0.378307 7.31995 0.378307 4.95C0.378307 2.42275 2.49966 0.366667 5.10714 0.366667C7.71462 0.366667 9.83598 2.42275 9.83598 4.95C9.83598 6.16605 9.34986 7.31152 8.46689 8.17538C8.39331 8.24743 8.39387 8.36348 8.46821 8.4348C8.54236 8.50575 8.66209 8.50538 8.73567 8.43352C9.6892 7.50035 10.2143 6.26322 10.2143 4.95C10.2143 2.22053 7.92326 0 5.10714 0Z" fill="white"/>
</svg>
