<svg width="20" height="20" viewBox="0 0 20 20" fill="none" xmlns="http://www.w3.org/2000/svg">
<mask id="path-1-inside-1" fill="white">
<path d="M19.1523 19.3607L13.5415 13.5257C14.9726 12.0904 15.8592 10.1118 15.8592 7.92962C15.8592 3.557 12.3022 0 7.92961 0C3.557 0 0 3.557 0 7.92962C0 12.3022 3.557 15.8592 7.92961 15.8592C9.84896 15.8592 11.6105 15.1731 12.9834 14.0347L18.6078 19.8841C18.6818 19.9615 18.7807 20 18.88 20C18.9744 20 19.0685 19.9649 19.1417 19.8946C19.292 19.75 19.2965 19.511 19.1523 19.3607ZM7.92961 15.104C3.97349 15.104 0.755201 11.8857 0.755201 7.92962C0.755201 3.97349 3.97349 0.755201 7.92961 0.755201C11.8857 0.755201 15.104 3.97349 15.104 7.92962C15.104 11.8857 11.8854 15.104 7.92961 15.104Z"/>
</mask>
<path d="M19.1523 19.3607L13.5415 13.5257C14.9726 12.0904 15.8592 10.1118 15.8592 7.92962C15.8592 3.557 12.3022 0 7.92961 0C3.557 0 0 3.557 0 7.92962C0 12.3022 3.557 15.8592 7.92961 15.8592C9.84896 15.8592 11.6105 15.1731 12.9834 14.0347L18.6078 19.8841C18.6818 19.9615 18.7807 20 18.88 20C18.9744 20 19.0685 19.9649 19.1417 19.8946C19.292 19.75 19.2965 19.511 19.1523 19.3607ZM7.92961 15.104C3.97349 15.104 0.755201 11.8857 0.755201 7.92962C0.755201 3.97349 3.97349 0.755201 7.92961 0.755201C11.8857 0.755201 15.104 3.97349 15.104 7.92962C15.104 11.8857 11.8854 15.104 7.92961 15.104Z" fill="#2855AC"/>
<path d="M19.1523 19.3607L19.8737 18.6683L19.8731 18.6676L19.1523 19.3607ZM13.5415 13.5257L12.8334 12.8196L12.142 13.513L12.8207 14.2188L13.5415 13.5257ZM12.9834 14.0347L13.7043 13.3416L13.0603 12.6718L12.3451 13.2649L12.9834 14.0347ZM18.6078 19.8841L19.3306 19.193L19.3286 19.191L18.6078 19.8841ZM19.1417 19.8946L19.8338 20.6165L19.8351 20.6152L19.1417 19.8946ZM19.8731 18.6676L14.2623 12.8325L12.8207 14.2188L18.4315 20.0538L19.8731 18.6676ZM14.2496 14.2317C15.8592 12.6175 16.8592 10.3882 16.8592 7.92962H14.8592C14.8592 9.8353 14.086 11.5633 12.8334 12.8196L14.2496 14.2317ZM16.8592 7.92962C16.8592 3.00471 12.8545 -1 7.92961 -1V1C11.7499 1 14.8592 4.10928 14.8592 7.92962H16.8592ZM7.92961 -1C3.00471 -1 -1 3.00471 -1 7.92962H1C1 4.10928 4.10928 1 7.92961 1V-1ZM-1 7.92962C-1 12.8545 3.00471 16.8592 7.92961 16.8592V14.8592C4.10928 14.8592 1 11.7499 1 7.92962H-1ZM7.92961 16.8592C10.0916 16.8592 12.0768 16.0855 13.6217 14.8044L12.3451 13.2649C11.1441 14.2608 9.6063 14.8592 7.92961 14.8592V16.8592ZM12.2626 14.7278L17.8869 20.5772L19.3286 19.191L13.7043 13.3416L12.2626 14.7278ZM17.885 20.5751C18.1572 20.8599 18.5219 21 18.88 21V19C19.0396 19 19.2064 19.0631 19.3306 19.193L17.885 20.5751ZM18.88 21C19.2236 21 19.5681 20.8712 19.8338 20.6165L18.4496 19.1728C18.5688 19.0586 18.7253 19 18.88 19V21ZM19.8351 20.6152C20.3834 20.0876 20.3997 19.2162 19.8737 18.6683L18.4308 20.0532C18.1934 19.8058 18.2006 19.4125 18.4483 19.1741L19.8351 20.6152ZM7.92961 14.104C4.52578 14.104 1.7552 11.3335 1.7552 7.92962H-0.244799C-0.244799 12.438 3.42121 16.104 7.92961 16.104V14.104ZM1.7552 7.92962C1.7552 4.52578 4.52578 1.7552 7.92961 1.7552V-0.244799C3.42121 -0.244799 -0.244799 3.42121 -0.244799 7.92962H1.7552ZM7.92961 1.7552C11.3335 1.7552 14.104 4.52578 14.104 7.92962H16.104C16.104 3.42121 12.438 -0.244799 7.92961 -0.244799V1.7552ZM14.104 7.92962C14.104 11.3334 11.3331 14.104 7.92961 14.104V16.104C12.4376 16.104 16.104 12.4381 16.104 7.92962H14.104Z" fill="#2855AC" mask="url(#path-1-inside-1)"/>
</svg>
