<svg width="26" height="38" viewBox="0 0 26 38" fill="none" xmlns="http://www.w3.org/2000/svg">
<path d="M21.6336 23.9221L25.8677 34.8812L21.4351 33.2435C20.9224 33.0518 20.3766 33.348 20.1781 33.8881L18.7723 38L14.7532 27.2673C14.1743 27.3544 13.5789 27.3893 12.9835 27.3893C12.6031 27.3893 12.2226 27.3718 11.8588 27.337L9.21247 37.3031L7.09542 33.4003C6.81425 32.895 6.16921 32.6859 5.62341 32.9124L0.959288 35.0903L4.11832 23.6956C1.58779 21.204 0 17.6323 0 13.6946C0 6.13297 5.82188 0 13 0C20.1781 0 26 6.13297 26 13.6946C25.9835 17.7717 24.313 21.4305 21.6336 23.9221Z" fill="#344C98" fill-opacity="0.85"/>
<path d="M16.8264 7.6256C16.9839 7.46542 17.0394 7.23033 16.9715 7.0118C16.9034 6.79327 16.7261 6.63727 16.5082 6.60416L14.5712 6.31039C14.4887 6.29785 14.4174 6.24384 14.3805 6.16576L13.5145 4.33373C13.4173 4.12791 13.2199 4 13 4C12.7802 4 12.5829 4.12791 12.4856 4.33373L11.6195 6.16576C11.5826 6.24384 11.5112 6.29785 11.4287 6.31039L9.4916 6.60433C9.2739 6.63727 9.09656 6.79327 9.02848 7.0118C8.96056 7.23033 9.01615 7.46542 9.17362 7.6256L10.5752 9.05149C10.6349 9.11235 10.6623 9.19997 10.6482 9.28557L10.3174 11.2992C10.2802 11.5254 10.3675 11.7496 10.5455 11.8847C10.7233 12.02 10.9548 12.0375 11.1498 11.9304L12.8821 10.9797C12.9559 10.9392 13.0441 10.9392 13.1179 10.9797L14.8504 11.9304C14.935 11.9768 15.0266 11.9998 15.1178 11.9998C15.2361 11.9998 15.354 11.9611 15.4546 11.8847C15.6326 11.7496 15.7199 11.5254 15.6828 11.2992L15.3518 9.28574C15.3377 9.19997 15.3651 9.11252 15.4248 9.05166L16.8264 7.6256Z" fill="#FFC629"/>
<path d="M4.90689 14.655C4.84189 14.58 4.81189 14.49 4.81189 14.38C4.81189 14.23 4.86689 14.115 4.97689 14.025C5.08689 13.935 5.22689 13.89 5.40189 13.89C5.54189 13.89 5.66689 13.92 5.78189 13.975C5.89689 14.03 6.01689 14.115 6.13689 14.225C6.15189 14.245 6.16689 14.25 6.18189 14.25C6.19689 14.25 6.21689 14.24 6.24189 14.215L6.40689 14.035C6.42189 14.015 6.43189 13.995 6.43189 13.98C6.43189 13.965 6.42189 13.95 6.40689 13.93C6.27689 13.785 6.12189 13.67 5.94689 13.585C5.77189 13.505 5.58689 13.46 5.39689 13.46C5.20689 13.46 5.03189 13.5 4.87689 13.58C4.71689 13.66 4.59189 13.765 4.50189 13.905C4.41189 14.045 4.36689 14.2 4.36689 14.375C4.36689 14.565 4.41189 14.725 4.50689 14.85C4.59689 14.98 4.70689 15.08 4.83689 15.15C4.96689 15.225 5.13689 15.305 5.35689 15.395C5.52189 15.465 5.65689 15.525 5.75689 15.575C5.85689 15.625 5.93689 15.69 6.00689 15.77C6.07189 15.85 6.10689 15.945 6.10689 16.055C6.10689 16.22 6.04189 16.355 5.91189 16.465C5.78189 16.575 5.61189 16.625 5.40689 16.625C5.24689 16.625 5.10189 16.595 4.97189 16.525C4.84189 16.455 4.71689 16.36 4.59689 16.24C4.57689 16.225 4.55689 16.215 4.53689 16.215C4.51689 16.215 4.49689 16.225 4.48689 16.235L4.30189 16.425C4.28189 16.445 4.27689 16.46 4.27689 16.48C4.27689 16.495 4.28189 16.51 4.29189 16.525C4.39189 16.685 4.54689 16.815 4.74689 16.915C4.94689 17.015 5.16689 17.06 5.40689 17.06C5.61189 17.06 5.80189 17.02 5.98189 16.935C6.16189 16.85 6.30189 16.73 6.40689 16.58C6.51189 16.43 6.56689 16.265 6.56689 16.075C6.56689 15.875 6.51689 15.705 6.42189 15.57C6.32189 15.44 6.20689 15.335 6.07689 15.26C5.94189 15.185 5.76689 15.105 5.54689 15.015C5.37189 14.945 5.23689 14.89 5.14689 14.84C5.05189 14.79 4.97189 14.73 4.90689 14.655ZM8.79686 14.665C8.62186 14.555 8.42186 14.5 8.19186 14.5C7.96186 14.5 7.75186 14.56 7.57186 14.67C7.38686 14.78 7.24186 14.935 7.14186 15.125C7.03686 15.32 6.98686 15.535 6.98686 15.765C6.98686 16 7.03686 16.215 7.14686 16.405C7.25186 16.6 7.40186 16.755 7.59186 16.865C7.78186 16.98 7.99686 17.035 8.23686 17.035C8.41686 17.035 8.58186 17.005 8.74186 16.94C8.89686 16.875 9.03186 16.78 9.15186 16.66C9.17186 16.64 9.18186 16.625 9.18186 16.605C9.18186 16.59 9.16686 16.57 9.14686 16.545L9.02186 16.425C9.00186 16.415 8.98686 16.405 8.97186 16.405C8.95686 16.405 8.93686 16.415 8.91686 16.43C8.82686 16.5 8.73186 16.555 8.63186 16.59C8.53186 16.63 8.41186 16.645 8.28186 16.645C8.04186 16.645 7.84686 16.585 7.69686 16.455C7.54686 16.325 7.45686 16.155 7.42686 15.94H9.19686C9.25686 15.94 9.29686 15.92 9.31686 15.88C9.33686 15.84 9.34686 15.775 9.34686 15.68C9.34686 15.47 9.29686 15.275 9.20186 15.095C9.10686 14.915 8.97186 14.775 8.79686 14.665ZM7.67186 15.095C7.81186 14.965 7.98686 14.895 8.19686 14.895C8.40186 14.895 8.57686 14.965 8.71686 15.1C8.85686 15.235 8.93186 15.405 8.95186 15.615H7.42186C7.44686 15.405 7.53186 15.23 7.67186 15.095ZM11.9458 16.55C11.9458 16.53 11.9358 16.515 11.9208 16.495L11.7508 16.335C11.7308 16.315 11.7108 16.305 11.6958 16.305C11.6758 16.305 11.6608 16.315 11.6408 16.335C11.5458 16.425 11.4508 16.5 11.3558 16.55C11.2558 16.6 11.1308 16.625 10.9758 16.625C10.8208 16.625 10.6808 16.59 10.5608 16.515C10.4358 16.44 10.3408 16.335 10.2708 16.205C10.2008 16.075 10.1708 15.935 10.1708 15.775C10.1708 15.615 10.2008 15.465 10.2708 15.335C10.3408 15.205 10.4358 15.1 10.5608 15.025C10.6808 14.95 10.8208 14.91 10.9758 14.91C11.0808 14.91 11.1708 14.925 11.2508 14.955C11.3308 14.985 11.3908 15.015 11.4408 15.05C11.4908 15.085 11.5508 15.135 11.6258 15.2C11.6458 15.22 11.6658 15.225 11.6808 15.225C11.7008 15.225 11.7158 15.22 11.7358 15.2L11.9058 15.04C11.9208 15.025 11.9308 15.005 11.9308 14.985C11.9308 14.965 11.9208 14.95 11.9108 14.935C11.7908 14.8 11.6508 14.695 11.4908 14.615C11.3308 14.54 11.1608 14.5 10.9758 14.5C10.7458 14.5 10.5358 14.56 10.3458 14.67C10.1558 14.785 10.0108 14.94 9.90076 15.135C9.79076 15.33 9.74076 15.545 9.74076 15.775C9.74076 15.985 9.78076 16.175 9.87076 16.35C9.96076 16.53 10.0808 16.675 10.2408 16.795C10.3958 16.915 10.5708 16.99 10.7708 17.02V17.025V17.475C10.7708 17.5 10.7758 17.52 10.7908 17.53C10.8008 17.545 10.8208 17.55 10.8458 17.55H11.0958C11.1158 17.55 11.1358 17.545 11.1508 17.53C11.1608 17.52 11.1708 17.5 11.1708 17.475V17.025V17.02C11.3208 17 11.4558 16.95 11.5858 16.88C11.7158 16.81 11.8258 16.715 11.9258 16.6C11.9358 16.59 11.9458 16.57 11.9458 16.55ZM12.4884 13.92C12.5384 13.97 12.6034 13.995 12.6834 13.995C12.7584 13.995 12.8234 13.97 12.8734 13.92C12.9234 13.87 12.9534 13.805 12.9534 13.725C12.9534 13.65 12.9234 13.585 12.8734 13.53C12.8234 13.48 12.7584 13.45 12.6834 13.45C12.6034 13.45 12.5384 13.48 12.4884 13.53C12.4384 13.585 12.4134 13.65 12.4134 13.725C12.4134 13.805 12.4384 13.87 12.4884 13.92ZM12.4784 14.57C12.4634 14.585 12.4584 14.605 12.4584 14.625V16.925C12.4584 16.95 12.4634 16.97 12.4784 16.98C12.4884 16.995 12.5084 17 12.5334 17H12.8334C12.8534 17 12.8734 16.995 12.8884 16.98C12.8984 16.97 12.9084 16.95 12.9084 16.925V14.625C12.9084 14.605 12.8984 14.585 12.8884 14.57C12.8734 14.56 12.8534 14.55 12.8334 14.55H12.5334C12.5084 14.55 12.4884 14.56 12.4784 14.57ZM13.5662 13.37C13.5512 13.385 13.5462 13.405 13.5462 13.425V16.925C13.5462 16.95 13.5512 16.97 13.5662 16.98C13.5762 16.995 13.5962 17 13.6212 17H13.9212C13.9412 17 13.9612 16.995 13.9762 16.98C13.9862 16.97 13.9962 16.95 13.9962 16.925V13.425C13.9962 13.405 13.9862 13.385 13.9762 13.37C13.9612 13.36 13.9412 13.35 13.9212 13.35H13.6212C13.5962 13.35 13.5762 13.36 13.5662 13.37ZM18.1319 14.75C17.9719 14.58 17.7619 14.495 17.4919 14.495C17.2919 14.495 17.1169 14.54 16.9669 14.63C16.8169 14.72 16.6919 14.835 16.6019 14.98C16.5319 14.825 16.4319 14.705 16.2969 14.62C16.1619 14.54 16.0069 14.495 15.8269 14.495C15.6519 14.495 15.4969 14.54 15.3569 14.625C15.2169 14.71 15.1019 14.82 15.0119 14.96L14.9919 14.625C14.9819 14.575 14.9569 14.55 14.9169 14.55H14.6369C14.6119 14.55 14.5919 14.56 14.5819 14.57C14.5669 14.585 14.5619 14.605 14.5619 14.625V16.925C14.5619 16.95 14.5669 16.97 14.5819 16.98C14.5919 16.995 14.6119 17 14.6369 17H14.9369C14.9569 17 14.9769 16.995 14.9919 16.98C15.0019 16.97 15.0119 16.95 15.0119 16.925V15.455C15.0119 15.415 15.0369 15.345 15.0969 15.255C15.1569 15.165 15.2369 15.08 15.3419 15.01C15.4469 14.94 15.5669 14.9 15.7069 14.9C15.8669 14.9 15.9969 14.955 16.0969 15.065C16.1919 15.175 16.2419 15.33 16.2419 15.535V16.925C16.2419 16.95 16.2469 16.97 16.2619 16.98C16.2719 16.995 16.2919 17 16.3169 17H16.6169C16.6369 17 16.6569 16.995 16.6719 16.98C16.6819 16.97 16.6919 16.95 16.6919 16.925V15.51C16.6919 15.43 16.7169 15.345 16.7669 15.25C16.8169 15.155 16.8969 15.075 17.0019 15.005C17.1069 14.935 17.2369 14.9 17.3869 14.9C17.5469 14.9 17.6769 14.955 17.7769 15.065C17.8719 15.175 17.9219 15.33 17.9219 15.535V16.925C17.9219 16.95 17.9269 16.97 17.9419 16.98C17.9519 16.995 17.9719 17 17.9969 17H18.2969C18.3169 17 18.3369 16.995 18.3519 16.98C18.3619 16.97 18.3719 16.95 18.3719 16.925V15.485C18.3719 15.165 18.2919 14.92 18.1319 14.75ZM19.0167 13.92C19.0667 13.97 19.1317 13.995 19.2117 13.995C19.2867 13.995 19.3517 13.97 19.4017 13.92C19.4517 13.87 19.4817 13.805 19.4817 13.725C19.4817 13.65 19.4517 13.585 19.4017 13.53C19.3517 13.48 19.2867 13.45 19.2117 13.45C19.1317 13.45 19.0667 13.48 19.0167 13.53C18.9667 13.585 18.9417 13.65 18.9417 13.725C18.9417 13.805 18.9667 13.87 19.0167 13.92ZM19.0067 14.57C18.9917 14.585 18.9867 14.605 18.9867 14.625V16.925C18.9867 16.95 18.9917 16.97 19.0067 16.98C19.0167 16.995 19.0367 17 19.0617 17H19.3617C19.3817 17 19.4017 16.995 19.4167 16.98C19.4267 16.97 19.4367 16.95 19.4367 16.925V14.625C19.4367 14.605 19.4267 14.585 19.4167 14.57C19.4017 14.56 19.3817 14.55 19.3617 14.55H19.0617C19.0367 14.55 19.0167 14.56 19.0067 14.57ZM21.5503 16.805C21.6803 16.68 21.7503 16.525 21.7503 16.345C21.7503 16.195 21.7103 16.07 21.6353 15.97C21.5603 15.87 21.4703 15.795 21.3653 15.745C21.2603 15.695 21.1253 15.64 20.9653 15.585C20.7853 15.525 20.6553 15.47 20.5703 15.415C20.4853 15.36 20.4453 15.285 20.4453 15.185C20.4453 15.08 20.4803 15 20.5603 14.95C20.6403 14.9 20.7303 14.87 20.8303 14.87C20.9303 14.87 21.0253 14.89 21.1053 14.93C21.1853 14.97 21.2803 15.03 21.3903 15.11C21.4103 15.13 21.4303 15.14 21.4553 15.14C21.4703 15.14 21.4853 15.135 21.5003 15.115L21.6103 14.97C21.6253 14.95 21.6353 14.93 21.6353 14.91C21.6353 14.895 21.6253 14.88 21.6153 14.865C21.5153 14.75 21.3903 14.66 21.2453 14.595C21.1003 14.53 20.9553 14.495 20.8153 14.495C20.6653 14.495 20.5303 14.525 20.4103 14.585C20.2853 14.645 20.1853 14.725 20.1153 14.83C20.0453 14.935 20.0103 15.055 20.0103 15.185C20.0103 15.325 20.0453 15.445 20.1153 15.535C20.1853 15.625 20.2753 15.695 20.3753 15.745C20.4753 15.795 20.6053 15.85 20.7653 15.905C20.8953 15.955 20.9953 15.995 21.0653 16.025C21.1353 16.06 21.1903 16.105 21.2403 16.155C21.2903 16.205 21.3153 16.27 21.3153 16.34C21.3153 16.445 21.2703 16.525 21.1903 16.58C21.1103 16.635 21.0003 16.66 20.8703 16.66C20.6503 16.66 20.4303 16.565 20.2003 16.375C20.1753 16.355 20.1553 16.345 20.1403 16.345C20.1203 16.345 20.1053 16.355 20.0953 16.37L19.9653 16.545C19.9503 16.56 19.9453 16.575 19.9453 16.595C19.9453 16.615 19.9503 16.63 19.9653 16.64C20.0403 16.73 20.1403 16.81 20.2603 16.88C20.3803 16.95 20.5103 17 20.6553 17.03V17.475C20.6553 17.5 20.6603 17.52 20.6753 17.53C20.6853 17.545 20.7053 17.55 20.7303 17.55H20.9803C21.0003 17.55 21.0203 17.545 21.0353 17.53C21.0453 17.52 21.0553 17.5 21.0553 17.475V17.035C21.2503 17.005 21.4153 16.93 21.5503 16.805Z" fill="white"/>
<path d="M10.2057 18.824C10.1877 18.812 10.1637 18.8 10.1397 18.8H9.76171C9.73171 18.8 9.70771 18.812 9.69571 18.824C9.67771 18.842 9.67171 18.866 9.67171 18.89V21.374C9.67171 21.758 9.58171 22.052 9.40771 22.25C9.22771 22.448 8.99371 22.544 8.69971 22.544C8.40571 22.544 8.17171 22.448 7.99771 22.25C7.81771 22.052 7.73371 21.758 7.73371 21.374V18.89C7.73371 18.866 7.72171 18.842 7.70971 18.824C7.69171 18.812 7.66771 18.8 7.64371 18.8H7.26571C7.23571 18.8 7.21171 18.812 7.19971 18.824C7.18171 18.842 7.17571 18.866 7.17571 18.89V21.374C7.17571 21.74 7.23571 22.052 7.36771 22.304C7.49971 22.562 7.67971 22.754 7.90771 22.886C8.13571 23.018 8.39971 23.078 8.69971 23.078C8.99971 23.078 9.26371 23.018 9.49171 22.886C9.71971 22.754 9.89971 22.562 10.0317 22.304C10.1637 22.052 10.2297 21.74 10.2297 21.374V18.89C10.2297 18.866 10.2177 18.842 10.2057 18.824ZM7.91971 18.02C7.97971 18.08 8.04571 18.104 8.12971 18.104C8.20771 18.104 8.27971 18.08 8.33971 18.02C8.39971 17.96 8.42971 17.888 8.42971 17.804C8.42971 17.726 8.39971 17.66 8.33971 17.6C8.27971 17.54 8.20771 17.51 8.12971 17.51C8.04571 17.51 7.97971 17.54 7.91971 17.6C7.85971 17.66 7.82971 17.726 7.82971 17.804C7.82971 17.888 7.85971 17.96 7.91971 18.02ZM9.07171 18.02C9.13171 18.08 9.19771 18.104 9.28171 18.104C9.35971 18.104 9.43171 18.08 9.49171 18.02C9.55171 17.96 9.58171 17.888 9.58171 17.804C9.58171 17.726 9.55171 17.66 9.49171 17.6C9.43171 17.54 9.35971 17.51 9.28171 17.51C9.19771 17.51 9.13171 17.54 9.07171 17.6C9.01171 17.66 8.98171 17.726 8.98171 17.804C8.98171 17.888 9.01171 17.96 9.07171 18.02ZM12.6456 20.156C12.6456 20.132 12.6336 20.114 12.6096 20.102C12.5136 20.03 12.3936 19.994 12.2496 19.994C11.9436 19.994 11.6976 20.138 11.5176 20.42L11.4936 20.15C11.4816 20.09 11.4516 20.06 11.4036 20.06H11.0736C11.0436 20.06 11.0196 20.072 11.0076 20.084C10.9896 20.102 10.9836 20.126 10.9836 20.15V22.91C10.9836 22.94 10.9896 22.964 11.0076 22.976C11.0196 22.994 11.0436 23 11.0736 23H11.4336C11.4576 23 11.4816 22.994 11.4996 22.976C11.5116 22.964 11.5236 22.94 11.5236 22.91V21.14C11.5236 20.954 11.5836 20.798 11.7036 20.672C11.8236 20.552 11.9796 20.486 12.1656 20.486C12.2196 20.486 12.2736 20.498 12.3336 20.51C12.3876 20.522 12.4236 20.528 12.4416 20.528C12.4716 20.528 12.4956 20.51 12.5136 20.474L12.6336 20.204C12.6396 20.192 12.6456 20.18 12.6456 20.156ZM15.554 20.084C15.536 20.072 15.512 20.06 15.488 20.06H15.128C15.098 20.06 15.074 20.072 15.062 20.084C15.044 20.102 15.038 20.126 15.038 20.15V21.908C15.038 21.98 15.002 22.076 14.936 22.184C14.864 22.292 14.768 22.388 14.648 22.472C14.522 22.556 14.378 22.592 14.222 22.592C14.018 22.592 13.856 22.526 13.736 22.394C13.616 22.262 13.562 22.07 13.562 21.818V20.15C13.562 20.126 13.55 20.102 13.538 20.084C13.52 20.072 13.496 20.06 13.472 20.06H13.112C13.082 20.06 13.058 20.072 13.046 20.084C13.028 20.102 13.022 20.126 13.022 20.15V21.878C13.022 22.268 13.118 22.568 13.31 22.772C13.502 22.976 13.772 23.078 14.114 23.078C14.306 23.078 14.486 23.03 14.642 22.934C14.798 22.838 14.93 22.712 15.038 22.55L15.062 22.91C15.068 22.97 15.098 23 15.152 23H15.488C15.512 23 15.536 22.994 15.554 22.976C15.566 22.964 15.578 22.94 15.578 22.91V20.15C15.578 20.126 15.566 20.102 15.554 20.084ZM13.52 19.28C13.58 19.34 13.646 19.364 13.73 19.364C13.808 19.364 13.88 19.34 13.94 19.28C14 19.22 14.03 19.148 14.03 19.064C14.03 18.986 14 18.92 13.94 18.86C13.88 18.8 13.808 18.77 13.73 18.77C13.646 18.77 13.58 18.8 13.52 18.86C13.46 18.92 13.43 18.986 13.43 19.064C13.43 19.148 13.46 19.22 13.52 19.28ZM14.672 19.28C14.732 19.34 14.798 19.364 14.882 19.364C14.96 19.364 15.032 19.34 15.092 19.28C15.152 19.22 15.182 19.148 15.182 19.064C15.182 18.986 15.152 18.92 15.092 18.86C15.032 18.8 14.96 18.77 14.882 18.77C14.798 18.77 14.732 18.8 14.672 18.86C14.612 18.92 14.582 18.986 14.582 19.064C14.582 19.148 14.612 19.22 14.672 19.28ZM18.5779 20.3C18.3859 20.096 18.1339 19.994 17.8219 19.994C17.6119 19.994 17.4259 20.048 17.2579 20.15C17.0899 20.252 16.9519 20.384 16.8439 20.552L16.8199 20.15C16.8079 20.09 16.7779 20.06 16.7299 20.06H16.3939C16.3639 20.06 16.3399 20.072 16.3279 20.084C16.3099 20.102 16.3039 20.126 16.3039 20.15V22.91C16.3039 22.94 16.3099 22.964 16.3279 22.976C16.3399 22.994 16.3639 23 16.3939 23H16.7539C16.7779 23 16.8019 22.994 16.8199 22.976C16.8319 22.964 16.8439 22.94 16.8439 22.91V21.146C16.8439 21.098 16.8739 21.014 16.9459 20.906C17.0179 20.798 17.1139 20.696 17.2399 20.612C17.3659 20.528 17.5099 20.48 17.6779 20.48C17.8699 20.48 18.0259 20.546 18.1459 20.678C18.2599 20.81 18.3199 20.996 18.3199 21.242V22.91C18.3199 22.94 18.3259 22.964 18.3439 22.976C18.3559 22.994 18.3799 23 18.4099 23H18.7699C18.7939 23 18.8179 22.994 18.8359 22.976C18.8479 22.964 18.8599 22.94 18.8599 22.91V21.182C18.8599 20.798 18.7639 20.504 18.5779 20.3Z" fill="white"/>
</svg>
