<svg width="26" height="38" viewBox="0 0 26 38" fill="none" xmlns="http://www.w3.org/2000/svg">
<path d="M21.6336 23.9221L25.8677 34.8812L21.4351 33.2435C20.9224 33.0518 20.3766 33.348 20.1781 33.8881L18.7723 38L14.7532 27.2673C14.1743 27.3544 13.5789 27.3893 12.9835 27.3893C12.6031 27.3893 12.2226 27.3718 11.8588 27.337L9.21247 37.3031L7.09542 33.4003C6.81425 32.895 6.16921 32.6859 5.62341 32.9124L0.959288 35.0903L4.11832 23.6956C1.58779 21.204 0 17.6323 0 13.6946C0 6.13297 5.82188 0 13 0C20.1781 0 26 6.13297 26 13.6946C25.9835 17.7717 24.313 21.4305 21.6336 23.9221Z" fill="#344C98" fill-opacity="0.85"/>
</svg>
