<svg width="221" height="44" viewBox="0 0 221 44" fill="none" xmlns="http://www.w3.org/2000/svg">
<g clip-path="url(#clip0)">
<path d="M93.9758 15.9782C94.9445 16.5486 95.9755 17.0094 97.0493 17.352C98.2429 17.7676 99.4029 18.2715 100.519 18.8595C101.437 19.3699 102.224 20.0792 102.822 20.9336C103.508 21.9646 103.848 23.182 103.794 24.4136C103.818 25.6901 103.42 26.9398 102.659 27.9738C101.897 28.9932 100.877 29.797 99.6993 30.3045C98.4841 30.8429 97.1655 31.1182 95.8329 31.1117C94.2552 31.1224 92.6961 30.7748 91.277 30.096C90.0141 29.5327 88.9131 28.6694 88.0731 27.5835C88.0096 27.4879 87.9739 27.377 87.9699 27.2628C87.9887 27.1307 88.0452 27.0065 88.1328 26.9047L90.0714 24.7985C90.1136 24.7416 90.1682 24.6949 90.2311 24.6616C90.2941 24.6283 90.3639 24.6093 90.4353 24.606C90.5692 24.6256 90.6951 24.6811 90.7991 24.7664C91.5559 25.4283 92.402 25.9842 93.3133 26.4182C94.1438 26.7868 95.047 26.9693 95.9578 26.9528C96.8403 26.985 97.7089 26.7295 98.4286 26.2258C98.74 26.0087 98.9924 25.7198 99.1638 25.3842C99.3352 25.0487 99.4202 24.6768 99.4115 24.3013C99.4216 23.7844 99.2268 23.284 98.8684 22.9061C98.49 22.5035 98.0388 22.1737 97.538 21.9332C96.995 21.6766 96.2565 21.3505 95.2682 20.9656C94.1087 20.5252 92.9771 20.0165 91.8797 19.4421C90.9777 18.949 90.1985 18.2642 89.599 17.4375C88.9367 16.4683 88.6039 15.3172 88.6487 14.1499C88.6113 12.9635 88.9428 11.7941 89.599 10.7982C90.2578 9.83458 91.1725 9.06727 92.2435 8.57979C93.3584 8.06057 94.5779 7.79562 95.8112 7.80467C97.1256 7.80963 98.425 8.07918 99.6297 8.59674C100.834 9.1143 101.919 9.86894 102.816 10.8143C102.867 10.8598 102.908 10.915 102.936 10.9767C102.964 11.0383 102.978 11.1049 102.979 11.1724C102.973 11.2906 102.927 11.4034 102.849 11.4932L101.008 13.6635C100.975 13.731 100.923 13.7879 100.859 13.8276C100.795 13.8673 100.72 13.8883 100.644 13.888C100.584 13.8898 100.524 13.8793 100.468 13.8572C100.412 13.8352 100.361 13.802 100.318 13.7597C99.6352 13.2053 98.8834 12.7382 98.0811 12.3698C97.3949 12.0815 96.655 11.9376 95.909 11.9475C95.1421 11.9062 94.3853 12.1355 93.7749 12.5944C93.5228 12.7913 93.3201 13.0427 93.1826 13.3292C93.0452 13.6156 92.9765 13.9294 92.9821 14.2462C92.9753 14.5935 93.0616 14.9364 93.2322 15.2404C93.4029 15.5445 93.6518 15.7989 93.9541 15.9782" fill="white"/>
<path d="M107.079 11.1564C106.637 10.7102 106.39 10.1117 106.39 9.48856C106.39 8.86543 106.637 8.26695 107.079 7.82072C107.297 7.60057 107.558 7.42564 107.847 7.3062C108.135 7.18677 108.444 7.12524 108.757 7.12524C109.07 7.12524 109.379 7.18677 109.667 7.3062C109.955 7.42564 110.216 7.60057 110.435 7.82072C110.877 8.26695 111.124 8.86543 111.124 9.48856C111.124 10.1117 110.877 10.7102 110.435 11.1564C110.216 11.3766 109.955 11.5515 109.667 11.6709C109.379 11.7903 109.07 11.8519 108.757 11.8519C108.444 11.8519 108.135 11.7903 107.847 11.6709C107.558 11.5515 107.297 11.3766 107.079 11.1564ZM106.721 14.9678C106.768 14.9236 106.825 14.8895 106.886 14.8674C106.948 14.8454 107.014 14.8359 107.079 14.8396H110.435C110.561 14.8387 110.683 14.8845 110.777 14.9678C110.822 15.016 110.856 15.0725 110.879 15.134C110.901 15.1955 110.911 15.2608 110.907 15.326V30.2404C110.912 30.3055 110.903 30.3708 110.88 30.432C110.856 30.4932 110.82 30.5488 110.773 30.5949C110.726 30.6411 110.67 30.6768 110.608 30.6995C110.546 30.7223 110.479 30.7316 110.413 30.7268H107.057C106.991 30.7307 106.925 30.7208 106.864 30.6977C106.802 30.6747 106.746 30.639 106.699 30.593C106.652 30.547 106.616 30.4918 106.593 30.431C106.569 30.3702 106.559 30.3053 106.563 30.2404V15.3474C106.559 15.2817 106.569 15.2158 106.592 15.1541C106.616 15.0924 106.652 15.0362 106.699 14.9892" fill="white"/>
<path d="M127.144 15.636C128.329 16.3732 129.292 17.4085 129.935 18.6349C130.622 19.9272 130.973 21.3672 130.956 22.8259C130.97 24.2535 130.619 25.6617 129.935 26.9207C129.287 28.1296 128.324 29.1464 127.144 29.8661C125.935 30.5882 124.544 30.9589 123.131 30.9352C122.274 30.9625 121.421 30.806 120.631 30.4764C119.842 30.1469 119.134 29.6523 118.558 29.0268V36.3878C118.563 36.4531 118.553 36.5185 118.531 36.5801C118.508 36.6417 118.473 36.6981 118.428 36.746C118.329 36.8345 118.198 36.8807 118.064 36.8743H114.708C114.643 36.8779 114.577 36.8684 114.516 36.8464C114.454 36.8243 114.398 36.7902 114.35 36.746C114.303 36.6991 114.266 36.643 114.243 36.5812C114.22 36.5195 114.21 36.4536 114.214 36.3878V15.3473C114.21 15.2816 114.22 15.2158 114.244 15.1541C114.267 15.0924 114.303 15.0362 114.35 14.9892C114.398 14.945 114.454 14.9108 114.516 14.8888C114.577 14.8667 114.643 14.8572 114.708 14.8609H117.57C117.858 14.8609 118.021 15.0213 118.064 15.3473L118.227 16.951C118.78 16.1861 119.514 15.5653 120.366 15.1425C121.217 14.7196 122.161 14.5074 123.114 14.5241C124.531 14.5038 125.924 14.8841 127.127 15.62L127.144 15.636ZM125.58 25.8355C125.973 25.4285 126.28 24.9485 126.483 24.4236C126.687 23.8987 126.782 23.3393 126.764 22.7778C126.805 21.6174 126.38 20.4878 125.58 19.6345C125.203 19.2355 124.744 18.9197 124.234 18.7077C123.724 18.4958 123.174 18.3927 122.62 18.4051C122.063 18.3889 121.509 18.4935 120.998 18.7116C120.486 18.9296 120.03 19.2556 119.661 19.6666C118.887 20.5209 118.476 21.6341 118.51 22.7778C118.468 23.9067 118.882 25.0059 119.661 25.8355C120.037 26.2349 120.496 26.55 121.006 26.7594C121.517 26.9688 122.067 27.0675 122.62 27.049C123.172 27.0631 123.722 26.9623 124.232 26.7532C124.741 26.544 125.201 26.2314 125.58 25.8355Z" fill="white"/>
<path d="M149.473 14.9678C149.518 15.016 149.552 15.0725 149.575 15.134C149.597 15.1955 149.607 15.2607 149.603 15.326V30.2403C149.608 30.3054 149.599 30.3708 149.576 30.432C149.552 30.4932 149.516 30.5487 149.469 30.5949C149.422 30.6411 149.366 30.6767 149.304 30.6995C149.242 30.7222 149.175 30.7315 149.109 30.7268H146.215C145.932 30.7268 145.764 30.561 145.721 30.2403L145.531 28.7168C144.983 29.4061 144.286 29.9653 143.489 30.3526C142.619 30.7655 141.663 30.9706 140.698 30.9513C139.284 30.9764 137.892 30.6056 136.685 29.8821C135.503 29.1628 134.537 28.146 133.888 26.9367C133.204 25.6778 132.853 24.2696 132.867 22.8419C132.85 21.3833 133.201 19.9432 133.888 18.6509C134.533 17.4242 135.498 16.3889 136.685 15.652C137.888 14.9151 139.281 14.5346 140.698 14.5562C141.649 14.5349 142.59 14.7418 143.442 15.159C144.293 15.5763 145.029 16.1913 145.585 16.951L145.748 15.3473C145.791 15.0213 145.96 14.8609 146.242 14.8609H149.136C149.27 14.8545 149.401 14.9006 149.5 14.9892L149.473 14.9678ZM144.173 25.8515C144.949 25.0201 145.362 23.9222 145.324 22.7938C145.356 21.6466 144.935 20.5319 144.151 19.6827C143.771 19.287 143.314 18.9712 142.806 18.7544C142.299 18.5376 141.752 18.4243 141.199 18.4213C140.646 18.4183 140.098 18.5257 139.588 18.737C139.078 18.9482 138.617 19.259 138.232 19.6506C137.441 20.5081 137.022 21.6362 137.065 22.7938C137.028 23.925 137.447 25.0245 138.232 25.8515C138.622 26.2359 139.085 26.5408 139.595 26.7489C140.105 26.9569 140.651 27.064 141.203 27.064C141.754 27.064 142.301 26.9569 142.81 26.7489C143.32 26.5408 143.783 26.2359 144.173 25.8515Z" fill="white"/>
<path d="M163.45 15.636C163.44 15.7257 163.418 15.8138 163.385 15.8979L162.435 18.2927C162.405 18.3981 162.34 18.4904 162.25 18.5553C162.161 18.6202 162.052 18.6538 161.941 18.6509C161.851 18.6532 161.761 18.6424 161.675 18.6188C161.24 18.4761 160.786 18.3986 160.328 18.389C159.878 18.3695 159.428 18.4464 159.011 18.6144C158.594 18.7823 158.219 19.0374 157.911 19.3619C157.298 20.0357 156.973 20.9167 157.005 21.8209V30.2403C157.008 30.3047 156.999 30.3692 156.976 30.4299C156.954 30.4905 156.919 30.546 156.874 30.5931C156.828 30.639 156.771 30.6747 156.71 30.6978C156.648 30.7208 156.582 30.7307 156.516 30.7267H153.133C153.066 30.7307 152.999 30.7209 152.936 30.6979C152.874 30.6749 152.817 30.6392 152.769 30.5931C152.724 30.546 152.689 30.4905 152.667 30.4299C152.645 30.3692 152.635 30.3047 152.639 30.2403V15.3473C152.632 15.2818 152.64 15.2156 152.662 15.1535C152.685 15.0914 152.721 15.0351 152.768 14.9885C152.816 14.9419 152.873 14.9063 152.936 14.8842C152.999 14.8621 153.066 14.8542 153.133 14.8608H156.32C156.608 14.8608 156.771 15.0212 156.814 15.3473L156.945 17.0632C157.933 15.3562 159.303 14.5027 161.056 14.5027C161.465 14.5029 161.872 14.5753 162.256 14.7165C162.602 14.8315 162.921 15.0132 163.195 15.2511C163.259 15.2953 163.312 15.3526 163.352 15.419C163.391 15.4854 163.415 15.5594 163.423 15.636" fill="white"/>
<path d="M165.747 11.1564C165.305 10.7102 165.058 10.1117 165.058 9.48856C165.058 8.86543 165.305 8.26695 165.747 7.82072C165.966 7.60057 166.227 7.42564 166.515 7.3062C166.803 7.18677 167.113 7.12524 167.425 7.12524C167.738 7.12524 168.047 7.18677 168.335 7.3062C168.624 7.42564 168.885 7.60057 169.103 7.82072C169.545 8.26695 169.792 8.86543 169.792 9.48856C169.792 10.1117 169.545 10.7102 169.103 11.1564C168.885 11.3766 168.624 11.5515 168.335 11.6709C168.047 11.7903 167.738 11.8519 167.425 11.8519C167.113 11.8519 166.803 11.7903 166.515 11.6709C166.227 11.5515 165.966 11.3766 165.747 11.1564ZM165.389 14.9678C165.437 14.9236 165.493 14.8895 165.555 14.8674C165.616 14.8454 165.682 14.8359 165.747 14.8396H169.103C169.17 14.8329 169.237 14.8408 169.3 14.8629C169.363 14.885 169.42 14.9206 169.468 14.9672C169.515 15.0138 169.551 15.0702 169.574 15.1322C169.596 15.1943 169.604 15.2605 169.597 15.326V30.2404C169.601 30.3048 169.591 30.3693 169.569 30.4299C169.547 30.4906 169.512 30.5461 169.467 30.5932C169.419 30.6393 169.362 30.675 169.299 30.698C169.237 30.721 169.17 30.7308 169.103 30.7268H165.747C165.681 30.7308 165.615 30.7209 165.553 30.6978C165.492 30.6748 165.436 30.6391 165.389 30.5932C165.344 30.5461 165.309 30.4906 165.287 30.4299C165.264 30.3693 165.255 30.3048 165.259 30.2404V15.3474C165.255 15.2822 165.265 15.2169 165.287 15.1554C165.309 15.0939 165.344 15.0374 165.389 14.9892" fill="white"/>
<path d="M183.358 29.2031C182.466 30.0354 181.357 30.6073 180.154 30.8549V33.8004C180.16 33.9321 180.113 34.0609 180.023 34.1586C179.974 34.2027 179.917 34.2367 179.855 34.2587C179.792 34.2808 179.726 34.2903 179.66 34.2869H177.227C177.161 34.2903 177.094 34.2808 177.032 34.2587C176.969 34.2367 176.912 34.2027 176.863 34.1586C176.773 34.0609 176.726 33.9321 176.733 33.8004V30.8549C175.847 30.673 174.998 30.3498 174.218 29.8981C173.517 29.5044 172.89 28.9965 172.361 28.396C172.319 28.3587 172.286 28.3134 172.262 28.2628C172.239 28.2122 172.227 28.1575 172.226 28.1019C172.233 27.9718 172.28 27.847 172.361 27.7438L173.643 25.9637C173.676 25.9164 173.719 25.8772 173.77 25.8494C173.821 25.8216 173.878 25.8058 173.936 25.8033C174.098 25.8159 174.249 25.884 174.365 25.9958C175.878 26.9687 177.216 27.4551 178.378 27.4551C178.88 27.4722 179.378 27.3598 179.822 27.129C180.008 27.0359 180.163 26.8921 180.268 26.7149C180.373 26.5376 180.424 26.3344 180.414 26.1294C180.411 25.9078 180.347 25.6911 180.229 25.5027C180.11 25.3143 179.941 25.1614 179.741 25.0603C179.051 24.6891 178.323 24.3899 177.569 24.1675C176.706 23.8927 175.863 23.5569 175.049 23.1626C174.381 22.8232 173.801 22.3366 173.355 21.7406C172.864 21.0335 172.626 20.1848 172.682 19.3297C172.665 18.4185 172.935 17.5245 173.453 16.7692C173.967 16.0372 174.672 15.4555 175.495 15.0853C176.356 14.6946 177.294 14.4957 178.242 14.5026C179.306 14.502 180.358 14.7186 181.332 15.1387C182.283 15.5291 183.127 16.1333 183.797 16.9028C183.838 16.9397 183.87 16.9844 183.893 17.034C183.915 17.0836 183.927 17.1372 183.928 17.1915C183.929 17.264 183.915 17.336 183.887 17.4031C183.859 17.4702 183.817 17.5309 183.765 17.5817L182.516 19.1854C182.482 19.2328 182.437 19.272 182.385 19.2998C182.334 19.3276 182.276 19.3433 182.217 19.3458C182.06 19.3252 181.912 19.2581 181.794 19.1533C181.251 18.7883 180.679 18.4683 180.083 18.1965C179.624 18.009 179.131 17.9145 178.633 17.9185C178.176 17.8998 177.725 18.0314 177.352 18.2927C177.185 18.4183 177.053 18.5829 176.967 18.7716C176.881 18.9604 176.845 19.1672 176.861 19.3733C176.877 19.5794 176.946 19.7782 177.06 19.9517C177.174 20.1252 177.33 20.2679 177.515 20.3668C178.186 20.7041 178.892 20.9694 179.622 21.1579C180.503 21.418 181.365 21.7377 182.201 22.1148C182.896 22.4484 183.496 22.9483 183.944 23.5688C184.467 24.3437 184.718 25.2652 184.661 26.1935C184.671 26.7572 184.56 27.3167 184.336 27.8354C184.111 28.354 183.778 28.8201 183.358 29.2031Z" fill="white"/>
<path d="M187.751 11.1564C187.309 10.7102 187.062 10.1117 187.062 9.48856C187.062 8.86543 187.309 8.26695 187.751 7.82072C187.969 7.60057 188.23 7.42564 188.518 7.3062C188.806 7.18677 189.116 7.12524 189.429 7.12524C189.741 7.12524 190.051 7.18677 190.339 7.3062C190.627 7.42564 190.888 7.60057 191.107 7.82072C191.548 8.26695 191.796 8.86543 191.796 9.48856C191.796 10.1117 191.548 10.7102 191.107 11.1564C190.888 11.3766 190.627 11.5515 190.339 11.6709C190.051 11.7903 189.741 11.8519 189.429 11.8519C189.116 11.8519 188.806 11.7903 188.518 11.6709C188.23 11.5515 187.969 11.3766 187.751 11.1564ZM187.387 14.9678C187.436 14.9237 187.493 14.8897 187.556 14.8677C187.618 14.8456 187.684 14.8361 187.751 14.8396H191.107C191.172 14.8359 191.238 14.8454 191.299 14.8674C191.361 14.8895 191.417 14.9236 191.465 14.9678C191.51 15.016 191.544 15.0725 191.567 15.134C191.589 15.1955 191.599 15.2608 191.595 15.326V30.2404C191.599 30.3048 191.589 30.3693 191.567 30.4299C191.545 30.4906 191.51 30.5461 191.465 30.5932C191.418 30.6391 191.362 30.6748 191.3 30.6978C191.239 30.7209 191.173 30.7308 191.107 30.7268H187.751C187.684 30.7308 187.617 30.721 187.554 30.698C187.492 30.675 187.435 30.6393 187.387 30.5932C187.342 30.5461 187.307 30.4906 187.285 30.4299C187.262 30.3693 187.253 30.3048 187.257 30.2404V15.3474C187.253 15.2822 187.263 15.2169 187.285 15.1554C187.307 15.0939 187.342 15.0374 187.387 14.9892" fill="white"/>
<path d="M219.338 16.2883C220.453 17.475 221.011 19.1143 221.011 21.2063V30.2404C221.014 30.3052 221.003 30.3698 220.98 30.4305C220.956 30.4911 220.921 30.5465 220.875 30.5932C220.828 30.6392 220.772 30.6749 220.71 30.6979C220.649 30.7209 220.583 30.7308 220.517 30.7269H217.161C217.095 30.7316 217.028 30.7223 216.966 30.6996C216.904 30.6768 216.847 30.6412 216.801 30.595C216.754 30.5488 216.717 30.4933 216.694 30.4321C216.671 30.3709 216.662 30.3055 216.667 30.2404V21.9814C216.667 20.7519 216.382 19.861 215.814 19.3086C215.535 19.0318 215.201 18.8141 214.833 18.6689C214.465 18.5236 214.071 18.4539 213.675 18.464C213.043 18.448 212.419 18.5987 211.867 18.9005C211.316 19.2023 210.856 19.644 210.536 20.1799C210.281 20.5799 210.139 21.0392 210.123 21.511V30.2404C210.127 30.3048 210.117 30.3694 210.095 30.43C210.072 30.4907 210.038 30.5462 209.993 30.5932C209.945 30.6393 209.888 30.675 209.825 30.6981C209.763 30.7211 209.696 30.7309 209.629 30.7269H206.273C206.207 30.7308 206.141 30.7209 206.079 30.6979C206.018 30.6749 205.961 30.6392 205.915 30.5932C205.87 30.5462 205.835 30.4907 205.813 30.43C205.79 30.3694 205.781 30.3048 205.784 30.2404V21.9814C205.784 20.7519 205.498 19.861 204.926 19.3086C204.647 19.0313 204.314 18.8133 203.946 18.668C203.578 18.5227 203.183 18.4533 202.787 18.464C202.099 18.4485 201.425 18.6529 200.865 19.0466C200.365 19.3971 199.95 19.8515 199.648 20.3777C199.418 20.7399 199.277 21.1499 199.236 21.5751V30.2404C199.239 30.3048 199.23 30.3694 199.207 30.43C199.185 30.4907 199.15 30.5462 199.105 30.5932C199.058 30.6392 199.002 30.6749 198.941 30.6979C198.879 30.7209 198.813 30.7308 198.747 30.7269H195.38C195.313 30.7309 195.246 30.7211 195.184 30.6981C195.121 30.675 195.064 30.6393 195.016 30.5932C194.971 30.5462 194.937 30.4907 194.914 30.43C194.892 30.3694 194.882 30.3048 194.886 30.2404V15.3474C194.879 15.2819 194.887 15.2157 194.91 15.1537C194.932 15.0916 194.968 15.0352 195.016 14.9887C195.063 14.9421 195.12 14.9065 195.183 14.8844C195.246 14.8623 195.313 14.8543 195.38 14.861H198.6C198.888 14.861 199.051 15.0214 199.094 15.3474L199.225 17.4216C199.762 16.5621 200.487 15.8316 201.348 15.2833C202.23 14.7439 203.253 14.469 204.291 14.4921C205.325 14.4757 206.342 14.7463 207.227 15.2729C208.111 15.7996 208.827 16.5609 209.292 17.4697C209.894 16.5358 210.731 15.7709 211.721 15.2492C212.712 14.7275 213.822 14.4667 214.945 14.4921C215.765 14.4594 216.581 14.6016 217.34 14.9089C218.098 15.2161 218.78 15.6812 219.338 16.2722" fill="white"/>
<path d="M41.1938 10.2906C39.62 7.84038 37.5719 5.71887 35.1662 4.04686C32.729 2.39109 29.9886 1.21651 27.0969 0.58823C22.2645 -0.531557 17.1912 -0.0388936 12.6742 1.98879C10.1318 3.08439 7.82451 4.64639 5.87551 6.59139C3.49774 8.92854 1.69098 11.7674 0.591882 14.8932C0.591882 14.9199 0.591882 14.9466 0.564731 14.9734C0.526719 15.0856 0.494137 15.1925 0.461556 15.3048C-0.646214 18.8757 0.385533 20.8482 2.00918 19.1964L2.20466 18.9826L2.27526 18.9024C3.71286 17.2773 5.36578 15.8497 7.18963 14.658C7.96072 14.1519 8.76078 13.6672 9.5898 13.204C10.5037 12.6673 11.463 12.2094 12.457 11.8355C12.7449 11.6769 12.9923 11.4558 13.1805 11.1891C13.3687 10.9223 13.4926 10.6169 13.543 10.2959C13.5456 10.2746 13.5456 10.2531 13.543 10.2318C13.5437 10.2193 13.5437 10.2068 13.543 10.1944C13.6951 9.23214 14.7648 6.57535 17.784 6.39895C19.0565 6.24418 20.3404 6.58015 21.3668 7.33648C22.3933 8.09281 23.0825 9.21082 23.2903 10.4563C23.4759 11.6612 23.1928 12.8906 22.4975 13.8989C22.4599 13.9569 22.4181 14.0123 22.3726 14.0646L22.3346 14.1127C21.7606 14.8474 20.9811 15.4011 20.0919 15.7057C19.5525 15.9046 18.9841 16.0165 18.4085 16.0371C18.0439 16.0711 17.676 16.0404 17.3225 15.9463C16.9152 15.8606 16.5246 15.7108 16.1658 15.5026C15.7268 15.3231 15.3126 15.0896 14.9332 14.8076C14.8116 14.6985 14.6641 14.6212 14.5042 14.5831C14.2442 14.5372 13.9762 14.5669 13.7331 14.6687C13.6458 14.7043 13.5637 14.7511 13.4887 14.8076C12.7647 15.3885 12.0768 16.0015 11.4252 16.6465C10.0217 18.1199 8.74317 19.704 7.60233 21.3828C7.24393 21.9174 6.90182 22.5054 6.58687 23.088C6.27192 23.6707 6.01127 24.1572 5.75604 24.7292C5.33537 25.6437 4.96201 26.5786 4.63741 27.5303L4.58854 27.6693C4.58854 27.7334 4.5451 27.7976 4.52881 27.8617C4.51252 27.9259 4.4908 27.99 4.46908 28.0542C2.39472 34.95 6.13073 38.9325 9.26398 34.7736C9.43775 34.5117 9.61152 34.2391 9.807 33.9878C13.0652 28.4765 19.8258 24.494 19.8258 24.494C20.2385 24.2427 20.6566 23.9968 21.0802 23.7616L21.1562 23.7188C22.3103 23.0786 23.5016 22.5056 24.7239 22.0029C25.7512 21.5296 26.8176 21.1434 27.9114 20.8482C28.2699 20.7279 28.5895 20.516 28.8375 20.2342C29.0856 19.9525 29.2532 19.6109 29.3233 19.2445C29.4829 18.5694 29.7953 17.9385 30.2372 17.3988C30.6791 16.8592 31.2392 16.4248 31.8755 16.128C32.2512 15.9403 32.6487 15.7985 33.0593 15.7057C33.4858 15.6178 33.9217 15.5819 34.3571 15.5988C34.5952 15.5916 34.833 15.6186 35.0631 15.679C36.2027 15.8938 37.2275 16.5008 37.9541 17.3913C38.6807 18.2818 39.0618 19.3978 39.0292 20.5396C38.9965 21.6814 38.5523 22.7745 37.7759 23.6234C36.9995 24.4722 35.9416 25.0215 34.7916 25.1728C34.1655 25.2648 33.5271 25.2342 32.913 25.0829C32.2989 24.9315 31.7212 24.6624 31.213 24.2908C30.8389 24.1296 30.4349 24.0464 30.0265 24.0464C29.6181 24.0464 29.2141 24.1296 28.84 24.2908C27.8327 24.8232 26.8605 25.4177 25.9294 26.0709C24.639 27.007 23.4211 28.0362 22.2857 29.15C21.114 30.3242 20.0542 31.6018 19.1199 32.9668L19.0058 33.1432L18.9678 33.202C17.8405 34.9572 16.9119 36.8287 16.1984 38.7829C16.1332 38.9593 16.0735 39.1357 16.0138 39.3174C15.1286 42.2148 17.0455 43.3694 19.2719 43.7864C20.6729 44 22.0946 44.0502 23.5075 43.9361L23.8985 43.8986C24.5284 43.8238 25.1583 43.7597 25.7882 43.6581C30.0254 43.0007 33.9826 41.1624 37.1917 38.3606C41.2047 34.9562 43.8125 30.2232 44.5225 25.0552C45.3316 19.9029 44.1707 14.6383 41.2644 10.2799" fill="#FFC629"/>
<path d="M67.3568 0H65.2824V44H67.3568V0Z" fill="white"/>
</g>
<defs>
<clipPath id="clip0">
<rect width="221" height="44" fill="white"/>
</clipPath>
</defs>
</svg>
