<svg width="205" height="51" viewBox="0 0 205 51" fill="none" xmlns="http://www.w3.org/2000/svg">
<path d="M69.9096 21.8002C70.9428 22.4137 72.0378 22.9151 73.1761 23.2961C74.4436 23.7307 75.6769 24.2609 76.8652 24.8822C77.8414 25.4412 78.6816 26.2121 79.3247 27.1389C80.0498 28.2645 80.408 29.5898 80.3495 30.9301C80.3792 32.3175 79.9562 33.6765 79.1454 34.7987C78.3382 35.9221 77.2514 36.8117 75.9942 37.3778C74.7008 37.9603 73.2992 38.2592 71.8823 38.2547C70.2054 38.2617 68.5491 37.8824 67.0402 37.1457C65.6953 36.5354 64.5238 35.5955 63.6329 34.4119C63.5562 34.3104 63.5076 34.1902 63.4919 34.0637C63.5164 33.9209 63.5783 33.7874 63.6713 33.6768L65.7336 31.3815C65.7793 31.3214 65.8372 31.2719 65.9035 31.2363C65.9698 31.2007 66.0429 31.1799 66.1179 31.1751C66.2597 31.1998 66.3924 31.2621 66.5022 31.3557C67.3105 32.0717 68.211 32.6746 69.1794 33.1481C70.0637 33.5531 71.0262 33.7557 71.9976 33.7413C72.914 33.7684 73.8141 33.4921 74.5595 32.9547C74.8922 32.7207 75.1622 32.4076 75.3455 32.0431C75.5288 31.6786 75.6196 31.2741 75.6099 30.8657C75.6203 30.3025 75.4137 29.7572 75.0335 29.344C74.6312 28.9086 74.1538 28.5503 73.6244 28.2866C73.0608 28.0029 72.2538 27.6547 71.2034 27.2292C69.9713 26.7532 68.7692 26.2019 67.6039 25.5786C66.6452 25.0372 65.8216 24.2831 65.1956 23.3735C64.488 22.3222 64.1333 21.0704 64.1837 19.8015C64.1605 18.5121 64.5219 17.2454 65.2213 16.165C65.9233 15.1164 66.8982 14.2822 68.0394 13.7536C69.2388 13.1776 70.5535 12.8865 71.8823 12.9025C73.2812 12.9073 74.6644 13.2003 75.9465 13.7636C77.2287 14.3269 78.3827 15.1486 79.3375 16.1779C79.3919 16.2268 79.4358 16.2863 79.4666 16.3528C79.4975 16.4193 79.5145 16.4914 79.5168 16.5647C79.5096 16.6933 79.46 16.8158 79.3759 16.9129L77.4161 19.2728C77.3806 19.3453 77.326 19.4065 77.2582 19.4498C77.1904 19.493 77.112 19.5165 77.0318 19.5178C76.9654 19.5207 76.8993 19.5096 76.8375 19.4852C76.7757 19.4608 76.7197 19.4235 76.6731 19.3759C75.9459 18.7795 75.1503 18.2729 74.3033 17.8672C73.5742 17.5572 72.7889 17.4035 71.9976 17.4158C71.1799 17.371 70.3726 17.6175 69.7174 18.1122C69.4532 18.3283 69.2411 18.6018 69.0969 18.9123C68.9527 19.2227 68.8802 19.562 68.8848 19.9046C68.8749 20.2834 68.9644 20.6582 69.1443 20.991C69.3242 21.3238 69.5882 21.603 69.9096 21.8002Z" fill="white"/>
<path d="M83.8468 16.5518C83.3735 16.0692 83.1082 15.4183 83.1082 14.7401C83.1082 14.0619 83.3735 13.4109 83.8468 12.9283C84.0737 12.6825 84.3496 12.4878 84.6565 12.3567C84.9633 12.2256 85.2941 12.1611 85.6273 12.1674C85.9625 12.1609 86.2953 12.2252 86.6042 12.3563C86.9132 12.4873 87.1913 12.6822 87.4207 12.9283C87.894 13.4109 88.1594 14.0619 88.1594 14.7401C88.1594 15.4183 87.894 16.0692 87.4207 16.5518C87.1892 16.7943 86.9104 16.986 86.6018 17.1147C86.2931 17.2434 85.9614 17.3064 85.6273 17.2998C85.2953 17.3062 84.9655 17.243 84.659 17.1143C84.3524 16.9855 84.0759 16.794 83.8468 16.5518ZM83.4625 20.7171C83.5139 20.6687 83.5743 20.6312 83.6404 20.6069C83.7064 20.5825 83.7766 20.5717 83.8468 20.5752H87.3695C87.4399 20.5693 87.5108 20.579 87.5771 20.6035C87.6435 20.628 87.7038 20.6667 87.7537 20.7171C87.8037 20.7674 87.8422 20.828 87.8666 20.8948C87.8909 20.9617 87.9005 21.033 87.8947 21.1039V37.3004C87.8981 37.3711 87.8874 37.4418 87.8632 37.5082C87.839 37.5747 87.8018 37.6356 87.7538 37.6873C87.6478 37.7814 87.5107 37.832 87.3695 37.8291H83.7956C83.7251 37.835 83.6543 37.8253 83.5879 37.8008C83.5215 37.7763 83.4613 37.7376 83.4113 37.6873C83.3613 37.637 83.3228 37.5763 83.2985 37.5095C83.2741 37.4427 83.2645 37.3713 83.2704 37.3004V21.1039C83.2675 20.9617 83.3178 20.8237 83.4113 20.7171" fill="white"/>
<path d="M105.175 21.4267C106.438 22.225 107.468 23.3463 108.159 24.6763C108.884 26.0863 109.253 27.6538 109.235 29.2412C109.253 30.7916 108.883 32.3216 108.159 33.6901C107.466 35.0087 106.436 36.1172 105.175 36.901C103.893 37.6928 102.413 38.0999 100.909 38.0745C99.9986 38.1047 99.0925 37.9345 98.254 37.5759C97.4155 37.2174 96.6648 36.679 96.0542 35.9984V43.9935C96.0601 44.0644 96.0505 44.1357 96.0261 44.2025C96.0018 44.2693 95.9633 44.33 95.9133 44.3803C95.8634 44.4306 95.8031 44.4694 95.7367 44.4939C95.6704 44.5184 95.5995 44.528 95.529 44.5222H91.9551C91.8139 44.525 91.6768 44.4744 91.5709 44.3803C91.5245 44.328 91.4892 44.2667 91.4672 44.2002C91.4452 44.1337 91.4369 44.0633 91.4428 43.9935V21.1043C91.4364 20.9638 91.482 20.8259 91.5709 20.7174C91.6768 20.6233 91.8139 20.5727 91.9551 20.5756H95.0551C95.3625 20.5756 95.5291 20.7561 95.5803 21.1043L95.7596 22.8709C96.3458 22.0359 97.1264 21.3583 98.0331 20.8974C98.9398 20.4365 99.9449 20.2065 100.96 20.2274C102.467 20.2046 103.949 20.6211 105.226 21.4267H105.175ZM103.586 32.5295C104.01 32.0895 104.342 31.5683 104.562 30.9968C104.782 30.4253 104.886 29.8152 104.867 29.2025C104.887 28.5762 104.784 27.952 104.564 27.3656C104.345 26.7793 104.012 26.2423 103.586 25.7853C103.182 25.3578 102.692 25.0217 102.148 24.7994C101.605 24.5771 101.021 24.4736 100.435 24.4957C99.8442 24.4757 99.2561 24.5879 98.7134 24.8242C98.1707 25.0606 97.6869 25.4153 97.2968 25.8626C96.453 26.7804 95.994 27.9909 96.0158 29.2412C95.9883 30.4772 96.449 31.6737 97.2968 32.5682C97.6983 32.996 98.1861 33.3324 98.7274 33.5548C99.2686 33.7773 99.8509 33.8805 100.435 33.8577C101.021 33.8766 101.604 33.7716 102.147 33.5495C102.689 33.3273 103.18 32.9931 103.586 32.5682" fill="white"/>
<path d="M128.924 20.7173C129.017 20.824 129.068 20.962 129.065 21.1042V37.3007C129.071 37.3716 129.061 37.443 129.037 37.5098C129.012 37.5766 128.974 37.6373 128.924 37.6876C128.874 37.7379 128.814 37.7766 128.747 37.8011C128.681 37.8256 128.61 37.8353 128.54 37.8294H125.465C125.158 37.8294 124.991 37.6489 124.94 37.3007L124.735 35.6501C124.149 36.398 123.405 37.0057 122.557 37.4297C121.63 37.8732 120.612 38.0939 119.586 38.0744C118.082 38.0963 116.603 37.6895 115.32 36.901C114.066 36.113 113.04 35.0052 112.348 33.69C111.624 32.3215 111.254 30.7915 111.272 29.2412C111.254 27.6538 111.624 26.0862 112.348 24.6762C113.039 23.3496 114.064 22.229 115.32 21.4266C116.598 20.6238 118.079 20.2075 119.586 20.2273C120.583 20.2117 121.569 20.4379 122.46 20.8868C123.352 21.3357 124.124 21.9941 124.709 22.8064L124.889 21.0784C124.889 20.7302 125.107 20.5497 125.414 20.5497H128.488C128.559 20.5462 128.629 20.557 128.695 20.5814C128.761 20.6057 128.821 20.6432 128.873 20.6915L128.924 20.7173ZM123.236 32.5294C124.084 31.635 124.545 30.4385 124.517 29.2025C124.538 27.9524 124.079 26.7424 123.236 25.8239C122.828 25.398 122.338 25.0593 121.797 24.828C121.255 24.5967 120.673 24.4775 120.085 24.4775C119.497 24.4775 118.915 24.5967 118.374 24.828C117.832 25.0593 117.343 25.398 116.934 25.8239C116.083 26.7528 115.624 27.978 115.653 29.2412C115.626 30.4772 116.086 31.6737 116.934 32.5681C117.346 32.9896 117.838 33.3243 118.38 33.5528C118.922 33.7812 119.504 33.8989 120.092 33.8989C120.679 33.8989 121.261 33.7812 121.803 33.5528C122.345 33.3243 122.837 32.9896 123.249 32.5681" fill="white"/>
<path d="M143.796 21.4265C143.782 21.5239 143.756 21.6192 143.719 21.7101L142.707 24.2892C142.675 24.4037 142.606 24.5042 142.511 24.5744C142.416 24.6446 142.299 24.6804 142.182 24.6761C142.088 24.6912 141.993 24.6912 141.9 24.6761C141.436 24.5225 140.953 24.4399 140.465 24.4311C139.988 24.4112 139.511 24.4954 139.069 24.6779C138.627 24.8604 138.229 25.1369 137.903 25.4885C137.251 26.2194 136.907 27.1763 136.942 28.1578V37.3135C136.949 37.3845 136.94 37.4561 136.916 37.523C136.891 37.59 136.852 37.6506 136.801 37.7003C136.75 37.7487 136.69 37.7861 136.624 37.8105C136.558 37.8349 136.487 37.8456 136.417 37.8422H132.843C132.773 37.8481 132.702 37.8384 132.636 37.8139C132.569 37.7894 132.509 37.7506 132.459 37.7003C132.409 37.65 132.371 37.5894 132.346 37.5225C132.322 37.4557 132.312 37.3844 132.318 37.3135V21.1041C132.315 20.9619 132.366 20.8238 132.459 20.7172C132.51 20.6689 132.571 20.6314 132.637 20.607C132.703 20.5827 132.773 20.5719 132.843 20.5754H136.238C136.532 20.5754 136.712 20.7559 136.763 21.1041L136.904 22.9739C137.295 22.1406 137.913 21.4363 138.686 20.9431C139.46 20.4499 140.357 20.1882 141.272 20.1885C141.709 20.1869 142.144 20.2655 142.553 20.4206C142.914 20.5524 143.248 20.7491 143.539 21.0009C143.61 21.0489 143.67 21.1118 143.714 21.1853C143.758 21.2588 143.786 21.3411 143.796 21.4265Z" fill="white"/>
<path d="M146.294 16.5522C145.821 16.0696 145.555 15.4187 145.555 14.7405C145.555 14.0622 145.821 13.4113 146.294 12.9287C146.524 12.6876 146.801 12.4959 147.107 12.3649C147.413 12.234 147.742 12.1665 148.074 12.1665C148.407 12.1665 148.736 12.234 149.042 12.3649C149.348 12.4959 149.624 12.6876 149.855 12.9287C150.328 13.4113 150.594 14.0622 150.594 14.7405C150.594 15.4187 150.328 16.0696 149.855 16.5522C149.377 17.0171 148.739 17.2769 148.074 17.2769C147.41 17.2769 146.772 17.0171 146.294 16.5522ZM145.91 20.7174C145.961 20.6691 146.021 20.6316 146.087 20.6073C146.153 20.5829 146.224 20.5721 146.294 20.5756H149.855C149.925 20.5721 149.995 20.5829 150.061 20.6073C150.127 20.6316 150.188 20.6691 150.239 20.7174C150.333 20.8241 150.383 20.9621 150.38 21.1043V37.3008C150.386 37.3717 150.376 37.4431 150.352 37.5099C150.328 37.5767 150.289 37.6373 150.239 37.6877C150.189 37.738 150.129 37.7767 150.063 37.8012C149.996 37.8257 149.925 37.8354 149.855 37.8295H146.294C146.224 37.833 146.153 37.8222 146.087 37.7978C146.021 37.7735 145.961 37.736 145.91 37.6877C145.859 37.6379 145.82 37.5773 145.795 37.5103C145.771 37.4434 145.762 37.3718 145.769 37.3008V21.1043C145.764 21.0335 145.775 20.9626 145.799 20.8961C145.823 20.8295 145.861 20.7687 145.91 20.7174Z" fill="white"/>
<path d="M164.97 36.1788C164.017 37.0832 162.833 37.7037 161.55 37.9713V41.1693C161.556 41.2403 161.546 41.3116 161.522 41.3784C161.498 41.4452 161.459 41.5059 161.409 41.5562C161.359 41.6065 161.299 41.6453 161.233 41.6698C161.166 41.6943 161.095 41.7039 161.025 41.6981H158.463C158.393 41.7023 158.322 41.6918 158.256 41.6674C158.19 41.643 158.13 41.6051 158.079 41.5562C158.031 41.5045 157.993 41.4436 157.969 41.3771C157.945 41.3107 157.934 41.24 157.938 41.1693V37.9713C156.997 37.7794 156.095 37.4261 155.273 36.9268C154.526 36.5007 153.855 35.9514 153.288 35.302C153.203 35.2158 153.153 35.1009 153.147 34.9796C153.157 34.8399 153.206 34.7058 153.288 34.5927L154.659 32.6584C154.692 32.6063 154.738 32.5629 154.791 32.5315C154.844 32.5002 154.904 32.4818 154.966 32.4779C155.138 32.4953 155.299 32.5676 155.427 32.6842C156.669 33.6136 158.149 34.1642 159.693 34.2703C160.226 34.2866 160.755 34.1668 161.23 33.9222C161.43 33.8215 161.596 33.6639 161.707 33.469C161.819 33.2742 161.871 33.0506 161.858 32.8261C161.86 32.5822 161.795 32.3425 161.668 32.1348C161.541 31.9271 161.358 31.7599 161.14 31.6526C160.413 31.2474 159.644 30.9231 158.847 30.6854C157.933 30.388 157.042 30.0216 156.183 29.5893C155.469 29.2228 154.85 28.6928 154.377 28.0419C153.846 27.2907 153.576 26.3842 153.608 25.4628C153.586 24.471 153.873 23.4972 154.428 22.6774C154.977 21.8862 155.724 21.2546 156.593 20.8463C157.509 20.4248 158.506 20.2092 159.513 20.2144C160.647 20.2127 161.768 20.4499 162.805 20.9108C163.791 21.3455 164.666 21.9978 165.367 22.8193C165.452 22.9055 165.503 23.0203 165.508 23.1417C165.509 23.2212 165.493 23.3 165.463 23.3732C165.432 23.4464 165.386 23.5124 165.329 23.5672L164.048 25.321C164.014 25.3731 163.969 25.4165 163.915 25.4479C163.862 25.4792 163.802 25.4976 163.741 25.5015C163.569 25.4749 163.409 25.3988 163.279 25.2823C162.705 24.8837 162.097 24.5385 161.46 24.2507C160.975 24.0438 160.451 23.9427 159.923 23.9541C159.439 23.9285 158.96 24.0694 158.565 24.3538C158.399 24.4764 158.264 24.6378 158.172 24.8241C158.081 25.0105 158.036 25.2163 158.04 25.4241C158.033 25.6675 158.093 25.908 158.216 26.1179C158.338 26.3279 158.517 26.4987 158.732 26.6105C159.448 26.9756 160.199 27.2651 160.974 27.4745C161.91 27.7554 162.826 28.1 163.715 28.5061C164.425 28.8682 165.039 29.394 165.508 30.0407C166.065 30.8771 166.339 31.872 166.29 32.8776C166.3 33.4896 166.184 34.0969 165.948 34.661C165.712 35.225 165.361 35.7332 164.919 36.1531" fill="white"/>
<path d="M169.633 16.5518C169.159 16.0692 168.894 15.4183 168.894 14.7401C168.894 14.0619 169.159 13.4109 169.633 12.9283C169.86 12.6825 170.136 12.4878 170.442 12.3567C170.749 12.2256 171.08 12.1611 171.413 12.1674C171.748 12.1609 172.081 12.2252 172.39 12.3563C172.699 12.4873 172.977 12.6822 173.207 12.9283C173.68 13.4109 173.945 14.0619 173.945 14.7401C173.945 15.4183 173.68 16.0692 173.207 16.5518C172.975 16.7943 172.696 16.986 172.388 17.1147C172.079 17.2434 171.747 17.3064 171.413 17.2998C171.081 17.3062 170.751 17.243 170.445 17.1143C170.138 16.9855 169.862 16.794 169.633 16.5518ZM169.248 20.7171C169.3 20.6687 169.36 20.6312 169.426 20.6069C169.492 20.5825 169.562 20.5717 169.633 20.5752H173.194C173.335 20.5723 173.472 20.623 173.578 20.7171C173.667 20.8256 173.713 20.9634 173.706 21.1039V37.3004C173.712 37.3703 173.704 37.4406 173.682 37.5071C173.66 37.5737 173.624 37.6349 173.578 37.6873C173.472 37.7814 173.335 37.832 173.194 37.8291H169.62C169.549 37.835 169.479 37.8253 169.412 37.8008C169.346 37.7763 169.286 37.7376 169.236 37.6873C169.186 37.637 169.147 37.5763 169.123 37.5095C169.098 37.4427 169.089 37.3713 169.095 37.3004V21.1039C169.092 20.9617 169.142 20.8237 169.236 20.7171" fill="white"/>
<path d="M203.22 22.1228C204.465 23.6148 205.097 25.5289 204.988 27.4744V37.3006C204.995 37.3716 204.985 37.4432 204.961 37.5101C204.937 37.5771 204.898 37.6377 204.847 37.6875C204.796 37.7358 204.735 37.7733 204.669 37.7976C204.603 37.822 204.533 37.8328 204.463 37.8293H200.902C200.831 37.8328 200.761 37.822 200.695 37.7976C200.629 37.7733 200.569 37.7358 200.517 37.6875C200.467 37.6377 200.428 37.5771 200.403 37.5101C200.379 37.4432 200.37 37.3716 200.376 37.3006V28.2739C200.468 27.2157 200.141 26.1639 199.467 25.3467C199.168 25.047 198.812 24.8114 198.42 24.6541C198.028 24.4967 197.609 24.4209 197.187 24.4311C196.468 24.4093 195.76 24.6023 195.15 24.9856C194.621 25.2985 194.18 25.7424 193.869 26.2751C193.6 26.7094 193.45 27.2077 193.434 27.7194V37.2232C193.437 37.2939 193.426 37.3646 193.402 37.4311C193.378 37.4975 193.341 37.5584 193.293 37.6101C193.187 37.7042 193.05 37.7548 192.908 37.7519H189.334C189.264 37.7578 189.193 37.7481 189.127 37.7236C189.06 37.6991 189 37.6604 188.95 37.6101C188.9 37.5598 188.862 37.4991 188.837 37.4323C188.813 37.3655 188.803 37.2942 188.809 37.2232V28.1965C188.901 27.1383 188.574 26.0865 187.9 25.2693C187.604 24.9688 187.25 24.7325 186.86 24.575C186.47 24.4176 186.052 24.3422 185.632 24.3537C184.9 24.3396 184.182 24.561 183.583 24.9856C183.058 25.369 182.621 25.8615 182.302 26.4299C182.058 26.8195 181.909 27.2611 181.866 27.7194V37.1588C181.872 37.2297 181.863 37.301 181.838 37.3678C181.814 37.4346 181.775 37.4953 181.726 37.5456C181.676 37.5959 181.615 37.6347 181.549 37.6592C181.483 37.6837 181.412 37.6933 181.341 37.6875H177.767C177.626 37.6903 177.489 37.6397 177.383 37.5456C177.335 37.4939 177.298 37.433 177.274 37.3666C177.249 37.3001 177.239 37.2295 177.242 37.1588V21.1041C177.236 21.0332 177.246 20.9618 177.27 20.895C177.295 20.8282 177.333 20.7676 177.383 20.7172C177.433 20.6669 177.493 20.6282 177.56 20.6037C177.626 20.5792 177.697 20.5695 177.767 20.5754H181.2C181.508 20.5754 181.674 20.7559 181.726 21.1041L181.866 23.3608C182.437 22.4317 183.208 21.643 184.121 21.0525C185.059 20.4688 186.144 20.1689 187.246 20.1885C188.342 20.1766 189.42 20.4713 190.359 21.0396C191.303 21.6084 192.068 22.4358 192.562 23.4252C193.209 22.4138 194.101 21.5855 195.155 21.019C196.209 20.4525 197.389 20.1666 198.583 20.1885C199.453 20.1532 200.32 20.3078 201.125 20.6417C201.93 20.9756 202.653 21.4809 203.246 22.1228" fill="white"/>
<path d="M46.801 11.9871C45.013 9.13708 42.6841 6.66998 39.9478 4.72707C37.1765 2.80382 34.0622 1.43768 30.7761 0.703734C25.2803 -0.619666 19.5033 -0.0662337 14.3541 2.27696C11.4781 3.55959 8.87008 5.37995 6.66829 7.64142C3.9652 10.3566 1.91082 13.655 0.660551 17.2871C0.660551 17.2871 0.660551 17.2871 0.660551 17.3903C0.610196 17.5121 0.567417 17.637 0.532456 17.7642C-0.748511 21.9165 0.455594 24.2119 2.30019 22.2905L2.51796 22.0455L2.60763 21.9552C4.24013 20.0635 6.11876 18.4022 8.19265 17.0163C9.0709 16.4036 9.98175 15.8397 10.9211 15.327C11.9609 14.7062 13.049 14.1715 14.1748 13.728C14.5127 13.551 14.8047 13.2966 15.0272 12.9853C15.2497 12.674 15.3965 12.3144 15.4557 11.9356C15.457 11.9141 15.457 11.8926 15.4557 11.8711C15.6547 10.6992 16.2366 9.62772 17.109 8.82649C17.9815 8.02526 19.0947 7.54011 20.2722 7.44798C21.3443 7.29461 22.4376 7.45982 23.4178 7.92329C24.398 8.38676 25.2224 9.12832 25.7897 10.0569C26.3571 10.9855 26.6426 12.0607 26.6114 13.1504C26.5801 14.2401 26.2334 15.2969 25.6138 16.191L25.4729 16.3844V16.4489C24.8091 17.292 23.9204 17.9271 22.9109 18.2801C22.3074 18.5042 21.6711 18.6262 21.0279 18.6411C20.5983 18.687 20.1639 18.652 19.747 18.538C19.2978 18.4473 18.8656 18.2863 18.466 18.0608C17.9119 17.8251 17.3908 17.5173 16.916 17.1453C16.7791 17.0178 16.6112 16.9289 16.4293 16.8874C16.135 16.8421 15.834 16.8778 15.5582 16.9905C15.462 17.035 15.3716 17.0913 15.2892 17.1582C14.468 17.831 13.6813 18.5455 12.9322 19.2988C11.3397 20.9996 9.88742 22.8282 8.58974 24.7664C8.17983 25.4112 7.79555 26.0559 7.43688 26.7523C7.07821 27.4486 6.78358 28.0418 6.48896 28.6608C6.04062 29.6795 5.60509 30.7756 5.20799 31.9491C5.20799 31.9491 5.20799 32.0522 5.20799 32.1167C5.17902 32.1873 5.15755 32.2608 5.14394 32.3359L5.06708 32.5552C2.7101 40.576 6.96291 45.2184 10.524 40.3697C10.7161 40.0602 10.9211 39.7636 11.1261 39.4671C14.8665 33.0194 22.5267 28.4287 22.5267 28.4287C23.0049 28.1278 23.4789 27.8441 23.9485 27.5776H24.0382C25.3556 26.8393 26.7111 26.1721 28.0989 25.5788C29.2755 25.0523 30.4921 24.6211 31.7368 24.2893C32.1555 24.1362 32.5241 23.8698 32.8021 23.5194C33.0801 23.1691 33.2567 22.7483 33.3124 22.3034C33.4936 21.5159 33.8492 20.7797 34.3528 20.15C34.8563 19.5203 35.4947 19.0133 36.2202 18.6669C36.6474 18.4528 37.0991 18.2925 37.5652 18.1898C38.0478 18.0772 38.5437 18.0338 39.0383 18.0608C39.3102 18.0538 39.5817 18.0841 39.8453 18.1511C41.0186 18.3709 42.0914 18.9624 42.9072 19.8393C43.7229 20.7162 44.239 21.8325 44.38 23.0255C44.5461 24.4886 44.1299 25.9584 43.2226 27.1134C42.3152 28.2685 40.9904 29.0149 39.5379 29.1895C38.8257 29.2988 38.0991 29.265 37.4 29.0902C36.7009 28.9153 36.043 28.6028 35.4644 28.1708C35.0377 27.9852 34.5778 27.8894 34.113 27.8894C33.6482 27.8894 33.1883 27.9852 32.7616 28.1708C31.6181 28.7882 30.5143 29.4773 29.4567 30.234C27.9917 31.3298 26.6049 32.5277 25.3064 33.8189C23.9728 35.1869 22.7678 36.6762 21.7069 38.2678L21.5403 38.5257C20.2578 40.5519 19.2011 42.7141 18.3891 44.9733L18.1714 45.5923C17.1722 48.958 19.3499 50.312 21.8734 50.7505C23.4616 51.004 25.0744 51.0646 26.677 50.931H27.1253C27.8427 50.8536 28.56 50.7763 29.2774 50.6473C34.0857 49.8852 38.5759 47.7504 42.2151 44.4962C46.7794 40.5369 49.7458 35.0324 50.5542 29.0219C51.4724 23.0267 50.1488 16.9017 46.8394 11.8324" fill="#FFC629"/>
</svg>
