<svg width="27" height="27" viewBox="0 0 27 27" fill="none" xmlns="http://www.w3.org/2000/svg">
<path d="M13.5 0C6.05598 0 0 6.05598 0 13.5C0 20.944 6.05598 27 13.5 27C20.944 27 27 20.944 27 13.5C27 6.05598 20.944 0 13.5 0ZM13.5 25.7727C6.73282 25.7727 1.22727 20.2672 1.22727 13.5C1.22727 6.73282 6.73282 1.22727 13.5 1.22727C20.2672 1.22727 25.7727 6.73282 25.7727 13.5C25.7727 20.2672 20.2672 25.7727 13.5 25.7727Z" fill="#464250"/>
<path d="M8.28396 11.0455C9.47011 11.0455 10.4317 10.0839 10.4317 8.89773C10.4317 7.71157 9.47011 6.75 8.28396 6.75C7.0978 6.75 6.13623 7.71157 6.13623 8.89773C6.13623 10.0839 7.0978 11.0455 8.28396 11.0455Z" fill="#464250"/>
<path d="M18.1023 11.0455C19.2885 11.0455 20.25 10.0839 20.25 8.89773C20.25 7.71157 19.2885 6.75 18.1023 6.75C16.9162 6.75 15.9546 7.71157 15.9546 8.89773C15.9546 10.0839 16.9162 11.0455 18.1023 11.0455Z" fill="#464250"/>
<path d="M20.2499 14.7272C19.9111 14.7272 19.6362 15.0021 19.6362 15.3409C19.6362 18.7245 16.8835 21.4772 13.4999 21.4772C10.1163 21.4772 7.3635 18.7245 7.3635 15.3409C7.3635 15.0021 7.08859 14.7272 6.74987 14.7272C6.41114 14.7272 6.13623 15.0021 6.13623 15.3409C6.13623 19.4013 9.43944 22.7045 13.4999 22.7045C17.5603 22.7045 20.8635 19.4013 20.8635 15.3409C20.8635 15.0021 20.5886 14.7272 20.2499 14.7272Z" fill="#464250"/>
</svg>
