<svg width="55" height="55" viewBox="0 0 55 55" fill="none" xmlns="http://www.w3.org/2000/svg">
<path d="M51.8719 23.4358C51.0254 22.8116 49.9589 22.032 49.8298 21.5226C49.884 20.5366 50.1656 19.5766 50.6524 18.7175C51.3984 17.0053 52.1684 15.2309 51.3124 13.7554C50.4563 12.2798 48.5098 12.0407 46.6376 11.8422C45.6671 11.8357 44.711 11.6075 43.8422 11.175C43.4091 10.3031 43.1817 9.34346 43.1774 8.3699C42.9671 6.49744 42.7494 4.56042 41.2645 3.6947C39.7795 2.82898 38.0029 3.58709 36.2908 4.34273C35.4309 4.82934 34.4702 5.11081 33.4836 5.1654C32.9671 5.02674 32.19 3.96967 31.5707 3.12312C30.4851 1.65959 29.2631 0 27.4984 0C25.7337 0 24.5119 1.65959 23.4334 3.12312C22.8069 3.97202 22.0297 5.03627 21.5204 5.16776C20.5347 5.10835 19.575 4.82721 18.7132 4.34508C16.9915 3.58697 15.2173 2.83133 13.7467 3.6827C12.2762 4.53408 12.0299 6.48545 11.8194 8.36979C11.8126 9.33999 11.5853 10.2959 11.1546 11.1654C10.2875 11.5917 9.33513 11.8156 8.36895 11.8206C6.4943 12.031 4.55498 12.2487 3.6918 13.7337C2.82862 15.2188 3.58677 16.9934 4.34235 18.708C4.83071 19.5699 5.11227 20.5334 5.16495 21.5226C5.0263 22.0392 3.96932 22.8188 3.12284 23.4358C1.65944 24.5119 0 25.7363 0 27.5012C0 29.266 1.65944 30.4905 3.12531 31.5666C3.97179 32.1907 5.03829 32.9704 5.16742 33.4797C5.11317 34.4657 4.83161 35.4257 4.34481 36.2848C3.59876 37.9971 2.82884 39.7715 3.68485 41.247C4.54085 42.7225 6.48735 42.9616 8.35964 43.1601C9.33009 43.1667 10.2862 43.3949 11.155 43.8273C11.5881 44.6992 11.8155 45.6589 11.8198 46.6325C12.0301 48.5049 12.2478 50.4419 13.7327 51.3077C15.2177 52.1734 16.98 51.3937 18.6945 50.6476C19.563 50.1664 20.5293 49.8884 21.5209 49.8346C22.0373 49.9733 22.8144 51.0303 23.4338 51.8769C24.5122 53.3404 25.7342 55 27.4989 55C29.2636 55 30.4854 53.3404 31.5639 51.8769C32.1904 51.028 32.9676 49.9637 33.4769 49.8322C34.4633 49.8881 35.4236 50.1694 36.2841 50.6549C37.9962 51.401 39.7705 52.1663 41.2434 51.3173C42.7163 50.4684 42.9602 48.5145 43.1707 46.6397C43.1776 45.6695 43.4049 44.7136 43.8355 43.8442C44.7042 43.4144 45.6593 43.1878 46.6284 43.1818C48.503 42.9714 50.4423 42.7537 51.3055 41.2686C52.1687 39.7836 51.3892 38.0211 50.6455 36.3065C50.1588 35.4402 49.8804 34.4723 49.8326 33.4798C49.9712 32.9633 51.0282 32.1837 51.8747 31.5667C53.3381 30.4882 55 29.2638 55 27.5013C55 25.7388 53.3376 24.5119 51.8719 23.4358Z" fill="#344C98"/>
</svg>
