<svg width="12" height="12" viewBox="0 0 12 12" fill="none" xmlns="http://www.w3.org/2000/svg">
<path d="M10.2164 5.41168V10.4806C10.2164 10.5497 10.2028 10.6181 10.1764 10.6819C10.1499 10.7458 10.1112 10.8038 10.0623 10.8526C10.0134 10.9014 9.95543 10.9402 9.89159 10.9666C9.82776 10.993 9.75934 11.0066 9.69025 11.0066H2.26033C2.12084 11.0066 1.98706 10.9512 1.88842 10.8525C1.78979 10.7539 1.73438 10.6201 1.73438 10.4806V5.39795" stroke="#464250" stroke-width="0.3" stroke-miterlimit="10"/>
<path d="M1.73446 5.39782C1.19668 5.22623 0.866607 4.66541 1.05193 4.11368L1.89548 1.60097C2.01572 1.24301 2.36523 1 2.76017 1H9.31991C9.7195 1 10.0709 1.25083 10.1831 1.61576L10.9565 4.13312C11.1296 4.6969 10.7744 5.26089 10.2169 5.41155" stroke="#464250" stroke-width="0.3" stroke-miterlimit="10"/>
<path d="M1.76587 5.39795C2.1251 5.63694 2.60245 5.78254 3.12756 5.78254C3.65267 5.78254 4.13023 5.63694 4.48904 5.39795" stroke="#464250" stroke-width="0.3" stroke-miterlimit="10" stroke-linecap="round"/>
<path d="M4.48877 5.39795C4.85053 5.6697 5.33275 5.83536 5.86229 5.83536C6.39184 5.83536 6.87405 5.6697 7.23582 5.39795" stroke="#464250" stroke-width="0.3" stroke-miterlimit="10" stroke-linecap="round"/>
<path d="M7.23584 5.40598C7.63099 5.67287 8.158 5.83536 8.73615 5.83536C9.32022 5.83536 9.85167 5.66948 10.2479 5.39795" stroke="#464250" stroke-width="0.3" stroke-miterlimit="10" stroke-linecap="round"/>
<path d="M5.99237 7.31958C6.11667 7.31958 6.23589 7.36896 6.32378 7.45686C6.41168 7.54475 6.46106 7.66396 6.46106 7.78827V9.69726H5.52368V7.78827C5.52368 7.66396 5.57306 7.54475 5.66096 7.45686C5.74885 7.36896 5.86807 7.31958 5.99237 7.31958Z" fill="#464250"/>
</svg>
