<svg width="25" height="15" viewBox="0 0 25 15" fill="none" xmlns="http://www.w3.org/2000/svg">
<g filter="url(#filter0_d)">
<path d="M8.71809 3.03494H16.3224C16.6075 3.03338 16.8899 3.09108 17.1516 3.20436C17.4132 3.31765 17.6485 3.48406 17.8425 3.69304V3.69304C17.8946 3.74934 17.9339 3.81622 17.9577 3.8891C17.9815 3.96198 17.9893 4.03914 17.9805 4.11531C17.9717 4.19148 17.9466 4.26485 17.9068 4.33041C17.8671 4.39597 17.8136 4.45216 17.7501 4.49515C17.7368 4.50415 17.721 4.50895 17.7049 4.50891H7.99413C7.89555 4.50903 7.80012 4.4742 7.72479 4.41062V4.41062C7.65162 4.34993 7.59211 4.27445 7.55016 4.18914C7.50821 4.10384 7.48477 4.01062 7.48139 3.91562C7.478 3.82061 7.49474 3.72597 7.5305 3.63789C7.56627 3.54981 7.62025 3.47029 7.68891 3.40454V3.40454C7.93687 3.16578 8.2682 3.03317 8.61242 3.03494H8.71809Z" stroke="white" stroke-width="0.5" stroke-miterlimit="10"/>
<path d="M13.4439 4.52954H11.8977V10.39H13.4439V4.52954Z" stroke="white" stroke-width="0.5" stroke-miterlimit="10"/>
<path d="M11.6376 10.4333H13.7018C14.0139 10.4333 14.3131 10.5573 14.5338 10.778C14.7545 10.9986 14.8784 11.2979 14.8784 11.61V11.61C14.8784 11.7 14.8426 11.7864 14.779 11.8501C14.7153 11.9138 14.6289 11.9496 14.5388 11.9496H10.8001C10.71 11.9496 10.6236 11.9138 10.5599 11.8501C10.4962 11.7864 10.4604 11.7 10.4604 11.61C10.4604 11.2979 10.5844 10.9986 10.8051 10.778C11.0257 10.5573 11.325 10.4333 11.6371 10.4333H11.6376Z" stroke="white" stroke-width="0.5" stroke-miterlimit="10"/>
<path d="M2.01367 6.23438C2.07885 6.84836 2.36891 7.41651 2.82798 7.82939C3.28706 8.24228 3.88267 8.47069 4.5001 8.47064" stroke="white" stroke-width="0.5" stroke-miterlimit="10"/>
<path d="M4.5002 8.4706C3.88277 8.47065 3.28715 8.24224 2.82808 7.82935C2.369 7.41647 2.07894 6.84832 2.01376 6.23434C2.00446 6.147 1.99987 6.05922 2 5.97139V1.48854C2 1.35897 2.05147 1.23471 2.14309 1.14309C2.23471 1.05147 2.35897 1 2.48854 1H2.86551C3.29897 1 3.71469 1.17216 4.02124 1.47861C4.32778 1.78507 4.50007 2.20073 4.5002 2.63419V6.23434" stroke="white" stroke-width="0.5" stroke-miterlimit="10" stroke-linecap="round"/>
<path d="M4.50024 6.23438H7.48701C7.9103 6.23451 8.31622 6.40275 8.61548 6.70211C8.91475 7.00147 9.08287 7.40743 9.08287 7.83072C9.08287 8.00018 9.01555 8.1627 8.89573 8.28252C8.77591 8.40234 8.61339 8.46966 8.44394 8.46966H4.50024" stroke="white" stroke-width="0.5" stroke-miterlimit="10"/>
<path d="M3.09521 12.0001L4.09588 8.47363H7.59773L8.5984 12.0001" stroke="white" stroke-width="0.5" stroke-miterlimit="10" stroke-linecap="round"/>
<path d="M3.59521 10.5276H8.024" stroke="white" stroke-width="0.5" stroke-miterlimit="10" stroke-linecap="round"/>
<path d="M20.96 8.47064C21.5774 8.47069 22.173 8.24228 22.6321 7.82939C23.0912 7.41651 23.3812 6.84836 23.4464 6.23438" stroke="white" stroke-width="0.5" stroke-miterlimit="10"/>
<path d="M20.96 6.23434V2.63419C20.9601 2.20073 21.1324 1.78507 21.4389 1.47861C21.7455 1.17216 22.1612 1 22.5946 1H22.9716C23.1012 1 23.2254 1.05147 23.3171 1.14309C23.4087 1.23471 23.4602 1.35897 23.4602 1.48854V5.9709C23.4603 6.05873 23.4557 6.14651 23.4464 6.23385C23.3813 6.84792 23.0913 7.41619 22.6322 7.82917C22.1731 8.24216 21.5775 8.47064 20.96 8.4706" stroke="white" stroke-width="0.5" stroke-miterlimit="10" stroke-linecap="round"/>
<path d="M20.9601 8.47064H17.0183C16.8489 8.47064 16.6864 8.40332 16.5665 8.2835C16.4467 8.16368 16.3794 8.00116 16.3794 7.83171C16.3791 7.40858 16.5469 7.00267 16.8457 6.70315C17.1446 6.40364 17.5502 6.23503 17.9733 6.23438H20.9601" stroke="white" stroke-width="0.5" stroke-miterlimit="10"/>
<path d="M22.3648 12.0001L21.3646 8.47363H17.8622L16.8616 12.0001" stroke="white" stroke-width="0.5" stroke-miterlimit="10" stroke-linecap="round"/>
<path d="M21.8643 10.5276H17.4355" stroke="white" stroke-width="0.5" stroke-miterlimit="10" stroke-linecap="round"/>
</g>
<defs>
<filter id="filter0_d" x="0.75" y="0.75" width="23.9602" height="13.5001" filterUnits="userSpaceOnUse" color-interpolation-filters="sRGB">
<feFlood flood-opacity="0" result="BackgroundImageFix"/>
<feColorMatrix in="SourceAlpha" type="matrix" values="0 0 0 0 0 0 0 0 0 0 0 0 0 0 0 0 0 0 127 0" result="hardAlpha"/>
<feOffset dy="1"/>
<feGaussianBlur stdDeviation="0.5"/>
<feColorMatrix type="matrix" values="0 0 0 0 0 0 0 0 0 0 0 0 0 0 0 0 0 0 0.4 0"/>
<feBlend mode="normal" in2="BackgroundImageFix" result="effect1_dropShadow"/>
<feBlend mode="normal" in="SourceGraphic" in2="effect1_dropShadow" result="shape"/>
</filter>
</defs>
</svg>
