<svg width="17" height="20" viewBox="0 0 17 20" fill="none" xmlns="http://www.w3.org/2000/svg">
<path d="M15.8554 2.0241H11.1177C11.0806 1.60241 10.9507 0.891277 10.5061 0.434843C10.2247 0.14641 9.86781 0 9.44545 0H6.07229C5.64993 0 5.29301 0.14641 5.01166 0.434843C4.56704 0.891277 4.43716 1.60241 4.40005 2.0241H0.337349C0.151133 2.0241 0 2.17489 0 2.36145C0 2.548 0.151133 2.6988 0.337349 2.6988H1.02588L1.6719 18.224C1.68439 18.8049 2.04602 19.9036 3.32762 19.9036H12.8652C14.1467 19.9036 14.5084 18.8049 14.5205 18.231L15.1669 2.6988H15.8554C16.0416 2.6988 16.1928 2.548 16.1928 2.36145C16.1928 2.17489 16.0416 2.0241 15.8554 2.0241ZM5.4961 0.904434C5.64723 0.749928 5.83581 0.674699 6.07229 0.674699H9.44545C9.68193 0.674699 9.87051 0.749928 10.0216 0.904434C10.2932 1.18207 10.4022 1.67055 10.44 2.0241H5.07812C5.1159 1.67055 5.22487 1.18207 5.4961 0.904434ZM13.8462 18.2098C13.8441 18.314 13.7976 19.2289 12.8652 19.2289H3.32762C2.4053 19.2289 2.34998 18.3123 2.34627 18.2027L1.70092 2.6988H14.4915L13.8462 18.2098Z" fill="white"/>
</svg>
