<svg width="16" height="16" viewBox="0 0 16 16" fill="none" xmlns="http://www.w3.org/2000/svg">
<path d="M16 8C16 3.58881 12.4112 0 8 0C3.58881 0 0 3.58881 0 8C0 10.9999 1.66006 13.6189 4.10953 14.9881C4.12709 15.0009 4.14616 15.0117 4.16663 15.02C5.30559 15.6444 6.612 16 8 16C9.388 16 10.6944 15.6444 11.8334 15.02C11.8538 15.0117 11.8729 15.0009 11.8905 14.988C14.3399 13.6189 16 10.9999 16 8ZM0.533344 8C0.533344 3.88294 3.88294 0.533344 8 0.533344C12.1171 0.533344 15.4667 3.88294 15.4667 8C15.4667 10.6466 14.0824 12.9757 12 14.3022V12.8001C12 11.3865 11.2389 10.0633 10.0133 9.34731C9.92641 9.29666 9.81841 9.29931 9.73388 9.35344C8.69575 10.0249 7.30428 10.0249 6.26616 9.35344C6.18187 9.29931 6.07363 9.29663 5.98669 9.34731C4.76106 10.0633 4 11.3865 4 12.8001V14.3021C1.91762 12.9757 0.533344 10.6466 0.533344 8ZM4.53334 14.6114V12.8001C4.53334 11.6278 5.13816 10.5271 6.12134 9.89053C7.26347 10.5583 8.73653 10.5583 9.87869 9.89053C10.8619 10.5271 11.4667 11.6279 11.4667 12.8001V14.6114C10.4301 15.1572 9.25059 15.4667 8.00003 15.4667C6.74947 15.4667 5.56994 15.1572 4.53334 14.6114Z" fill="#464250"/>
<path d="M8 8.80002C9.4704 8.80002 10.6667 7.60374 10.6667 6.13336C10.6667 4.66299 9.4704 3.46667 8 3.46667C6.52959 3.46667 5.33334 4.66296 5.33334 6.13333C5.33334 7.60371 6.52959 8.80002 8 8.80002ZM8 4.00002C9.17628 4.00002 10.1333 4.95708 10.1333 6.13336C10.1333 7.30964 9.17628 8.26671 8 8.26671C6.82372 8.26671 5.86666 7.30964 5.86666 6.13336C5.86666 4.95708 6.82372 4.00002 8 4.00002Z" fill="#464250"/>
</svg>
