<svg width="32" height="30" viewBox="0 0 32 30" fill="none" xmlns="http://www.w3.org/2000/svg">
<path d="M4.90434 16.1502H1.55449C1.24825 16.1502 1 16.3991 1 16.7062V27.4336C1 27.7407 1.24825 27.9896 1.55449 27.9896H4.90434C5.21058 27.9896 5.45883 27.7407 5.45883 27.4336V16.7062C5.45883 16.3991 5.21058 16.1502 4.90434 16.1502Z" stroke="#464250" stroke-miterlimit="10"/>
<path d="M5.4588 26.3074L12.1846 28.917C12.384 28.9946 12.6003 29.0184 12.8117 28.9859L22.8992 27.4621C23.2956 27.4023 23.6698 27.2405 23.9852 26.9925L30.4511 21.9056C30.7001 21.7089 30.8638 21.4234 30.908 21.1086C30.9521 20.7939 30.8733 20.4742 30.6881 20.2163V20.2163C30.5061 19.9623 30.2346 19.7872 29.9287 19.7265C29.6227 19.6657 29.3052 19.7239 29.0404 19.8892L23.4386 23.3826C22.994 23.6588 22.4672 23.7709 21.949 23.6994L10.5859 22.1376" stroke="#464250" stroke-miterlimit="10" stroke-linecap="round"/>
<path d="M5.78894 17.986L7.1025 18.1444C8.49155 18.3141 9.84202 18.7179 11.0969 19.3387L12.164 19.867C12.553 20.06 12.9708 20.1882 13.4009 20.2463L18.3629 20.914C18.4029 20.9193 18.4432 20.9256 18.4838 20.933C18.9519 21.0198 19.3929 21.2162 19.7711 21.5061C20.1492 21.7961 20.4537 22.1715 20.6599 22.6017L21.1417 23.5893" stroke="#464250" stroke-miterlimit="10" stroke-linecap="round"/>
<path d="M21.4718 11.8363L18.5351 8.63349C18.3947 8.48593 18.3101 8.29395 18.2957 8.09057C18.2812 7.88719 18.338 7.68513 18.4561 7.51916L22.8509 1.61967C23.219 1.12548 23.9568 1.08746 24.4307 1.54048L29.0183 5.89639C29.5175 6.37158 29.4922 7.15564 28.959 7.53025L22.6306 11.9947C22.451 12.1133 22.2346 12.1627 22.0215 12.1335C21.8085 12.1044 21.6132 11.9988 21.4718 11.8363Z" stroke="#464250" stroke-miterlimit="10" stroke-linecap="round"/>
<path d="M24.3948 3.09711C24.0691 2.7705 23.5411 2.77037 23.2155 3.09683C22.8899 3.42328 22.89 3.9527 23.2158 4.27931L25.971 7.04187C26.2967 7.36848 26.8247 7.36861 27.1503 7.04215C27.4759 6.7157 27.4758 6.18628 27.15 5.85967L24.3948 3.09711Z" stroke="#464250" stroke-miterlimit="10" stroke-linecap="round"/>
<path d="M19.3149 9.96716L20.7464 11.4025L14.9188 17.2457C14.729 17.436 14.4717 17.5429 14.2033 17.5429C13.935 17.5429 13.6776 17.436 13.4879 17.2457C13.2981 17.0554 13.1915 16.7974 13.1915 16.5283C13.1915 16.2593 13.2981 16.0012 13.4879 15.8109L19.3155 9.96772L19.3149 9.96716Z" stroke="#464250" stroke-miterlimit="10" stroke-linecap="round"/>
</svg>
