<svg width="40" height="30" viewBox="0 0 40 30" fill="none" xmlns="http://www.w3.org/2000/svg">
<path d="M4.29157 11.475C4.27575 11.4135 4.2608 11.3511 4.24762 11.2887" stroke="#464250" stroke-miterlimit="10" stroke-linecap="round"/>
<path d="M4.24842 7.56891C4.24546 7.57671 4.24343 7.58484 4.24237 7.59312" stroke="#464250" stroke-miterlimit="10" stroke-linecap="round"/>
<path d="M5.912 14.72C5.86291 14.6612 5.81646 14.6014 5.77087 14.5443" stroke="#464250" stroke-miterlimit="10" stroke-linecap="round"/>
<path d="M4.55659 7.63568C4.44964 7.62776 4.34533 7.61634 4.24276 7.59876C4.17526 7.58821 4.10777 7.57503 4.0429 7.55921L3.9754 7.54251C3.06373 7.31222 2.41504 6.71629 2.41504 6.01841C2.41504 5.12276 3.48275 4.39587 4.79941 4.39587C5.19197 4.39361 5.58177 4.46177 5.95039 4.59715C6.09958 4.65265 6.24337 4.72179 6.37993 4.8037" stroke="#464250" stroke-miterlimit="10" stroke-linecap="round"/>
<path d="M4.55684 7.63567C4.45543 7.6078 4.35237 7.58637 4.24827 7.57151C4.18077 7.56096 4.1124 7.55217 4.04315 7.5469C3.96338 7.54075 3.88273 7.53723 3.80033 7.53723C2.48542 7.53723 1.41595 8.38542 1.41595 9.43137C1.41595 10.4773 2.48191 11.3273 3.79857 11.3273C3.94884 11.3275 4.0989 11.3161 4.2474 11.293" stroke="#464250" stroke-miterlimit="10" stroke-linecap="round"/>
<path d="M4.29118 11.475C3.38652 11.7044 2.74133 12.2942 2.74133 12.9876C2.74133 13.8789 3.80816 14.6014 5.12571 14.6014C5.34215 14.6015 5.55814 14.5815 5.77089 14.5416" stroke="#464250" stroke-miterlimit="10" stroke-linecap="round"/>
<path d="M6.40464 4.78271H6.40363L6.38043 4.80692" stroke="#464250" stroke-miterlimit="10" stroke-linecap="round"/>
<path d="M39.2188 4.09096V27.9729C39.2193 28.0871 39.1892 28.1994 39.1316 28.298C39.074 28.3966 38.9911 28.4779 38.8915 28.5334C38.7919 28.5889 38.6793 28.6166 38.5654 28.6135C38.4515 28.6105 38.3405 28.5768 38.244 28.5161C34.3782 26.0509 30.4042 26.0629 26.3221 28.5521C26.2252 28.6118 26.1142 28.6445 26.0005 28.6468C25.8868 28.6492 25.7745 28.6211 25.6753 28.5655C25.576 28.51 25.4933 28.4288 25.4356 28.3305C25.378 28.2322 25.3475 28.1203 25.3473 28.0063V16.9245H19.4741C19.1421 16.9245 18.8237 16.7923 18.5889 16.5569C18.3542 16.3215 18.2223 16.0022 18.2223 15.6694V4.09096C18.2223 3.75807 18.3542 3.43882 18.5889 3.20344C18.8237 2.96805 19.1421 2.83582 19.4741 2.83582H37.9705C38.3019 2.83675 38.6194 2.96939 38.8534 3.20468C39.0874 3.43996 39.2188 3.75868 39.2188 4.09096V4.09096Z" stroke="#464250" stroke-miterlimit="10"/>
<path d="M39.2185 4.06986V4.09096C39.2185 3.75808 39.0866 3.43883 38.8518 3.20344C38.6171 2.96806 38.2987 2.83582 37.9667 2.83582H37.9877C38.1495 2.83536 38.3097 2.86696 38.4593 2.92881C38.6088 2.99066 38.7446 3.08154 38.859 3.19623C38.9734 3.31091 39.064 3.44714 39.1257 3.59707C39.1874 3.747 39.2189 3.90768 39.2185 4.06986V4.06986Z" stroke="#464250" stroke-miterlimit="10"/>
<path d="M21.8812 14.9187C22.7905 14.9187 23.5275 14.1797 23.5275 13.268C23.5275 12.3564 22.7905 11.6174 21.8812 11.6174C20.972 11.6174 20.235 12.3564 20.235 13.268C20.235 14.1797 20.972 14.9187 21.8812 14.9187Z" fill="#464250"/>
<path d="M10.7195 17.8316H12.4201C14.5836 17.8345 16.6637 16.9954 18.2224 15.491" stroke="#464250" stroke-miterlimit="10" stroke-linecap="round"/>
<path d="M6.38043 4.80382C8.09595 2.83585 9.31004 1.30736 12.2458 1.02698C14.6267 0.796691 16.8041 2.06941 18.3654 3.75172" stroke="#464250" stroke-miterlimit="10"/>
<path d="M10.7195 17.8316C9.81304 17.8746 7.66273 17.8316 6.80979 17.8316C6.71074 17.8316 6.61343 17.8272 6.51788 17.8193C7.50669 17.8316 9.28094 17.8316 10.7195 17.8316Z" stroke="#464250" stroke-miterlimit="10" stroke-linecap="round"/>
<path d="M10.7857 17.8315H10.7195" stroke="#464250" stroke-miterlimit="10" stroke-linecap="round"/>
<path d="M5.91235 14.72C5.03574 14.9599 4.42212 15.5392 4.42212 16.2142C4.42212 17.0386 5.33554 17.7181 6.51457 17.8156" stroke="#464250" stroke-miterlimit="10" stroke-linecap="round"/>
<path d="M10.2428 4.80371H6.38043" stroke="#464250" stroke-miterlimit="10" stroke-linecap="round"/>
<path d="M25.3563 3.03796V16.9245" stroke="#464250" stroke-miterlimit="10"/>
</svg>
