<svg width="10" height="10" viewBox="0 0 10 10" fill="none" xmlns="http://www.w3.org/2000/svg">
<path d="M5 0C2.243 0 0 2.243 0 5C0 7.757 2.243 10 5 10C7.757 10 10 7.757 10 5C10 2.243 7.757 0 5 0ZM5 9.66667C2.42683 9.66667 0.333333 7.57317 0.333333 5C0.333333 2.42683 2.42683 0.333333 5 0.333333C7.57317 0.333333 9.66667 2.42683 9.66667 5C9.66667 7.57317 7.57317 9.66667 5 9.66667Z" fill="#464250"/>
<path d="M5.00008 1C4.90808 1 4.83341 1.0745 4.83341 1.16667V5H2.33341C2.24141 5 2.16675 5.0745 2.16675 5.16667C2.16675 5.25883 2.24141 5.33333 2.33341 5.33333H5.00008C5.09208 5.33333 5.16675 5.25883 5.16675 5.16667V1.16667C5.16675 1.0745 5.09208 1 5.00008 1Z" fill="#464250"/>
</svg>
