<svg width="26" height="26" viewBox="0 0 26 26" fill="none" xmlns="http://www.w3.org/2000/svg">
<path d="M13.0001 6.50033C12.7009 6.50033 12.4584 6.74286 12.4584 7.04199V12.4587H9.20842C8.90928 12.4587 8.66675 12.7012 8.66675 13.0003C8.66675 13.2995 8.90928 13.542 9.20842 13.542H13.0001C13.0003 13.542 13.0005 13.542 13.0007 13.542C13.2997 13.5418 13.5419 13.2993 13.5417 13.0003V7.04199C13.5417 6.74286 13.2992 6.50033 13.0001 6.50033ZM13.0001 2.16699C7.01702 2.16699 2.16675 7.01726 2.16675 13.0003C2.16675 18.9834 7.01702 23.8337 13.0001 23.8337C18.9802 23.8267 23.8264 18.9805 23.8334 13.0003C23.8334 7.01726 18.9831 2.16699 13.0001 2.16699ZM13.0001 22.7503C7.61529 22.7503 3.25008 18.3851 3.25008 13.0003C3.25008 7.61553 7.61529 3.25033 13.0001 3.25033C18.3824 3.25621 22.7442 7.61798 22.7501 13.0003C22.7501 18.3851 18.3849 22.7503 13.0001 22.7503Z" fill="#333333"/>
</svg>
