<svg width="42" height="42" viewBox="0 0 42 42" fill="none" xmlns="http://www.w3.org/2000/svg">
<path d="M21 0C9.42092 0 0 9.42012 0 21C0 32.5799 9.42092 42 21 42C32.5791 42 42 32.5799 42 21C42 9.42012 32.5791 0 21 0Z" fill="#FFC72C" fill-opacity="0.95"/>
<path d="M21.0836 8.6897C20.6377 8.6897 20.2759 9.05074 20.2759 9.49739V27.2666C20.2759 27.7133 20.6377 28.0743 21.0836 28.0743C21.5294 28.0743 21.8913 27.7133 21.8913 27.2666V9.49739C21.8913 9.05074 21.5294 8.6897 21.0836 8.6897Z" fill="#464250"/>
<path d="M21.0836 30.4973C20.6377 30.4973 20.2759 30.8584 20.2759 31.305V32.9204C20.2759 33.367 20.6377 33.7281 21.0836 33.7281C21.5294 33.7281 21.8913 33.367 21.8913 32.9204V31.305C21.8913 30.8584 21.5294 30.4973 21.0836 30.4973Z" fill="#464250"/>
</svg>
