<svg width="13" height="13" viewBox="0 0 13 13" fill="none" xmlns="http://www.w3.org/2000/svg">
<path d="M12.7179 5.89159C12.9738 5.6313 13.0641 5.24929 12.9537 4.89417C12.8431 4.53906 12.5549 4.28556 12.2009 4.23176L9.05317 3.75438C8.9191 3.73401 8.80326 3.64625 8.74339 3.51936L7.33613 0.542318C7.17812 0.207852 6.85741 0 6.5 0C6.14285 0 5.82214 0.207852 5.66413 0.542318L4.25661 3.51936C4.19674 3.64625 4.08064 3.73401 3.94657 3.75438L0.798851 4.23204C0.445084 4.28556 0.156916 4.53906 0.046282 4.89417C-0.0640914 5.24929 0.0262378 5.6313 0.282127 5.89159L2.55962 8.20867C2.65672 8.30757 2.70123 8.44994 2.67832 8.58905L2.14077 11.8612C2.08038 12.2288 2.22225 12.5931 2.51146 12.8127C2.80041 13.0325 3.17656 13.061 3.49337 12.8868L6.30841 11.3419C6.42841 11.2762 6.57159 11.2762 6.69159 11.3419L9.50689 12.8868C9.64434 12.9624 9.79324 12.9996 9.94136 12.9996C10.1337 12.9996 10.3253 12.9368 10.4888 12.8127C10.778 12.5931 10.9199 12.2288 10.8595 11.8612L10.3217 8.58933C10.2988 8.44994 10.3433 8.30784 10.4404 8.20894L12.7179 5.89159Z" fill="#FFC629"/>
</svg>
